<?xml version="1.0" encoding="UTF-8"?>
<svg id="Layer_1" data-name="Layer 1" xmlns="http://www.w3.org/2000/svg" viewBox="0 0 656 656">
  <defs>
    <style>
      .cls-1 {
        stroke: #000;
        stroke-linecap: round;
        stroke-linejoin: round;
        stroke-width: 2px;
      }
    </style>
  </defs>
  <path class="cls-1" d="M481,121c-1.76.22-.95-2.26-1-3.49-1.15-27.67-1.88-55.74.1-83.41l140.32-1.16c.83.14,3.45,14.51,3.61,16.52,1.06,13.3-1.75,26.77-2.08,39.99-.41,16.78,2.73,33.48,2.04,50.05-.05,1.23.76,3.71-1,3.49v-14.5c0-.17-1.35-1.58-2-1.5v20h-1V48c-30.82.37-61.71-.48-92.54-.04-3.41.05-7.27,1.39-10.96,1.47-11.14.26-22.37-2.8-33.51-2.93,27.13-1.15,54.38-.2,81.55-.46,2.6-.02,5.06-1.06,7.91-1.09,15.87-.17,31.78-.22,47.55,1.05v-11.01s-139,0-139,0v86ZM587,33h-41.5c-.29,0-5.56,1.06-5.49,1.99l32.54.06,14.45-2.05ZM591,46v1h20v-1h-20ZM621,63c3.15-2.1,3.21-12.76,0-15v15Z"/>
  <path class="cls-1" d="M66.5,229c2.23.69,1.41,6.01,1.5,8.01,11.98.78,23.3,1.67,34.99-2-.13,1.21.68,2.23-.66,3.02-.85.5-12.11,2.06-13.84,2.07-3.1.02-5.85-1.19-8.95-1.13-11.47.2-27.4,2.54-38.1,1.1-8.13-1.1-4.3-8.42-4.43-12.48-.02-.65-1.85-.08-2.11-2-2.02-14.95,1.65-34.63.13-50.11l-2.08-30.94,2.03-1.51,1,4.99v-8s-1.98,1.01-1.98,1.01l1-22,2,1.48c.49,23.33-.65,46.74-.04,70.06.35,13.42,3.86,28.69,2.13,42.03-.19,1.49-3.97,2.16-.41,4.5,5.11,3.36,21.7-1.52,28.32-.08-.95-1.23-.64-6.99-1-6.99h-20v6s-.99,0-.99,0v-6.99c5.44,1.04,16.91-1.41,21.49,0Z"/>
  <path class="cls-1" d="M533,253.5c.04.98,2.87,2.95-.99,2.49.06-22.07-3.52-43.96-1-65.99,2.4.44,1.58,7.55,2,7.99,19.07-.94,38.03,1.97,57,.01l.49-10,2.53,12.42c-4.47,2.11-1.1,9.92-.98,14.03.21,7.31.88,14.85,1,22,.11,6.89-.02,13.71-1.08,20.5-15.69,2.07-31.67.58-47.5,1.08l-8.46-2.04h54v-56l-57-1c.61,18.1-.82,36.41,0,54.5Z"/>
  <path class="cls-1" d="M174.99,144.01c6.63.06,12.83,1.25,19.55,1.04,9.17-.29,19.59-2.66,28.92-3.08,4.33-.19,31.01-.39,32.54,1.05.86.81.52,2.06-1.42,1.86-11.5-1.2-22.89,1.61-34.04,2.17-14.4.72-28.69-1.73-43.09-.99-4.19.82-4.27-8.92-4.49-12.51-1.13-18.04-1.35-36.92-2-55-.12-3.4-.39-38.54,1.54-38.55l2.49,104.02ZM237.99,143.01h-14.48s-10.51,1.98-10.51,1.98h13.48s11.51-1.98,11.51-1.98Z"/>
  <path class="cls-1" d="M210,45c1.03,11.23,3.4,22.67.91,33.91-9.58,1.75-19.24,1.24-28.86.03l-2.09-24.49,2.03-8.45c-.41,10.72.41,21.32,1.02,31.99l21.99-1c-.68-7.47-6.87-14.75-14.06-8.56-2.73,2.35-2.13,5.81-4.93,7.56-1.38-3.92,5.55-9.1,5.85-10.64.24-1.22-1.6-3.18-1.85-4.94-1.42-10.11,11-10.97,11.99-2.83.46,3.8-3.24,7.06-3,7.39.22.31,4.41,1.71,5.87,4.64.71,1.41,1.67,12.11,4.64,7.38.94-1.49-.52-1.85-.52-2.51v-28.5l-25.99.99,7.49-1.99h19.5ZM200.6,58.83c0-2.66-2.15-4.81-4.81-4.81s-4.81,2.15-4.81,4.81,2.15,4.81,4.81,4.81,4.81-2.15,4.81-4.81Z"/>
  <path class="cls-1" d="M623,158.01c-.37,1.8-1.96,1.87-3.46,2.03-4.08.44-9.84.83-13.99,1.01-33.58,1.46-67.06-2.22-100.56-2.55l118.01-.49ZM585,158h-21l10.45,2.04c3.08-.37,8.71,1.11,10.55-2.04Z"/>
  <path class="cls-1" d="M103.99,233.99l-2-1.48-.5-113.53c.63,0,1.27,3.69,1.38,4.62,3.09,24.29,1.8,39.19,1.07,62.84-.48,15.81.45,31.73.04,47.54ZM104,171v-27.5c0-1.08-2.01-4.35-1.01-6.5h-.99s0,28.5,0,28.5c0,.88,1.86,3.63,1.01,5.5h.99Z"/>
  <path class="cls-1" d="M258.99,34.01c-1.58,4.67-.05,8.28.05,12.46.63,26.52,1.28,49.42-.09,76-.38,7.47.37,15.07.03,22.54-2.24-1.18-1.94-7.04-2.04-9.45-.55-13.34,1.72-25.91,2.1-39,.58-19.96-3.36-40.16-2.05-60.06.13-2-.79-2.89,1.99-2.48Z"/>
  <path class="cls-1" d="M516,148c-1.76.22-.95-2.26-1-3.49-.29-7.08-.22-14.94-.04-22.05.06-2.37,1.04-4.55,1.08-6.92.38-19.97-.86-40.11-.04-60.05.05-1.22-.75-3.72.99-3.48.3,11.82-.35,23.71-.03,35.54.3,11.09,2.08,23.99,2.13,34.96.01,2.86-1.11,5.31-1.13,7.95-.05,7.33.34,14.74.04,22.05-.05,1.23.76,3.71-1,3.49v-32h-1v24Z"/>
  <path class="cls-1" d="M102,116.01c-2.79,3.6-10.05,1.71-14.49,2-1.97.13-3.84.94-5.97,1.03-14.46.58-29.08-.51-43.54-.05-.18-2.5-.24-1.71,1.5-1.97,20.45-3.01,41.94-2.19,62.5-1.01ZM85,116h-26c-.08.65,1.33,2,1.5,2h17c1.34,0,5.09-2.07,7.49-1.01v-.99Z"/>
  <path class="cls-1" d="M543,239l18.43-2c3.72.49,19.65-1.17,21.36,1.22s2.22,11.78-2.29,11.78h-38.5c-.22-1.76,2.26-.95,3.49-1,12.2-.51,24.28-1.08,36.51-1,0-1.66.57-9-1.5-9h-37.5Z"/>
  <path class="cls-1" d="M254,34.01c-.38,1.82-1.97,1.86-3.46,2.03-9.99,1.13-20.12-.14-29.99-.08-15.22.08-30.36.5-45.54,1.04l7.61-1.87c13.3-2.37,26.65-.16,39.83-.07,10.58.07,21.01-.6,31.55-1.04Z"/>
  <path class="cls-1" d="M609,133c-1.47.17-1.8-2.61-1.91-3.59-1.23-11.29,1.95-22.57.92-33.9l1.98-12.51,1.05,51.54-2.03,10.45c-.08-7.93,1.32-15.54.99-23.5-.05-1.23.76-3.71-1-3.49v15Z"/>
  <path class="cls-1" d="M96,181v22h-19v-1h18v-20h-21c1.28,6.93,1.07,13.95.99,20.99-1.01.3-1.99-4.25-1.99-4.49v-17.5h23Z"/>
  <path class="cls-1" d="M199,89l1,18h-16.5c-.11,0-1.5-1.39-1.5-1.5v-15.5l2.02,8.53-.59,6.49c4.51,2.88,9.87-1.03,14.56.97v-16c-4.31,2.31-8.57.23-12.99-.01v-.99s13.99,0,13.99,0Z"/>
  <path class="cls-1" d="M588,187.01c.23,1.74-2.27.94-3.48.99-17.49.72-34.95,1.27-52.51.99.56-2.4,1.69-1.23,2.81-1.31,12.26-.89,24.42-.51,36.74-.64,5.31-.06,10.55-1.83,16.45-.03Z"/>
  <rect class="cls-1" x="536.97" y="56.23" width="70.05" height="2.23" transform="translate(-1.91 24.18) rotate(-2.42)"/>
  <path class="cls-1" d="M570,102l-41.5,1,7-2h33.5v-20c-1.4-.58-3,1-3.5,1h-22.5c-.22-1.76,2.26-.95,3.49-1,4.65-.19,9.34.16,14,0,1.53-.05,9.51-2.49,9.51.51v20.5Z"/>
  <path class="cls-1" d="M95,127v20.5c0,.11-1.39,1.5-1.5,1.5h-20.5v-4c1.35-.6,1.56,3,2.5,3h17c.11,0,1.5-1.39,1.5-1.5v-17c0-.11-1.39-1.5-1.5-1.5h-18c-.23,0-1.09,1.48-1.49,1v-2s21.99,0,21.99,0Z"/>
  <path class="cls-1" d="M67,181c-.91,7.46,2.46,14.67-.1,21.9l-9.23.73-10.67-1.62h19v-20h-19v-1h20Z"/>
  <rect class="cls-1" x="545" y="72" width="66" height="1"/>
  <path class="cls-1" d="M577,83c1.76-.22.95,2.26,1,3.49.61,14.64-.55,29.41-.04,44.05.09,2.61.94,5.09,1.09,7.91.06,1.18.7,5.55-1.04,5.54,1-2.14-1.01-5.41-1.01-6.5v-54.5Z"/>
  <path class="cls-1" d="M244,97v2h-35v-.99c2.41,1.06,6.16-1.01,7.5-1.01h27.5Z"/>
  <path class="cls-1" d="M237.5,124c1.55-.08,9.15-3.47,8.49.99-11.44-1.47-24.42,2.42-35.51,1.01-1.82-.23-1.62.34-1.48-2,9.45-.35,19.05.48,28.5,0Z"/>
  <path class="cls-1" d="M512,58v10h-22c-.22-1.76,2.26-.95,3.49-1,5.89-.24,11.69.34,17.51-1-.08-.87-.65-7-1-7h-18v-1h20Z"/>
  <path class="cls-1" d="M183,117.5c.57-1.81,14.16-3.44,16.07-2.07,1.78,1.28,2.1,14.76,1.92,17.57-.64.07-1.99-1.33-1.99-1.5v-14.5h-15v14.5c0,1.69,10.15.19,12.52.5,1.38.18,3.13.74,1.48,2-2.35-.32-14.99,1.07-14.99-1.49v-15Z"/>
  <path class="cls-1" d="M65,131c-.26-.24-2.22.18-3,0l2-2.98-5.99-1c2.49.07,7.99-1.15,7.99,2.49v19.5c-3.06.35-10.29-9.98-11.5-9.98l-9.5,9.98h18v1h-19l-.99-13.99,2.98,10.99c1.81-3.4,10.37-13.58,13.53-14.98.44-.2,1.64-.25,1.48.49-1.58,2-5.51,4.13-5.07,6.93l9.07,6.58c-.41-2.16.56-14.5,0-15Z"/>
  <path class="cls-1" d="M552,109v2h-21.5c-.6,0-2.25-1.39-3.49-1.01v-.99s24.99,0,24.99,0Z"/>
  <polygon class="cls-1" points="564.99 128.01 548.54 130.04 528.01 129.99 546.46 127.96 564.99 128.01"/>
  <path class="cls-1" d="M566.99,120.01l-19.45,2.03-19.54-.05c-.23-1.74,2.27-.94,3.48-.99,11.86-.49,23.61-1.06,35.51-.99Z"/>
  <path class="cls-1" d="M527,103h-2v-21c.77-.58,2,2.02,2,2.5v18.5Z"/>
  <path class="cls-1" d="M548.87,230.87c-7.86,1.14-9.14.28-8.75-7.75,7.49-3.43,11.08.35,8.75,7.75ZM548.01,223.99l-7,.02c1.78,6.08-.51,6.67,7,6v-6.01Z"/>
  <path class="cls-1" d="M229,118.99c-4.42-.3-8.69,1.23-13.03,1.61-2.19.19-2.84-1.25-3.49-1.25-1.05,0-1.69,2.27-3.49,1.64.5-1.57,1.92-2.66,3.52-2.97,2.19-.42,10.45-.91,13.12-.98,1.58-.04,2.94.17,3.36,1.94Z"/>
  <path class="cls-1" d="M221,90.01c.35,2.6-2.86,6.82-3,2h-.98c.26,4.37-6.11.49-9.02.99-.21-2.64-.11-1.66,1.52-1.96,1.72-.32,10.87-1.58,11.48-1.03Z"/>
  <path class="cls-1" d="M604,146c.08.65-1.33,2-1.5,2h-19.5v-.99c1.25.38,2.9-1.01,3.5-1.01h17.5Z"/>
  <rect class="cls-1" x="529" y="115" width="35" height="1"/>
  <path class="cls-1" d="M221,72l10.5-2.09c2.07-.25,4.03.79,6,.9s6.21-2.74,5.5,1.2h-22Z"/>
  <polygon class="cls-1" points="553.99 134.01 540.49 135.99 528.01 135.99 539.51 134.01 553.99 134.01"/>
  <path class="cls-1" d="M238.5,65c1.69-.1,4.91-2.01,7.5-.99.07.64-1.33,1.99-1.5,1.99h-24.5v-1c6.13-.26,12.37.35,18.5,0Z"/>
  <path class="cls-1" d="M96,229c.27.27-.17,3.91-.01,5h-.98s-.01-4-.01-4h-20v5s-.99,0-.99,0v-6c3.01.58,21.21-.78,21.99,0Z"/>
  <path class="cls-1" d="M550.99,205.01c-.56,2.85-2.95,4.43-4.22,7.28-1.41,3.14.64,5.58-3.77,4.72l-.99-7.01,2.98,4.99c.05-1.59.08-3.3.68-4.8.68-1.69,3.11-.42,2.32-3.19l-6.99-1.02-.5,3.01c-6.79-5.76,6.25-3.68,10.49-3.99Z"/>
  <path class="cls-1" d="M46,210c.2-1.94,4.01-1.95,5.45-2.04,3.09-.19,9.69-.79,11.55,2.04h-17Z"/>
  <rect class="cls-1" x="578" y="80" width="30" height="1"/>
  <path class="cls-1" d="M88,134.01c-6.5,5.66,1.16,6.87,4,11.98-5.03-.41-6.73-9.77-10.99-4.99-1.2-2.57,6.11-7.8,6.99-6.99Z"/>
  <path class="cls-1" d="M91,212.01c-3.01,4.02-10.54,1.18-15,1.98,3.01-4.02,10.54-1.18,15-1.98Z"/>
  <path class="cls-1" d="M232,103c-1.32,3.88-4.35,1-5.5,1h-17.5v-1h23Z"/>
  <rect class="cls-1" x="220" y="59" width="27" height="1"/>
  <rect class="cls-1" x="210" y="130" width="25" height="1"/>
  <path class="cls-1" d="M58.99,212.01c3.31,2.52-7.52,2.12-8.55,2.05-1.71-.12-3.31.1-4.44-1.56l12.99-.49Z"/>
  <path class="cls-1" d="M94,208l-14.46,2.05-3.54-.06c-.07-.64,1.33-1.99,1.5-1.99h16.5Z"/>
  <path class="cls-1" d="M90,154.01c-.16,1.61-4.3,1.88-5.51,1.98-3.77.32-7.7-.19-11.48,0-.1-1.48,3.82-1.38,4.98-1.49,3.72-.35,8.18-.15,12.01-.49Z"/>
  <polygon class="cls-1" points="46 185 46 202 43.96 187.53 46 185"/>
  <g>
    <path class="cls-1" d="M523,361l12-66.48c-.48-5.43-14.08-5.04-18.08-5.94-1.43-.32-5.35-1.98-5.92-3.57,12.21-.68,29.97,1.59,28.03,17.53l-11.03,59.46,25.37,1.13c2.76.93,3.03,11.4,2.4,14.16s-3.9,6.19-3.79,1.72c-1.61-.5-.38,1.54-1.69,1.98-1.78.59-8.61.22-9.05,2.47l-2.22,207.06c-2.79,1.01-9.37,3.38-11.79,1.25s-2.67-42.51-2.88-48.42c-.9-25.76-1.26-51.92-1.32-77.79-.06-23.96.09-47.83-1.06-71.54l-3.12,9.36c-5.66,17.11-5.03,37.84-9.34,54.66-1.84,7.16-8.37,11.92-8.55,12.67-1.17,4.84-.17,23.49-.02,29.84.56,23.93,4.12,48.93,2.08,72.99-.59,6.92-.88,10.96-8.53,10.48-6.15-.39-3.91-2.89-4.61-8.41-1.63-12.96-3.31-27.66-3.94-41.07-.93-19.73.87-39.36-1.95-59.05-.14-.95-.4-2.05-1.46-2.23-1.92-.34-15.18,2.56-19.01,2.78-8.89.5-20.27,1.02-29.06,1.04-4.6.01-9.58-1.97-14.49-1.08.54,21.55-1.06,43.01-1.04,64.55,0,2.86,1.08,5.31,1.09,7.91.06,14.67,1.83,37.49,0,51.09-.9,6.69-13.66,8.63-14.57.49-1.94-19.35.91-40.45-.43-59.59-.12-1.71.1-3.31-1.56-4.44l-2.49,55.99c-3.22.6-12.13,2.47-13.58-1.47l1.94-112.58c-2.24.2-8.52-2.95-9.86-.97s-4.75,23.54-5.36,27.67c-1.54,10.4-2.84,21.67-3.86,32.15-.19,1.94,1.67,4.28-.93,5.07-2.45.74-7.25-1.1-8.22,1.79-.73,2.19.6,8.97.98,11.79.86,6.48,2.36,14.04,2.31,20.68-.04,5.6-2.26,10.43-1.46,15.81-4.88.96-9.5,4.08-14.15,5.39-13.21,3.72-49.78,4.81-62.88,2.03-9.5-2.01-14.17-2.11-12.84-12.73,1.65-13.24,14.57-16.07,23.77-22.29.88-22.02,2.69-44.23,4.13-66.33-2.77-.48-1.68.58-2.25,2.19-4.09,11.54-7.9,23.59-12.23,34.76-1.11-.82-5.8-2.59-6.51-1.95-.26.23-1.76,6.23-1.8,6.73-1,11.77-2.03,19.96-6.49,31.49-.97,2.5-5.71,12.43-7.65,13.26-.27.12-5.61.38-5.89.28-.12-.05-.23-1.47-.92-1.68-22.66-7.02-44.71-15.92-64.56-28.26-5.86-3.64-11.67-5.47-8.43-13.05,3.43-8,9.67-11.9,18.24-12.75s18.5.64,26.55-.44c4.08-.54,8.69-5.18,13.46-5.56,4.62-8-2.97-6.21-7.46-10.57-2.91-2.82.65-2.11.93-3.12,4.75-17.24,6.97-31.98,13.27-49.57,4.34-12.11,15.64-44.17,23.71-52.29,11.12-11.19,54.69-19.98,70.58-20.5,4.47-.15,10.17,4.25,9.46-3.96-15.5-.08-31.03.07-46.55.04-40.03-.09-80.78-2.19-120.92-1-19.52.58-38.59,1.7-58,.92-2.79-.11-7.02-.37-9.56.52-2.85,1,.97,1.32,1.11,2.94.7,8.37-.95,19.15-1.1,28.07-.78,48.39-2.24,97.37-2.95,146.05-.06,4.31-1.99,16.18-1.03,19.79.2.77,1.98.64,2.01,1.24.03.67-1.08,5.19-1.68,5.46-3,1.34-12.16,1.75-13.81-1.97l-2.52-200.56c-.81-4.41-7.14-1.83-10.52-2.48-4.93-.95-4.8-13.84-4.48-18.02l93.99-3.01c-3.26-12.14,5.46-24.93,6.99-36.53.27-2.03-.08-1.28-1.46-1.47-5.16-.72-9.67,1.12-14.03,1.09-6.91-.05-14.97-3.01-22.02-2.49-2.23-.66-5.66-14.38-6.2-17.38-3.59-20-4.2-42.38-6.28-62.72-1.23-12.03-4.22-25.09-4.98-37.02-.6-9.41-2.35-17.48,6.46-22.51,7.38-4.21,11.3-2.44,19.02-2.98,20.97-1.47,41.95-.83,63.05-.95,23.39-.13,59.64-3.09,81.87,1.04,10.39,1.93,11.23,11.49,12.46,20.54,1.72,12.59,1.7,26.07,3.14,38.86,2.24,19.88,6.9,42.48,8,62.09.25,4.45-2,3.32-2.04,4-.14,2.92,2.65,9.96.53,13.44-2.39,3.93-17.48,5.69-22.02,5.98-22.61,1.43-46.79-.66-69.44-.94l-5.05,29.95c3.25-.95,19.65,2.3,21,.99.39-.38-1.92-4.74,2.49-10.01,1.76-2.11,4.03-3.05,5.51-4.97-6.06.64-13.03,8.09-10,13.98-11.58-.44-6.77-8.42-.33-12.83,12.82-8.78,26.35-8.82,40.71-5.25,12.7-5.06,33.66-4.96,45.34-10.7,2-.98,8.55-11.25,8.85-13.18.27-1.69-2.11-2.12-1.56-4.04,10.06,4.26,20.83,7.24,29.5,13.98,2.3-.09,4.2-20.82,9.01-22.97.44-.2,1.64-.25,1.48.48-1.55,2.09-1.91,4.96-2.54,7.44-1.97,7.72-3.06,17.49-4.97,26.04-1.57,7.01-4.83,13.35-6.98,20.05-.43,1.36-.34,2.68,1.01,2.97s5.76-6.33,8-6.98c5.68-27.09,35.1-22.38,55.02-13.98,5.1-1.33,38.95-2.22,40.52-3.5,3.06-2.51-1.41-27.45-.04-32.52,2.34-.39,1.93.21,2.45,1.99,1.68,5.74,2.42,15.04,2.54,21,14.63-2.63,29.08-2.29,44,0l-3.81-18.71c-3.19-2.76-1.91-5.16-2.39-6.53-5.33-15.25-9.03-25.5-22.67-35.38-8.21-5.95-17.32-7.68-25.63-13.37-1.5,1.8-.07,7.33-1.75,8.74-.64.54-2.33.37-3.28,1.22-11.23,10.03-21.06,14.91-37,14.07-6.78-.35-15.15-3.74-19.16-9.33-.88-1.23-.59-3.68-1.52-4.49-.29-.25-6.73-1.93-7.47-1.94-1-.01-12.23,4.67-13.98,5.55-17.05,8.57-21.57,23.39-30.87,38.13-.94,1.49-6.56,8.79-8.45,7.04-1.68-1.56,18.9-32.02,21.48-35.01,7.37-8.53,15.74-12.36,25.49-17.49-6.1-4.13-12.48-11.95-15.15-18.83-2.27-5.83-3.3-19.31-3.82-26.18-.2-2.58,1.32-10.25-.22-11.3-1.16-.79-5.51-.49-7.51-2.48-2.35-2.34-4.38-15.41-2.4-18.13.91-1.25,8.32-.59,9.67-2.53s-.11-10.12.45-13.06c-5.75-.32-11.84.44-17.55.05-6.1-.42-14.86-1.26-20.84-2.16-3.53-.53-20.34-3.31-20.6-7.38,2.19-3.33,2.29,1.58,4.97,1.5-2.42-4.54,3.42-2.81,1-5.99,17.76-4.79,35.94-2.04,54.01-1,.31-8.59,3.53-19.87,8.56-26.94,5.41-7.6,26.69-19.3,35.94-20.05,4.21-.34,9.26,1.37,11.94,1.02,2.83-.37,4.29-4.83,8.02-4.93,7.72-.2,6.8,8.03,8.76,9.67.79.65,11.61,4.09,14.15,5.35,11.1,5.51,17.15,9.59,20.92,22.08,2.67,8.84,2.39,23.44-.32,32.29-.55,1.81-5.24,7.32-2.99,9.52.62.6,9.89-1.18,12.24,4.25,1.23,2.84-.58,17.69-2.16,20.32-3.62,6-15.1,4.82-15.97,5.53-1.64,1.34-3.17,35.36-4.99,40.32.53,2.16,4.95,1.4,6.95,2.02,16.84,5.17,33.07,17.17,40.43,33.57,4.38,9.76,12.01,33.35,11.41,43.54-.09,1.51-1.73,2.52-1.86,3.99-1.14,12.84-1.33,23.46-11.04,33.45h16ZM422.99,102.01c-8.42-2.41-19.39-.95-25.99,4.98l25.99-4.98ZM473,161v-15.5c0-.29-1.25-1.37-1.41-2.4-2.24-13.71-8.06-24.85-21.06-31.13-17.49-8.45-34.31-7.96-52.73-2.68-17.18,4.92-24.08,21.85-29.81,37.19,13.83.98,27.71,3.36,41.52,4.5,7.09.59,14.78-.59,21.89.11,13.9,1.37,27.9,8.02,41.6,9.9ZM395.02,155c-.38-3.91-8.31-3.89-12.07-4.45-9.8-1.47-18.64-.62-28.1-1.12-11.48-.6-21.4-3.77-33.29-1.31-2.18.45-11.49,3.42-5.53,5.32,12.14,3.86,31.29,3.95,44.41,4.59,21.08,1.03,42.22,1.01,63.1,2.43,1.2.08,3.8,3.9,3.47-.45,1.82-.17-.03,1.76,2.43,2.08,1.91.25,5.14.63,4.57-2.07h.97c-.8,2.51,7.99,2.89,10.47,3.03,1.35.08,6.24.74,6.54-1.03-7.49-.18-15.15-3.44-22.3-4.73-7.63-1.37-23-4.19-30.22-4.34-2.1-.04-3.86-.6-3.49,2.04h-.97ZM362.5,195c4.1.69,11.41,0,16,0,.91,0,3.6-1.9,5.5-.99.57,2.3-.99,2.39-2.73,2.72-2.23.42-13.13-.18-13.28.85.27,3.93-.33,8,.03,11.91.54,5.88,7.08,28.13,10.15,32.85,6.78,10.44,29.9,14.52,40.83,8.67l-5.48,5.01,13.49-3c-5.8,5.8-16.43,4.29-24,5.49,12.29,8.89,23.37,11.56,37.67,5.68,2.54-1.04,11.61-6.23,12.77-8.23,1.46-2.51,3.65-11.45,4.3-14.7,2.01-10.07,3.63-22.55,5.12-32.87.35-2.44-.06-4.88.2-7.3,12.4.74,24.73-7.58,17.34-21-5.37-9.77-13.48,3.32-16.91,3.94-4.55.82,2.58-4.91,1.48-6.02-4.16,1.26-25.54,8.66-28,6.99l1.01-1.98h-3c.21,3.52-.67,13.03-3.67,14.83-4.49,2.68-24.53,1.42-27.12-3.55-2.95-5.64.94-9.73-7.73-10.28-13.79-.89-4.45,4.27-11.48,9.99v-19c4.12-.95.22,6.08,3.58,6.88,1.65.39,9.96-2.15,13.42.11l.99-4.99c1.64,5.18.22,11.8,4.59,15.92,4.65,4.38,17.17,1.74,23.29,1.93,1.39-.87,1.56-15.85,2.14-18.86-8.26,1.82-16.71,1.27-25.24,1.35-1.31.01-2.2.88-2.75-1.34,6.35-1.65,12.75-3.26,19.37-2.88,5.63.32,11.59.81,10.65,7.85l33.87-7.09c.22-.26.35-6.65.1-6.89-1.42-1.37-29.12-1.71-33.48-2.02-22.47-1.61-44.93-4.68-67.52-3.99v13.01c5.4.94,11.05-2.1,16,.49-1.18,1.87-2.88,1.22-4.49,1.51-3.49.64-20.55,1.85-21.55,2.46-1.3.79-.6,1.61-.55,2.55.07,1.47,2.09,10.98,2.62,12.22.32.76,1.83,1.66,2.48,1.77ZM180.5,361h38.5c-5.36-6.29-.99-13.85-1.88-21.38l17.38-72.63.22,4.23-15.43,72.57c-.86,5.98-3.04,12.11,1.38,17.24l41.32.96c0-1.07.28-2.07-.44-3.05-1.52-2.09-26.14-.44-31.05-.95-3.4-.35-6.94-.85-6.51-4.99l-1.98,1.99c.26-17.34,4.64-35.19,8.26-52.23,1.97-9.24,7.54-24.17,8.26-32.68.18-2.17-1.84-2.97-1.52-5.09l2.58,2.98c-1.29,17.69-6.74,35.22-8.59,53.01h6s-4.99-1.99-4.99-1.99c17.88.56,35.65-1.3,53.54-1.06,7.63.1,16,1.97,24,1.1,1.38-.15,2.71-.02,3.34-1.63-3.94-42.24-12.98-83.91-13.87-126.42,2.84,1.81,3.38,7.4,3.87,10.62,2.87,18.71,3.13,38.05,5.13,56.87,1.2,11.33,3.94,22.6,4.98,34.02.74,8.09.49,17.29,1.02,25.49.23.24,5.68-.88,5.88-1.11,2.34-2.72-6.89-62.76-7.87-71.4-2.1-18.55-2.86-37.33-5.13-55.87-.62-5.1-1.01-7.14-6.33-7.67-31.57-3.12-72.82.64-105.16.96-17.33.17-35.52-1.89-52.93.06-1.5.17-3.09.21-3.46,2.03,6.49-.18,13.05.26,19.54.05,37.17-1.18,74.68-1.33,111.92,0,6.91.25,15.5-.88,22.06-.04,1.46.19,3.1.76,1.48,2-45.51,2.91-90.97-.92-136.54-.04-3.45.07-7.02,1.02-11.01,1.09-5.05.09-10.05-2.84-15.02.9l14.79,128.85c3.83,2.8,26.88.28,33.35,1.13,1.68.22,1.98,3.97,5.48,1.62,2.46-1.65,14.15-49.92,18.14-56.35,11.02-2.35,22.57-.73,33.8-1.19.27,1.31-1.84,1.59-2.74,1.74-9.58,1.56-19.55,2.53-29.15,1.36l-25.87,84.63c-.3,2.26-1.1,9.54,1.26,10.26ZM263,185h-37v.99c1.25-.38,2.9,1.01,3.5,1.01h32c.17,0,1.58-1.35,1.5-2ZM143.99,306.99l-.12-6.37-2.86-13.62,1.15,12.33,1.83,7.66ZM365.88,323.11l-24.28-10.19c-1.6,2.8-2.78,5.79-4.77,8.41-9.72,12.81-46.03,16.94-61.34,15.68-5.16-.43-9.36-3.72-15.51-1.52-3.35,1.2,1.94,1.22,1.01,3-1,1.91-15.48,5.83-12.99,13.51,10.74-4.89,17.22-11.98,29.99-5.98-1.59,3.42-8.49,2.39-9.99,5.5-.94,1.94,3.38,2.4,4.48,2.49,7.37.61,16.01-3.18,25.06-3.05,16.97.26,35.37.73,51.94,1.96,3.31.25,6.5,1.6,9.9,1.15,1.35-4.31,8.44-28.68,6.49-30.95ZM300.99,320.01c-20.38-.93-40.59-.26-61.01.49,16.55.62,32.94,1.86,49.55,1.54l11.45-2.03ZM513.01,326l-40.01-1.99c-.44,4.48.04,6.57,5,6.01.3.21-.51,1.23-.99,1.5-5.35,3.04-35.85,5.29-43.47,5.53-13.92.44-20-6.25-31.3-7.82-8.52-1.18-25.32,7.4-27.24,16.78l18.51-9.97c3.46,2.64-4.23,5.26-6.01,6.98-.88.85-8.48,10.72-4.02,8.98,2.8-1.09,14.9-11.85,17.02-11.97,1.2-.07,1.34,1.18.5,2.48-2.76,4.28-9.95,6.21-10,12.5,2.05,1.98,13.42-9.67,16.99-8.99-4.1,6.11,11.48,10.62,15.27,9.83,1.68-.35,2.8-2.16,4.73-1.84.07.92-.56,2.53.64,3.04,2.06.88,14.04,3.37,16.98,3.84,13.27,2.14,43.91,3.33,56.08-1.69,11.23-4.63,11.48-22.84,11.31-33.2ZM269.99,347.01c-7.98-1.89-11.34,3.85-17.99,6-.36,4.02,6.72.92,10,2.48,2.73,1.3,2.56,6.29,3.61,6.57l75.4-1.06v-6.01c-17.22.41-34.26.93-51.55,1.05-2.12.01-4.06-1.05-5.96-1.04-3.2.01-17.99,5.29-18.58-1.52-.34-3.89,3.6-4.07,5.07-6.47ZM379,349.99c-6.27-.49-12.5,4.24-11,11.01,5.36.3,10.13-1.1,15.55-1.05,7.87.07,16.78,2.05,25,1.1,8.43-.98-1.71-9.54-4.24-9.92-1.95-.29-19.04,16.91-16.32.87-3.46,2.83-10.36,4.65-8.99-2.01ZM286,353v1h20v-1h-20ZM343,361h22c.2,0,.14-3.85,0-4-.75-.78-18.52.17-21.49-2.02l-.51,6.02ZM433.99,361.01c-3.03.52-6.46-2.55-8.71-2.82-2.8-.34-7.59,1.38-11.27-.19-.18,1.53-.16,3.41,1.64,3.88.72.19,12.78.11,14.8.11,1.19,0,3.77.77,3.55-.99ZM193,363h-53v.99c1.25-.38,2.9,1.01,3.5,1.01h43c1.08,0,4.35-2.01,6.5-1.01v-.99ZM522,365c.08-.65-1.33-2-1.5-2h-20.5v2h22ZM414,364c-74.81,1.04-149.8.37-224.54,1.96-15.42.33-30.54.16-45.92,0-18.92-.2-37.77.58-56.55-.96.58,3.1-.99,12.01.44,14.07,1.8,2.58,21.23-.9,25.07-1.05,49.91-2.01,100.02,3.29,150.03,2.03,45.55-1.15,91.24-1.54,137-.08,4.56.14,9.55,1.92,14.46,1.04v-17ZM553,366.01c-29.93.89-59.65.97-89.54.03-2.37-.07-4.55-1.01-6.92-1.08-13.5-.43-27.06.09-40.54-.95,3.72,1.96.87,15.75,2.58,16.01l133.43-3.01.99-11ZM167.99,380.01c-19.18-2.12-38.8-1.04-58,.49,18.22,1.97,36.3,1.24,54.52.5,1.22-.05,3.72.75,3.48-.99ZM280,380v1h34v-1h-34ZM115,383l-15.01-1c2.03,36.16,2.35,72.28,2.96,108.55.04,2.37,1.06,4.55,1.08,6.92.27,25.52-4.04,59-1.09,83.09.66,5.41,4.69,3.05,9.05,3.46l3-201.01ZM385.5,457c4.73-.65,10.61.47,15.5,0l-1-74c-12.82.21-27.91-1.66-40.56-.05-3.17.4-7.39,3.71-2.05,3.9,3.32.12,6.75-.07,10.11.15,2.46.16,4.96,2.56,4.51-.99h.97c-.43,3.51,6.38,1.73,9.53,2.05,5.3.54,12.01,1.46,16.48,4.44-.57.68-2.96,1.2-3.76,1.22-11.52.35-26.54-4.98-38.7-4.75-13.99.27-56.72,8.17-69.52,13.54-11.06,4.64-16.67,21.19-23.51,30.49l-25.5,75.95,47.98,23.03c.12-3.08-.32-6.19.24-9.26,4.55-24.98,23.95-59.38,33.63-80.55.39-.86,1.82-3.44,1.81-3.72-.02-.92-2.07-1.83-1.68-2.45.11-.17,2.08-.3,3.48-2.04,1.84-2.3,2.93-6.58,4.72-9.28,6.19-9.34,10-14.34,21.02-17.98,11.85-3.91,24.41-5.48,36.77-6.72.48,2.88-.63,1.65-2.31,2.13-14.29,4.06-43.04,8.24-51.52,21.53-9.51,14.91-15.28,61.86-18.02,80.98-.62,4.37-.4,12.12-1.35,15.65-.22.81-.88,1.7-1.78,1.71l-1-7.99.04,17.95c19.12,3.93,38.42,6.37,57.96,7.05v-8s-1.99,2.99-1.99,2.99c1.65-28.19,7.19-56.48,17-82.99,3.92.97.19,5.94,1,7,.79.21,1.14-.95,1.49-1ZM416.5,383c-4.83.06-9.68-.05-14.5,0v7.99c2.78-.67-1.23-7.04,2.99-5.99.18,14.1-.51,28.4-.04,42.54,1.7,50.8,3.69,102.08,4.08,152.91.05,7.03-1.43,13.55-1.04,20.55,10.35.51,7.07-.58,6.95-7.46-1.2-68.03,1.9-137,3.01-205.09.03-1.71,1.13-4.28,1.04-4.94-.3-2.34-2.37-.52-2.5-.52ZM488.91,421.92l6.57-33.91-.45-5.55-73.02-.46-1.1,76.52,5.08.47-3.99-2.98c16.79-.86,41.65,1.12,53.99-12.52,4.16-4.59,6.59-12.39,9-18.05l-60.01-25.93.5-2.49c11.59,4.1,25.5,6.53,36.69,11.29,6.93,2.94,13.71,7.88,20.57,11.07.68.32,2.68,4.13,6.16,2.53ZM494.5,449c-5.85-.32-12.09,0-18,0-.41,0-6.36,4.93-5.49,6l23.39-2.81,1.6,1.8c-24.83,4.8-50.66,7.06-76,7.01v13.01s81.04-6.47,81.04-6.47c1.95-1.29,2.59-12.58,3.26-15.74,1.94-9.23,4.5-18.35,6.42-27.58,2.47-11.89,4.05-24.54,6.78-36.24.15-.65.58-3.02,1.52-1.46.08,3.85-1.3,7.53-1.72,11.28-.12,1.1-1.16,3.42.7,3.2.74-6.49,4.45-12.4,4.02-19l-9.55-.04-12.98.99c-1.5,7.86-2.78,38.16-7.97,43.08-1.14,1.08-3.21.8-3.45,1.04-.44.46.58,2.88.4,4.07-1.34,8.52-5.3,9.53-8.44,15.37-1.1,2.04-.11,1.06.99,1,5.77-.33,11.29-.96,17.01.49.58,3.98-2.42,1.05-3.5.99ZM540,382h-15c1.62,23.69,1.26,47.72,1.96,71.54,1.01,34.38,2.41,68.46,2.08,103-.06,6.39-1.47,12.96-1.08,20,.1,1.71.88,10.83,1.18,11.32.27.44,3.53,1.25,4.36,1.18,4.06-.31,1.52-5.35,1.45-8.49-1.41-63.59,1.86-128.43,4-192.09.08-2.24,1.02-4.24,1.05-6.45ZM504.01,462c4.77-4.53,4.79-13.83,4.98-19.99l-4.98,19.99ZM405,469v-23.5c0-.17-1.35-1.58-2-1.5v17.5c0,1.34,2.07,5.09,1.01,7.49h.99ZM101.99,521.99c.21-25.05-1.09-49.95-1.49-75.01-1.16,23.82-.48,47.78.5,71.52.05,1.22-.76,3.72.99,3.48ZM114.99,502.99c.43-16.31,2.02-32.68.51-49.01-.35,15.19-2.12,30.28-1.5,45.52.05,1.22-.75,3.72.99,3.48ZM312,538.03l-4.67-2.47c.19-25.82,5.42-51.05,8.66-76.56-1.49.25-1.92,1.84-2.49,3-10.54,21.88-11.39,42.54-12.54,66.46-.56,11.46.05,23.09-.95,34.54.35.47,8.71-5.33,9.47-7.02,1.72-3.86,0-13.41,2.52-17.95ZM402,460c-6.25.89-12.81,3.05-18.99.99l-1.93,11.93c6.8,2.34,14.26-.3,20.92,2.08v-15ZM526.99,520.99c.04-18.36.44-36.76-1.49-55.01-3.58-.02.52,41.48-.49,45.5l1.98,9.5ZM497.99,471l-11.05,2.58,7.68,107.48,4.38-.06-1.01-110ZM470,472h-17.5c-.6,0-2.25,1.39-3.49,1.01v.99s17.49,0,17.49,0c.6,0,2.25-1.39,3.49-1.01v-.99ZM401.99,476.02c-2.16-2.19-7.54,2.89-9.98,1.99l-1.02,112c1.64-.27,5.15.75,6.12-.59.55-.76,1.76-11.82,1.88-13.93,1.37-24.32,1.42-48.81,5.09-72.99-1.88-4.04-.45-24.82-2.1-26.48ZM276.98,531.04c-.27-.37-6.93-1.95-8.78-2.75-6.64-2.84-13.52-5.5-19.71-9.26-1.85,1.83-3.51,4.12-1.48,6.44,1.68,1.91,8.8,6.45,11.31,7.71s13.19,5.54,15.39,5.67c2.54.16,3.67-7.26,3.27-7.81ZM253.01,568c-3.74-3.24,6.79-10.18,9.71-10.77,2.57-.52,7.5.56,8.8-1.2.44-.59,3.6-12.75,3.4-13.41-6.37-3.32-13.16-3.71-19.62-7.43-4.43-2.55-8.2-6.61-11.81-10.16-2.35,2.88-6.04,3.98-9.5,4.98-.39.52,6.2,8.49,5,10.98-7.27,1.28-5.43-11.22-13.99-8.99l2.99,9.99c-2.59.6-1.74-.77-2.57-1.89-1.06-1.44-3.52-6.06-4.43-6.6-1.97-1.18-9.59-1.6-8.18,2.15,1.21,3.23,3.01,6.4,3.11,10,.08,2.62-1.53,5.5-.81,7.67.55,1.68,10.02,5.65,12.38,6.67,11.91,5.17,25.34,7.4,35.5,15.99-19.27-7.38-39.61-12.62-57.67-22.82-2.27-1.28-9.42-5.62-10.84-7.17-1.59-1.73,1.97-.52,1.51-1.5-.42-.89-8.8-3.89-4.51-4.49l18.51,9.99c1.17-2.93,1.05-15.45-1.13-16.87-1.25-.82-10.55-.12-12.59.65-3.45,1.3-11.58,9.3-8.29,12.72,22.03,16.2,48.18,25.14,73.7,34.37,1.37.38,1.59-.7,2.1-1.59,1.05-1.82,8.04-20.53,7.21-21.28-8.24-.19-13,4.32-17.98,9.99ZM330,537.01l-20-3c3.4,3.23,11.83,3.77,16.47,4.03,1.1.06,3.79.64,3.53-1.03ZM500,537v22c3.8.8,1.34-5.38,2.05-7.55l-2.05-14.45ZM312.01,554c3.21-1.89,13.42-11.4,6.99-14.5-9.6-4.63-6.64,9.09-6.99,14.5ZM357.91,546.91c.45-.67.19-3.21-.34-3.98-1.25-1.8-16.68-.76-20.11-.89-2.55-.09-12.65-2.91-13.38-.46-.33,1.1-.51,2.69.54,3.52,4.44,3.5,30.85,5.49,33.29,1.81ZM538,543h-1v34h1v-34ZM359,565c.52-.59-.39-12.76,0-15-2.52,2.09-1.75-1.02-2.51-1.04-1.29-.02-2.51,1.63-4.03,2-5.29,1.3-12.31.82-17.71-.22-3.15-.6-11.28-4.22-13.12-3.83-.56.12-5.06,8.53-5.63,10.07,4.18.98,10.11,4.1,9.99,9.01-1.82,1.84-15.2-9.45-17.97-2.49,0,1.24,10.8,4.08,9.97,8.49-.68.65-9.95-5.81-12.57-5.98-3.51-.23-6.99,3.77-10.43,4.5l9.44,8.55c1.76,1.34,4.21,10.48,4.7,10.8,3.59,2.31,29.03-2.32,34.83-2.9-.09-7.75,4.09-16.64,10.67-20.84,1.54-.98,4.21-.96,4.36-1.13ZM359,584c.55-.55,0-13.28,0-15.5,0-.13,1.96-2.61-.5-2.48-.52.03-5.65,4.51-6.48,5.5-3.37,4.05-4.58,8.19-4.03,13.48.39.39,10.61-.61,11-1ZM303.99,590c.66-4.48-8.94-17.4-12.48-17.71-.79-.07-9.52,5.16-10.57,6.16-1.58,1.5-5.84,7.47-2.71,8.82,5.52,2.37,19.14-.09,25.76,2.73ZM358.99,586c-6.71.76-12.95,3.86-19.59,4.89-13.26,2.06-45.16,4.12-57.22.42-4.3-1.32-7.84-5.58-3.67,3.67.89.32.22-1.36.67-1.75.67-.58,12.36,3.46,15.33,3.75,17.73,1.73,35.97-3.24,53.11-5.88,4.33-.67,13.03,1.56,11.38-5.11Z"/>
    <g>
      <path class="cls-1" d="M394.99,186.01l-3.74,26.79.76,4.21c4.6-1.7,8.76-2.54,13.53-1.03,1.4.44,1.76-.61,1.46,2.02-3.61.38-17.89,4.02-19.87.87-.82-1.31,3.83-24.96,4.73-28.51.46-1.79.48-5.11,3.12-4.35Z"/>
      <path class="cls-1" d="M421,224.01c-4.8,8.91-12.11,12.27-21.99,9.98l21.99-9.98Z"/>
      <path class="cls-1" d="M474.01,195c-.37-2.43,1.94-6.54,1.61-8.54-.51-3.05-5.4-1.09-4.61-4.45,8.12-2.17,8.54,9.67,3,12.99Z"/>
      <path class="cls-1" d="M415.99,191c-2.99,2.81-6.49-5.98-1.49-7.98,2.44.85,2.48,7.05,1.49,7.98Z"/>
      <circle class="cls-1" cx="370.49" cy="186.98" r="2.9"/>
    </g>
  </g>
  <polygon class="cls-1" points="493 78 504.47 75.96 507 78 493 78"/>
  <path class="cls-1" d="M55.99,155.01c-.44,1.46-5.33,1.47-6.71,1.52-1.02.04-5.25.52-5.26-1.03,0-2.12,6.9-.25,8.06-1.17l3.92.68Z"/>
</svg>