<?xml version="1.0" encoding="UTF-8"?>
<svg id="Layer_1" data-name="Layer 1" xmlns="http://www.w3.org/2000/svg" viewBox="0 0 656 656">
  <defs>
    <style>
      .cls-1 {
        stroke: #000;
        stroke-linecap: round;
        stroke-linejoin: bevel;
        stroke-width: 2px;
      }
    </style>
  </defs>
  <path class="cls-1" d="M96.4,241.3c-.42.27.06,2-.7,1.7-6.54-2.53-11.29-6.3-14.34-12.65-9.56-19.84-19.16-45.73-26.01-66.14-2.27-6.77-4.5-14.69-6.12-21.68,1.3-7.35,5.38-14.42,12.12-17.93,5.76-3,32.39-12.28,38.58-13.36,3.15-.55,8.96-.8,11.64.87,1.64,1.02,12.18,20.83,13.76,24.22,6.74,14.43,9.76,29.29,15.04,43.93,2.19,6.08,10.64,20.87,10.62,26.24,0,.84-2.26,11.13-2.65,12.22-1,2.78-5.3,6.64-7.87,8.12-5.45,3.13-29.68,13.2-35.48,14.49-2.57.57-6.54-1.32-8.58-.03ZM89.21,220c-1.43,1.74,4.53,10.2,8.52,10.95,6.21,1.16,22.02-5.53,28.42-8.44,4.65-2.12,15.85-7.03,18.39-10.58,1.15-1.62,2.14-3.55,2.56-5.51-5.76-15.48-11.37-31.05-17.5-46.39-2.41-6.02-5.77-11.77-8.22-17.77s-6.72-26.1-12.74-27.24c-9.33-1.77-32.29,7.23-41.1,11.79-6.59,3.41-8.27,6.64-6.85,14.23,3.32,17.79,15.13,37.25,20.03,54.93l11.46,24.52c-.44,1.4-2.65-.91-2.98-.5ZM67.51,174.81c-.21-.56.8-5.44.25-7.76-2.47-10.45-13.75-22.15-11.52-34.04l-2.89,3.79c-1.52,3.29-.75,7.07-.01,10.47.3,1.36,4.04,7.79,4.59,9.29,5.12,13.9,7.96,28.16,14.22,41.23,1.9,3.96,2.62,6.07,3.36,9.47,1.18,5.36,6.05,14.95,8.26,20.04,3.48,8.01,7.24,14.43,17.87,12.15,4.92-1.05,10.1-4.59,14.31-6.36,9.94-4.18,20.97-7.44,29.17-14.59l-18.27,8.7c-13.02,3.17-33.04,17.3-38.65-2.21l-1.98,1.02c2.18-5.12-.44-3.23-1.34-5.27-6.17-13.96-12.04-31.78-17.36-45.93Z"/>
  <path class="cls-1" d="M588.43,171.01c.55,2.65-.66,1.72-1.96,2.48-10.13,5.92-20.28,10.15-30.49,15.5-.93.49-2.38.5-2.48,2l16.99,2.6c5.22-4.53,19.94-9.42,23.98-14.06.76-.88,1.28-1.13.97-2.52-2.26-.09-5.18-.72-5.99-3,3.12-.98,6.29,1.58,8.71,1.78,2.22.19,4.31-1.22,6.57-.8.53.1,7.81,5.67,8.47,5.98,3.3,1.56,15.89,3.7,16.12,8.45-1.59,12.52-4.43,24.98-4.47,37.62-10.44,9.98-22.82,17.22-34.89,24.93-1.95-1.25-1.07-1.61-1.02-2.97.35-9.57,4.64-26.18,6.75-36.27.31-1.5,1.31-2.4,1.76-3.73l-13.96-5.01c-.7,2.47-2.84,16.14-4.02,17-2.26,1.64-3.75-3.82-4-3.99-1.24-.88-3.27,2.61-4.97,2,.62-5.4-1.65-1.9-3.54-2.22-4.39-.75,1.02-17.89.46-18.67-.46-.65-14.12-5.87-14.89-5.11-.68,9.4-1.13,19.01-2.13,28.38-.14,1.26-.51,3.84-.93,4.88s-2.8.29-1.94,2.73c12.34,4.5,24.84,9.13,35.7,16.66,1.1.76,3.22,3.17,4.23,4.35-2.08.26-3.77-.06-5.72-.76-6.42-2.3-15.48-9.16-22.55-12.41-4.64-2.14-9.87-3.66-14.68-5.35l6.23-42.26c9.34-5.74,19.25-11.71,29.39-16.05,2.77-1.19,5.44-3.36,8.34-2.14ZM600.43,180.01c-1.81-1.3-10.49,6.51-12.67,7.81l-14.29,8.16c3.22.54,6.13,1.84,8.66,3.89,7.92-5.9,16.17-12.4,25.27-16.89-1.06-2.42-5.58-1.81-7.47-.97l.5-2.01ZM626.37,188.01c-4.28-.69-13.01-5.45-16.75-4.39-1.92.55-17.82,11.97-20.1,13.97-.96.84-3.42,2.42-3.09,3.89.18.81,9.97,5.74,11.28,5.39,1.39-.37,11.33-9.57,14.53-11.52l14.12-7.34ZM626.38,191.01l-19.3,12.16-8.15,6.84c-1.33,4.17-3.2,30.46-4.49,31.47-.37.29-1.87-.52-1.94-.42-.39.59-.49,4.64-1.07,5.94l29.4-21.04,5.54-34.94ZM578.45,216c-1.73-3.19,2.4-10.92,1.96-12.38-.19-.61-8.92-4.63-9.44-4.6-.72.05-1.2,1.42-1.34,2.25-.32,1.94.99,7.9-.04,10.66,2.84-.24,3.3.2,2.89,3.08,2.81-1.63,3.67-.73,5.97.99Z"/>
  <g>
    <path class="cls-1" d="M278.92,264c-.81-14.96,6.74-28.19,13.45-41.02,5.61-10.72,12.29-22,18.69-32.29,2.27-3.65,13.03-21.65,15.69-22.25,1.67-.38,9.21,5.21,8.95,6.87-.22,1.42-3.45,4.17-4.27,5.78-6.01,11.8-11.6,24.21-18.05,35.92s-21.06,39.63-30.92,46.03c-1.23.8-1.99,1.24-3.54.95ZM328.69,181.87c.36-.21,4.21-6.89,4.12-7.3-.23-.98-4.99-3.86-6.37-3.66l-4.58,9.06c1.94,0,5.14,2.9,6.84,1.89ZM320.74,181.2l-1.89,2.43,5.68,4.42,1.89-2.43-5.68-4.42ZM292.85,249.97c.65-.47,4.32-12.55,5.49-15.01,7.01-14.72,15.99-28.81,24.12-42.94,1.58-2.25-4.57-5.76-5.59-5.02-9.42,16.88-17.62,39.08-29.11,54.4-.94,1.25-2.69,1.55-2.78,1.69-1.11,1.56,5.32,8.73,7.87,6.88ZM289.89,251.01c-2.9-.19-4.28-1.54-5.48-4.01-3.54,1.39-1.83,15.99,5.48,4.01Z"/>
    <path class="cls-1" d="M218.05,263.98c1.6.27,3.03-.47,4.49-.94,9.49-3.04,22-11.1,31.14-12.8,4.54-.85,7.2.78,10.66.68,3.19-.1,6.95-2.71,10.57-1.9l-58.91,17c-1.77-17.13-9.34-32.89-14.24-49.25-3.66-12.23-7.9-25.81-7.82-38.16.01-1.89-1.53-4.35-.89-6.6l3.91,11.57c5.02,27.37,17.39,52.56,21.09,80.4Z"/>
    <path class="cls-1" d="M241.97,190c.13-.02.08-1.16,2.37-1.06,4.7.19,10.65,2.95,13.03,7.14,1.12,1.98.77,5.18,2.56,5.92,1.29-6.81-4.25-11.8-4.97-17.99,10.14,10.75,7.44,30.43-4.51,38.99-9.48,6.79-9.19-10.76-11.45-12.53-1.3-1.02-6.58,1.94-6.86,3.13-.29,1.27,1.55,4.5.82,6.41-1.86.08-1.42-4.57-2-4.99-4.62-3.38-.47,13.4-1.48,14.99l-13.34-36.35c1.1-3.39,4.95-2.01,6.95-3.11,1.48-.81-2.67-3.9,3.89-1.54-2.38-2.12,3.32-4.19,5.65-4.92,2.77-.86,5.45-.94,8.32-1.06-.62,2.3-3.27,1.57-4.93,2.59-.71.44-.83,1.82-1.85,2.36-2.42,1.27-14.93,4.87-15.06,6.52,3.52,5.09,3.68,15.06,6.86,19.82,2.12,3.17,3.91-2.21,5.46-3.34,1.64-1.19,5.22-1.56,6.04-2.95,4.28-7.23-6.1-1.69-9.5-2.03,1.21-2.63,7.1-1.62,8.56-3.98,1.02-1.64-2.46-6.55-1.58-9.01-7.17,1.99-10.35,2.86-7.99,10.99-2.43-.86-2.41-6.22-1.5-8.01,1.55-3.06,13.04-5.47,16.49-5.98-.28.03-4.83,2.31-5.04,2.49-1.17,1,.72,8.21,1.05,8.51.7.64,3.72-1.32,4.99-.99.27,1.59-2.98,3.35-2.99,3.58-.03,1.89,2.36,11.68,3.25,13.65,3.74,8.25,13.03-6.53,12.73-11.23l1.98,1.99c1.02-4.37-1.66-11.7-5.03-14.45-1.97-1.61-8.47-3.8-10.94-3.54Z"/>
    <path class="cls-1" d="M287.89,222c-2.35-2.64-4.46-7.35-5.84-10.64-6.05-14.44-7.56-30.2-9.28-45.64l-21.81-12.74c-.54-.77.73-2.8,1.55-2.97,1.3-.28,21.22,13.53,21.89,15.01,1.7,3.7,1.89,14.06,2.98,19.01,1.1,4.99,2.56,10.06,4.05,14.94,2.33,7.65,7.25,14.37,6.46,23.02Z"/>
    <path class="cls-1" d="M251.95,148.01c-.25,1.48-1.83,1.94-2.99,2.49-8.07,3.86-23.79,10.63-32.15,12.8s-17.46,2.29-25.75,4.7c-.41-2.41.26-1.89,1.98-2.46,4.04-1.33,8.93-1.6,13.21-2.82,11.35-3.25,22.64-7.18,33.73-11.22,3.97-1.45,6.64-4.28,11.98-3.49Z"/>
    <path class="cls-1" d="M250.27,156.78c.09.19,1.31.3,1.57,1,1.1,2.98,2.55,5.93,2.11,9.22,5.76-.51,8.47-3.97,14.5-2.03,1.4.45,1.78-.61,1.48,2.02-2.59.72-10.24.48-11.48,1.99-.36.43.59,1.96.5,2.01-.64.38-5,.12-6-.48-2.53-1.52-5.69-15.08-4.97-18.51,3.6.81,2,4.13,2.31,4.78Z"/>
    <ellipse class="cls-1" cx="194.24" cy="308.63" rx="3.44" ry="3.44"/>
    <g>
      <path class="cls-1" d="M454.89,76.75c2.56,2.07,17.97,6.83,22.63,9.84,12.7,8.19,15.29,26.75,13.79,40.64-.77,7.18-3.74,12.19-5.72,18.77,4.79-.93,13.85,2.39,14.7,7.66.2,1.22-3.28,17.04-4.27,18.3-3.82,4.84-14.96,4.82-15.55,5.63l-4.74,43.79c5.59,4.39,12.83,3.72,19.51,6.45,14.81,6.05,47.78,40.17,52.76,55.19.39,1.17-1.41,1.95-1.34,3.3.22,4.27,8.59,19.98,9.63,26.45.67,4.17-3.71,8.5,2.17,10.74-5.02.04-2.54,4.86-3.01,8.98-.53,4.66-4.95,17.67-4.73,19.87.24,2.46,5,5.13,6.99,7.9,2.18,3.04,14.11,22.21,14.55,24.49.95,4.96-3.57,6.34-2.8,11.25l3.98-1.99c.34,2.34-2.51,3.33-2.6,5.48-.05,1.2,4.38,13.21,5.11,16.51,1.67,7.52,5.38,24.39,1.91,30.93-1.1,2.08-5.47,5.45-7.39,7.6-6.71,7.51-14,12.84-22.95,18.01-10.33,5.97-22.16,7.77-33.88,6.58-2.24,9.04-7.66,18.09-14.43,24.54-19.62,18.68-57.34,19.34-83.05,16.17-.37-.05-4.77-1.7-6.52-2.26-4.41-1.4-8.21-3.94-12.82-4.66-.75-.94,1.14-6.45-3.1-5.89-.51,1.85-.2,4.3-.68,5.99-1.44,5.07-3.85,10.2-6.14,15.67-1.1,2.63-3.84,3.72-2.18,7.33l-1.98-1.01c-1.34,6.17-5.03,14.68-8.12,20.38-4.25,7.84-20.29,30.17-29.35,30.69-2.41.14-4.1-.85-6.08-.98-1.6-.1-3.24,1.08-4.69.76-3.1-.68-10.86-14.02-11.42-17.61-2.64-17.07,7.09-28.61,1.91-46.88-.07-.24-1.6-3.95-1.73-4.24-2.81-6.04-6.18-6.33-12.4-8.11-1.5,6.13-3.54,11.81-8.01,16.5-.32.77,2.91-.06,1.99,1.97-1.71,3.81-5.35-.31-7.07-.97-3.13-1.2-6.59-1.97-9.71-3.39-5.69-2.6-11.93-4.77-16.15-9.64-.44-2.46,1.83-1.5,3.25-1.25,7.67,1.33,16.63,6.7,24.7,7.78.47,5.05-5.92-1.08-7.98.48l8.97,4.51c7.46-17.57,12.7-42.18,24.15-57.33.46-.6,5.66-6.87,5.83-4.16.22,1.08-1.32,6.13-1.01,6.45s8.08,2.98,8.53,2.99c.77.02.71-2.58,2.01-2.9.71-.18,11.12,3.31,13.42,2.93l-27.1-34.86-1.85.88c-1.05-9.27-9.71-16.93-14.59-24.26-.43-.64-3.45-10.93-6.37-8.74l-15.99,39.99c1.64.91,7.21.08,7.8.29,3.03,1.05,10.92,5.51,14.56,6.87,6.39,2.37,12.98,4.6,19.62,6.15,1.52.35,2.53-.06.96,1.69s-9.43-1.42-9.98-.98l2.99,3.98c-13.14-1.31-24.75-10.3-36.29-15.16-1.07-.45-1.01-1.4-2.16.16-2.09,8.32-6.15,16.01-9.01,24.02-.35.98.45,2.06.22,2.8-.07.23-2.47-.03-1.7,2.7.2.7,2.35.14,2.02.98-1.32,3.4-8.7-.69-9.96.53-.26.26-1.17,6.91-1.1,7.3.22,1.09,3.01,1.32,3.05,2.18,0,.2-1.65.99-1.54,2.56.16,2.16,2.22,5.36,2.56,8.44.97,8.76-1.04,22.59.98,30.86.28,1.16,2.02.2,2.03,1.15-4.14.96-1.15,5.3-1.48,8.03-.66,5.46-12.17,9.3-16.75,10.73-17.72,5.54-43.24,5.94-62.18,6.73-10.63.44-20.5-1.05-30.88-3.04-1.05,1.41.05,2.6-2.55,2.05.73-4.39-3.43-8.38-3-12.41.09-.85,2.1-8.59,2.46-9.63,1.46-4.26,14.63-17.81,18.85-17.92,1.45-.04,3.23,1.91,4.19-.04.19-.39-.78-1.87-.53-1.99.7-.35,2.19,1.09,2.86.84.52-.19,6.48-6.64,8.16-7.39,1.23-.54,2.8.62,2.9.52.2-.19.69-3.54,2.02-5.23,1.04-1.32,7.97-6.05,7.99-7.25l-26.62-10.32c-13.56-7.12-25.21-17.36-31.45-31.5-6.39-14.49-4.03-21.88,1.14-36.22.65-1.81,4.44-11.18,5.05-11.94,2.31-2.82,14.55-8.75,18.43-10.54,5.74-2.65,13.96-5.94,19.95-8.02,2.1-.73,14.45-3.36,14.49-4.46-2.48-1.8-5.35-14.95-5.97-15.51-.85-.77-6.11,2.63-10.16.92-3.13-1.32-10.63-20.02-11.41-23.88-.47-2.33.17-8.83,1.09-11.03,1.27-3.04,6.08-6.22,6.35-7.65.18-.94-5.14-12.88-5.61-16.1-.17-1.16-.4-10.65-.11-11.12,2.93-4.79,46.02-6.39,53.34-6.18,2.13.06,4.04.96,5.96,1.03,13.11.49,30.28.15,42.87,2.07,6.06.92,4.54,4.8,5.56,5.95.77.87,19.09-5.47,22.95-3l-2.99,2.98c5.22.52,10.05,2.3,14.47,5.02l-.99-5.01,5.52,3.56c4.23-4.56-.05-4.73-.07-5.07-.05-1,8.32-15.34,9.61-17.41,8.43-13.5,16.69-24.88,29.46-34.5,2.92-2.2,11.01-5.96,12.46-7.52,1.6-1.72,1.22-3.83,2.43-5.57,5.44-7.88,6.08-6.94,14.53-9.46.68-.2,2.31.15,1.45-1.52-.46-.9-4.8-3.44-6.42-5.58-10.77-14.2-9.66-31.9-9.54-48.93-10.64,4.31-14.23-19-10.98-22.01.12-.11,1.88,1,3.23.82.76-.11,6.46-1.6,6.68-1.87.45-.53-.87-11.92.06-13.94-2.95-.06-5.4,1.11-8.43,1.04-9.01-.2-39.73-2.72-46.75-6.26-3.83-1.93-5.19-4.7-.73-6.77l2,3.99c-.89-7.15,12.99-8.66,18.48-8.98,11.65-.67,24.65,2.37,36.43,1.98.82-9.37,4.19-21.04,9.99-28.49s27.32-18.14,36.42-18.55c3.67-.17,9.35,1.71,11.79,1.08.73-.19,2.86-4.91,7.03-4.77,6.67.22,6.85,7.83,8.91,9.49ZM436.66,74.01c-3.93-1.31-8.13-1.33-12.23-.77l-13.71,5.75,25.95-4.98ZM485.85,124.83c-.29-.66.82-10.06-.31-14.27-5.11-19.01-19.32-28.1-37.83-32.1-10.88-2.35-37.11,1.25-46.32,7.71-5.85,4.11-17.71,24.38-18.62,31.37-.26,2.01.06,1.29,1.46,1.47,11.51,1.47,23.39,3.27,34.93,4.04,6.56.44,13.49-.5,20.05-.08,16.12,1.01,31.72,5.93,46.9,11.03.56-2.18,1.7-5.35,1.6-7.53-.09-1.83-1.78-1.42-1.87-1.63ZM446.41,130.36c-31.07-5.83-62.49-8.18-93.96-9.73-5.78-.28-8.85-1.77-15.88-.37-5.89,1.18-14.18,3.7-3.51,6.09,7.42,1.66,14.89,2.32,22.3,1.76.5-.04-.05,1.75,1.85,1.98,8.16,1,18.73-.82,27.03-.52,24.01.86,49.01,4.86,72.84,5.48,1.43.04,6.19.76,6.53-1.03-3.31-.89-8.18-.73-11.28-1.39-1.79-.38-5.58-2.2-5.94-2.26ZM398.73,167c1.09-1.1-1.84-16.53,1.5-19,1.76,9.98,3.55,4.36,9.99,4.9,2.61.22,3.19,2.06,5.47,2.09.76-.86-1.71-6.05,2-4.99-.16,7.14.88,17.01,9.47,18.02,2.32.27,16.51.27,17.55-.46,2.63-1.85,1.82-15.12,1.93-18.55-1.08-.38-2.18,1-2.49,1h-24.46c-.45-2.72.5-1.72,2.18-2.27,5.55-1.81,21.18-3.9,25.8-.25,1.52,1.21.62,5.5,3.46,6.2,8.01-2.13,16.1-4.73,24.21-6.46,2.14-.46,5.97.28,7.33-.66,1.7-1.17,1.76-7.7-1.56-7.57l-96.78-5.88-1.58,2.39v11.01s15.97-.02,15.97-.02c-3.41,3.51-8.35,1.97-12.4,2.58-4.68.71-9.11,3.17-14.56,1.92-.73.75,1.68,13.92,2.46,15.04,2.83,4.05,19.74.04,24.5.96-5.35,4.64-10.22,2.66-16.97,3.01,1.63,5.67.49,11.52,1.25,17.24.68,5.09,6.4,22.55,8.68,27.35,4.67,9.83,30.92,15.88,40.47,9.39,2.15,2.42-2.59,2.23-2.48,4,1.76.26,10.54-2.34,10.97-1.99,2.19,1.83-3.17,2.73-3.61,2.85-6.04,1.68-13.1,2.29-19.35,2.16,10.39,9.86,22.63,11.58,35.93,6.47,14.09-5.41,15.97-11.11,18.73-25.24,2.2-11.26,2.3-26.95,5.46-37.53.36-1.22,1.46-1.87,2.28-2.71.89-.29.22,1.97.92,1.96,1.47-.03,11.26-3.31,12.51-4.5,4.31-4.11,3.82-20.17-3.43-20.34-5.9-.14-8.57,6.7-11.11,7.79-1.21.52-2.76.62-2.41-1.41.38-2.28,2.81-2.7,2.51-4.5-9.52,2.08-18.62,6.59-28.44,7l1.99-1.98c-.82.11-2.65-.24-2.96,0-2.68,2.15,3.01,13.95-8.79,15.72-4.25.64-17.76-.12-21.19-2.24-3.14-1.94-2.29-9.78-3.44-11.56-1.09-1.69-12.55-2.26-14.11,0-1.75,2.55,1.77,4.55-3.43,9.06ZM551.5,321c.38-4.54-.32-8.81-1.3-13.21-4.43-19.92-10.52-36.51-25.65-50.31-14.15-12.91-23.14-19.76-40.66-27.28-3.24-1.39-5.59-4.5-9.28-4.21v4.01c-3.71-2.3-6.53,3.49-9.24,5.3-16.47,10.98-44.43,14.86-54.4-6.31-10.33-1.39-30.62-2.36-26.66,13.47l13.17,36.27c2.53,4.38,10.68,4.37,13.73.26,3.35,6.02,3.05-2.47,3.7-4.28.54-1.52,2.09-1.93,2.57-4.02.76-3.28-7.13-20.35-8.85-24.95-.25-.66-1.51-.78-1.57-.98l-3.34-14.77c1.92-.34,2.97,1.24,3.85,2.64,4.15,6.6,12.25,32.8,13.75,41.02,2.63,14.37,10,28.74,17.18,42.01,2.59,4.79,15.2,26.73,18.23,28.74,3.97,2.64,25.58,6.62,30.18,5.56.82-.19.73-1.8,1.96-2.32,1.47-.61,3.73.51,4.79-1.03.43-.63,3.42-12.77,3.63-14.42.23-1.84-.3-10.1-.69-11.56-.25-.96-1.92-.59-1.98-.68-.39-.56,1.7-1.39,1.56-3.04-.42-5.02-6.72-13.52-7.57-18.93,2.1-.4,3.84,3.19,4.82,4.67,1.04,1.57,1.86,3.45,2.18,5.32,2.83-1.06-1-7.66,0-8.99.58-.09,1.26.56,1.5.99,1.72,3.09,5.13,21.41,7.05,21.89,15.58-4.11,31.52.11,47.36-.87ZM380.75,244c-2.69-2.9-22.47,16.65-24.93,19.53-11.39,13.33-18.8,28.74-26.99,43.94,13.97,9.21,24.04,22.51,36.34,33.49,2.19-3.56,8.32-7.9,9.67-11.38,1.79-4.62.79-11.17,1.98-15.99.38-1.55,2.57-3.74,1.93-4.58-.28-.37-2.39.81-1.97-.99,3.28.63,2.84-13.05,5.48-13,.31,0,5.29,2.7,4.56,3.46l-8.05,29.51c6.97-2.65,10.47-5.48,18.46-4.97,2.35.15,16.03,3.76,18.16,4.72,2.58,1.16,5.39,5.96,7.97,6.1,1.18.06,5.16-2.75,8.32-.85-1.02-3.29-5.22-3.84-7.04-5.72-3.36-3.49-11.64-21.2-14.1-26.6-1.38-3.03-3.39-11.4-4.75-13-.98-1.16-4.46-1.31-6.57-2.67-8.86-5.73-18.18-30.45-18.47-41.01ZM442.05,328.74c-1.58-2.54-3.55-5.68-5.2-8.42-7.45-12.35-14.74-24.93-20.16-38.32l-8.97,5.01c3.73,5.45,5.85,11.42,8.99,17.28,1.7,3.17,3.96,8.98,6.52,12.67,1.09,1.57,2.99,1.76,3.32,2.23.34.5-.69,2.1-.14,3.51,3.04,7.81,15.79,16.88,23.73,19.3l-6.16-11.79c-.27-.8-1.7-1.09-1.93-1.48ZM238.97,296h-27.96v2h22.47c.88,0,3.62-1.86,5.49-1.01v-.99ZM284.9,302.99c-1.06-2.63-4.84-4-7.48-3.99-11.75.04-24.08.96-35.91,1.05-19.81.15-39.65-.2-59.45-.04l6.99,23c.9.81,11.9-4.46,16.27-1.84,4.58,2.75-2.44,8.83-1.29,9.83,15.61-1.15,5.58,7.63,6,9.44.29,1.23,4.6,2.46,4.74,4.05.15,1.68-4.71,6.49-3.76,7.51,15.03,3.53-7.46,13.43-7.98,14.52-.27.57,1.63.29,2.3,1.72,3.35,7.1,1.29,18.74,13.53,15.64.27-5.45,19.19-33.17,18.04-34.76-.17-.23-2.07-.46-2.97-1.53-5.21-6.22,1.79-16.78,9.02-16.56-2.48,3.43-7.13,3.63-7.94,8.56-.41,2.47,1.47,10.46,3.93,8.42.63-.53,6.84-12.13,8.19-14.3,1.57-2.51,6.49-7.74,7.3-9.74.53-1.32-.54-2.67-.01-3.92.17-.39,4.97-5.85,5.62-6.42,6.61-5.93,16.78-7.27,24.85-10.62ZM311.46,305.46c-8.78-4.5-13.84-2.66-22.11,1.51l.54-1.96c-5.84.59-13.33,4.81-18.29,8.16-25.4,17.16-35.32,53.45-47.74,80.18-6.15,13.23-14.69,26.67-20.32,39.65-2.47,5.68-5.48,20.13-7.98,24.01-.31.48-1.27,1.3-1.5.99l-1-4.99-1.99,8.96c14.13,2.66,28.28,6,42.56,7.9,3.69.49,20.4,2.74,22.67,2.18.91-.22.72-1.32.67-2.03h.97c.14,4.23,6.32,1.1,8.53,4,.41-5.17,5.38,1.24,4.47,1.99l-4.98.5c.85,1.77,6.39,1.96,6.98,1.5.2-.16-.56-2.19-.44-3.12,2.25-17.84,15.73-41.91,22.86-58.99,5.86-14.05,10.48-32.6,19.93-46.01.84-1.19.03-2.45,2.58-1.87,1.16,1.51-3.33,10.81-4.98,12.5.67,1.39,3.33-.85,2.89,1.88-.7,4.36-10.03,17.04-8.42,20.58.76,1.67,6.68,6.36,8.49,8.57,8.09,9.85,17.34,21.79,24.96,32s12.75,25.06,23.23,32.79c2,1.48,5.14,1.83,6.48,2.96,6.08,5.16,10.07,17.47,20.68,21.83,1.91.78,4.09-.47,4.5-.08.25.24-.2,2.39,1.04,3.46.54.47,11.72,5.74,12.94,6.07,5.74,1.53,32.6,6.61,37.54,6.5,9.55-.21,35.22-9.23,44.39-13.56s12.96-14.52,16.97-23.49c-3.23.5-15.78-1.03-17.45-3.02s-.57-4.84-4.52-4l1.01-1.98c-1.14.06-2.14.21-3.07-.66-1.23-1.15-6.69-11.24-7.96-13.6-2.23-4.14-2.77-7.69-4.56-11.67-1.97-4.38-1.4-1.38-2.62-6.3-2.98-12.05-1.95-5.35-7.75-8.27-2.95-1.48,1.25-1.53,1-2.01-1.64-3.05-5.76-.52-8.25-.72-5.98-.47-12.68-6.42-18.7-6.78-1.34,1.19,14.96,16.87,11.48,20.99-2.54-1.7-4.52-4.52-6.6-6.38-17.37-15.47-27.56-35.99-41.82-53.11-4.14-4.97-12.26-9.26-17.49-14.49-12.52-12.51-21.13-28.74-34.42-40.52-4.61-4.09-26.77-20.81-31.44-21.35-2.87-.33-.84.89-3.92-.68ZM193.38,333.34c3.23-2.87,8.71-4.17,11.62-7.84-.1-3.69-10.34-.7-12.3.46-1.35.8-.38,2.43-.67,3.05-.16.33-1.83-1.25-2.77-.84-.21.09-.23,1.18-.61,1.39-1.99,1.06-4.38,1.8-5.64,3.9-4.92,8.26,3.89,27.58,9.58,34.61,7.29-3.51,14.25-7.25,20.4-12.58,1.8-4.4-8.33,1.8-8.96,2.02-6.07,2.13-12.68-.42-5.72-3.72,5.13-2.44,10.4-2.05,13.69-8.77-7.26-.85-12.48,5.27-19.96,4.98-2.4-2.16,10.48-7.65,11.3-8.17,1.64-1.04,10.84-8.37,4.39-7.61-6.58.78-12.68,4.36-18.69,6.78-1.1-1.18,3.33-6.77,4.33-7.65ZM551.49,324c-14.63,1.26-29.25,3.75-43.93,3.99l.99-2.98h-3.99c2.56,12.64-9.78,29.96-22.62,30.64-11.08.58-25.26-4.47-35.28-9.16-6.42-3.01-12.95-8.02-18.49-12.47-4.58,11.4-5.67,23.66-12.61,34.39-1.16,1.79-3.63.89-2.86,3.59,4.02-1.29,7.92,4.15,12.09,6.39,16.38,8.8,36.71,20.4,55.31,21.6,14.56.94,25.8-3.45,38.35-10.57,6.24-3.54,13.65-9.4,17.47-15.51s14.99-32.52,15.55-39.43c.28-3.47-.15-7.02.01-10.49ZM403.72,356.01c-1.32,2.79-1.87,4.76,1.27,6.27s3.8-.3,6.37-.94c.87-.22,2.43.9,3.36.25,1.91-1.32,6.48-21.54,8.93-25.02l-26.94-11.12c-5.91-2.32-27.71,13.24-28.79,17.22-.36,1.34.38,3.26,1.34,3.31,1.08.05,13.05-9.09,16.48-7.97-1.76,3.91-5.22,6.48-7.15,10.32-.43.86-3.39,6.99-.35,5.66,1.24-.54,12.31-13.43,13.48-11.99.32,5.34-9.37,11.93-9.03,16.47.07.97.96,2.51,1.55,2.51,1.51,0,10.31-15.22,12.48-12.97-1.19,5.74-6.46,10.19-7.57,15.95-1.2,6.24,2.99,3.85,5.57.54,2.81-3.61,2.88-9.54,8.99-8.49ZM213,410.99l24.96-55.99c-4.4,4.81-8.52,12.9-11.46,19.01-4.55,9.46-10.17,22.57-13.54,32.44-.31.92-2.08,4.6.04,4.54ZM555.5,368.01c.72-2.41-5.08-10.47-6.99-9.01-.39,2.19-1.1,4.38-2.21,6.32-2.1,3.68-5.72,8.54-7.79,11.14-6.79,8.53-15.43,18.36-25.66,22.33-3.34,1.29-8.31,1.54-11.05,2.9-1.67.83-1.12,2.24-1.24,2.3-.33.19-1.71-1.44-3.28-1.69s-13.82.52-16.19.69c-1.49.11-2.89-.77-2.47,1.49,5.81,5.86,11.53,20.03,20.54,21.47,1.47.24,11.32-1.06,13.24-1.56,12.7-3.29,32.41-10.69,44.02-18.97,6.43-4.58,11.8-9.93,9.07-18.44l1.98,1.02c1.19-4.58-3.15-3.14-1-7.01-3.2,2.07-4.93-.26-1-1.5-.88-1.66-4.37-2.77-4.99-4.01-.43-.86,2.69.24,1.99-1.98-1.23-3.9-2.38.56-2.48.48-3.75-2.97-1.2-6.63-1.51-6.99l-2.98,1.01ZM403.93,365.78c-.65-.38-1.33-3.71-3.18-3.78l-2.08,4.21c-.65,1.99-6.55,3.69-5.92,5.27,1.67,4.2,13.07,10.38,16.61,13.87,3.13,3.07,8,9.93,10.75,13.74,2.48,3.44,6.76,12.6,9.11,14.88,3.16,3.08,10.19,3.08,13.72,4.26,1.4.46,2.06,2.09,3.48,2.52,6.22,1.87,12.94,2.52,19.22,4.25-2-3.29-1.72-23.34-3.21-24.76-2.51-2.4-9.04-1.21-9.61-1.44-.15-.06-.04-1.77-2.11-2.37-2.67-.77-6.25.38-9.8-1.11-1.8-.75-8.92-6.74-11-8.23-4.43-3.16-6.94-1.75-7.18-2.06-.16-.22.26-1.74-.34-2.62-2.12-3.12-12.18-9.83-12.98-11.65-1.72-3.87,1.95-2.96,3.32-5.72-2.48-.16-6.53,2.09-8.78.77ZM420.69,406c-1.81-5.31-6.25-11.27-10-15.47-.98-1.1-6.73-7.6-7.96-6.52l17.96,21.99ZM209.02,387.99c-1.02-3.12-4.96-.49-7.21-.71l-9.75,3.71,16.97-3ZM218,472h-16.47c-.64,0-11.17-3.26-12.24-3.74-3.04-1.36-2.45-3.51-1.76-6.27,2.96-11.85,11.25-25.74,15.49-37.5-4.15-2.74-10.76-1.39-13.97-5.48,3.94-.02,5.01,1.22,5.5-3.03l10.46,4.02,10.48-31.02c-11.56,3.31-51.82,7.58-57.85,18.06-1.33,2.31-5.26,11.78-6.31,14.68-1.16,3.21-3.33,10.54-3.25,13.73.1,4.47,5.41,21.14,7.63,25.43,9.35,18.11,33.84,17.2,48.31,29.62-4.82.33-9.62-5.54-14.97-5.49,3.15,3.28,12.28,7.21,16.74,7.8,1.18.16,6.82-.76,7.05-1.03s2.79-5.9,2.95-6.5c1-3.63.85-9.32,2.21-13.28ZM475.34,403.28c-.72-.79-7.14-2.65-8.61-2.89s-2.42-1.26-2.09,1.1c1.28,1.29,2.81,1.46,3.75,3.25,4.24,8.01,5.98,24.77,8.93,34.06,2.18,6.85,8.58,22.51,12.38,28.36.62.96,4,4.56,4.88,5.15.43.28,9.19,3.45,9.7,3.53,1.57.25,2.7-2.29,3.27-1.83-.7,3.33,9.06.77,11.59.2,1.41-.32,1.46-1.87,1.6-1.92.35-.13,7.29-.24,6.8,1.71-2.6.18-7.4.56-8.98,3,7.08.64,13.18-3.1,19.24-6.01,9.34-4.48,20.96-9.91,29.2-17.93,10.07-9.79,8.06-13.1,5.36-26.45-1.17-5.78-3.35-14.13-4.95-19.85-.31-1.11-2.89.02-.94-3.75-3.76,3.08-7.06,6.58-11.07,9.41-12.74,8.98-29.13,11.18-42.83,15.05-4.83,1.36-11.34,4.59-16.5,4.55s-9.85-4.56-12.31-8.67c-2.82-4.72-5.88-17.27-8.42-20.06ZM336.29,441.63l-1.26,1,9.3,11.73,1.26-1-9.3-11.73ZM202.02,466.01c-2.5,1.38-12.51-3.49-12.97-3.01-.59.62-.06,3.31,1.65,3.84s5.72.25,7.85.15c1.22-.06,3.71.77,3.48-.99ZM220.07,485.91c7.54,3.59,15.78,6.47,24.36,6.09,2.33-.1,16.21-2.61,17.55-3.5.33-.22.98-7.5.89-7.89-.44-1.97-34.86-7.35-39.42-8.36-1.56.28-2.41,11.12-3.38,13.65ZM312.86,505.99c3.9-1.41,9.63,3.66,11.65,3.88,3.93.42,11.55-19.27,12.61-23.07,3.14-11.35,4.09-12.28-8.27-14.8-3.78,12.03-9.1,23.48-15.99,33.99ZM366.77,488c.62-.62-4.6-7.27-4.99-7.49-1.59-.89-4.56-.49-6.78-1.21-4.5-1.45-8.91-3.29-13.17-5.3-2.34,4.53.16,9.56-.66,13.76-.5,2.59-3.46,8.65-4.83,11.26-4.22,8.05-12.72,13.04-4.95,21.95,1.09.24,8.25-4.34,10.91-3.97,2.99.42-2.52,6.17,4.5,3,2.92,2.95-13.35,8.43-13.84,9.13-.61.87.09,3.55-.13,4.86,5.6-.81,13.44-9.91,15.97-1.01-2.89,1.99-14.7,4.65-16.06,6.43-.78,1.02-3.32,13.03-2.9,13.59,7.56-3.7,18.72-8.57,26.94-4.49l-6.98,1.48,10.88,1.94,18.94-39.45c-5.71-4.34-11.19-6.48-14.4-13.43-1.71-3.69-5.32-13.77,1.54-11.05ZM381.74,508c-.81-2.18,2.98-6.8,2.92-7.52-.08-1.01-14.36-9.75-15.88-12.48-.72,3.7,9.33,23.1,12.96,20ZM243.93,537.96c.63-9.63,6.76-18.6,14.69-23.79,1.77-1.15,6.84-2.34,7.2-3.75.24-.93-1.92-6.42-1.96-8.94-.03-2.15,2.31-9.22-.41-9.46-.76-.07-8.43,3.42-10.23,3.73-11.37,1.97-25.3-4.1-36.5-5.81-.82,2.8-10.49,11.01-8.69,13.04.12.14,2.22.02,3.52.95,1.75,1.25,2.42,3.6,3.97,5.05,1.93,1.81,5.88,2.26,5.48,5-1.62.64-3.64-.9-4.57-.91-.58,0,.09,2.59-1.91,1.91-5.18-4.82-12.05-11.73-17.47-3.49-.02,2.46,14.52,5.67,10.96,10.5-.5.67-12.17-7.7-13.63-7.83-.59-.05-9.94,5.4-10.32,5.85-.47.56-.14,1.39.62,2.06,1.95,1.74,6.31,3.27,8.38,5.68,3.72,4.33,6.7,12.64,8.06,18.16,14.28-2.95,27.96-8.26,42.81-7.97ZM371.76,503l-5.97-13c.12,4.54,2.38,10.17,5.97,13ZM389.18,504.59c-1.04-1.21-2.32-4.29-3.97-1.62-.59.96-2,12.23-3.27,15.72-4.82,13.23-17.38,34.61-25.34,46.62-2.66,4.02-6.04,8.12-9.3,11.69l.49-3.99c-1.72.31-8.02,8.09-6.98,8.99,6.22,1.07,9.22-2.34,12.95-6.52,17.95-20.15,20.84-37.52,31.56-59.35,1.27-2.59,5.7-7.87,5.47-10.51-.06-.63-1.27-.62-1.62-1.02ZM265.93,513c-4.34-.92-2.3,1.62-3.9,3.57-1.08,1.32-3.33,1.37-4.59,2.44-6.17,5.24-5.35,7.29-8.45,13.59-1.23,2.5-3.34,1.82-3.03,4.41,1.02.78,19.65-1.7,20.53-2.93,1.72-7.06-1.18-13.99-.57-21.07ZM194.04,545.99c-.96-5.57-8.42-24.57-15.21-22.82-.8.21-11.78,6.58-12.7,7.36-2.69,2.3-5.48,6.86-5.04,10.46l32.95,5ZM265.93,538.01l-17.24,3.22c-22.37,3.57-45.04,9.39-68.12,7.76-6.02-.43-12.92-1.65-18.47-3.99-.2,3.17-.49,6.07,2.5,7.99l.47-1.98c5.14-1.52,9.45,2.3,13.55,2.93,25.12,3.87,49.11-8.71,72.78-9.98,1.35-.07,6.24-.72,6.53,1.04l-19.96,4.02c0,1.81,4.29,1.06,5.47.98,4.09-.31,19.78-3,21.27-6.7.58-1.44.11-3.67,1.21-5.28ZM338.81,582c2.07-10.42,12.9-16.69,18.4-25.08.66-1,2.24-2.57.61-3.45-.97-.53-8.57-1.34-10.21-1.25-3.08.16-16.4,4.16-17.86,6.45-3.02,4.75,1.09,23.53,9.05,23.34Z"/>
      <path class="cls-1" d="M405.72,189c5.24-.4,11.06-2.59,15.97.49-6.31,2.52-15.49,6.04-21.03.85,2.53-9.45,2.81-19.9,5.76-29.14.41-1.29.7-2.92,2.29-3.2l-2.98,31Z"/>
      <path class="cls-1" d="M435.67,196.01c-4.11,9.18-13,14.43-22.96,10.98,1.55-2.9,5.84-2.62,8.68-3.79,4.92-2.04,9.44-5.02,14.28-7.19Z"/>
      <path class="cls-1" d="M487.59,166.99c1.46-2.27,3.16-6.69,1.55-9.07-1-1.47-4.4.29-3.55-2.91,1.72.08,3.71-.32,5.35.14,2.2.61,1.66,12.63-3.36,11.85Z"/>
      <path class="cls-1" d="M507.19,452.38c1.95,1.82,3.5,3.96,6,5.49,3.04,1.86,9.54,1.91,9.37,7.13,2.98-3.03,3.9-1.09,5.98,1.99-8.96,1.03-19.08-3.69-25.5-9.95-7.38-7.19-8.01-14.97-12.43-23.55,4.51-.44,6.72,7.57,9.57,11.42,2.19,2.95,4.39,5.01,7.03,7.47Z"/>
      <path class="cls-1" d="M541.51,400.01c.85,4.85-2.65,12.99-7.93,8.44-5.03-4.33,3.45-9.01,7.93-8.44Z"/>
      <path class="cls-1" d="M428.2,156c3.31-.7,3.29,7.54.97,7.99-3.36.65-5.06-6.39-.97-7.99Z"/>
      <path class="cls-1" d="M385.72,156.01c.19.14,1.47,3.56,1.93,4.35-8.08,8.84-6.01-7.2-1.93-4.35Z"/>
    </g>
  </g>
  <path class="cls-1" d="M91.19,123.01c.6,4.66-13.22,9.52-14.97,7.99-.37-4.6,12.87-9.81,14.97-7.99Z"/>
  <path class="cls-1" d="M121.01,216.86c-5.7,3.6-8.92-7.13-2.18-7.69,3.79-.32,3.9,6.6,2.18,7.69Z"/>
  <path class="cls-1" d="M101.18,183.01c-2.58,3.32-6.74,5.6-10.98,4.98.96-1.54,4.64-3.63,6.25-4.22s3.04-.97,4.73-.76Z"/>
  <path class="cls-1" d="M100.18,148.99c-2.72,2.56-6.35-5.61-4.98-7.99,1.94.21,5.72,7.29,4.98,7.99Z"/>
  <path class="cls-1" d="M82.2,171c.2.17,1.32,3.95,1.63,4.89.23.71,2.49,2.67-.13,3.1-4.32.71-4.67-10.72-1.5-7.99Z"/>
  <path class="cls-1" d="M99.18,173c-3.97.74-5.17-8.01-2.49-7.98l2.49,7.98Z"/>
  <path class="cls-1" d="M113.16,153.01c1.52,1.31-6.31,7.14-7.96,3.49,2.03-2.51,4.65-3.89,7.96-3.49Z"/>
  <path class="cls-1" d="M103.17,189.01c.05,3.74-6.63,4.11-8.98,3.99-.31-3.51,6.7-3.8,8.98-3.99Z"/>
  <path class="cls-1" d="M122.15,163c-3.22.92-4.63-7.23-3.98-7.99,3.22-.92,4.63,7.23,3.98,7.99Z"/>
  <path class="cls-1" d="M87.72,162.26c3.83.38,1.79,5.93-2.99,4.73-3.33-.84,1.42-4.89,2.99-4.73Z"/>
  <path class="cls-1" d="M86.2,156.01c1.41,1.87-3.95,5.13-5.98,3.98-.91-3.46,4.15-6.42,5.98-3.98Z"/>
  <path class="cls-1" d="M75.22,157c-1.84,2.07-5.68-7.23-4.98-7.99,1.7-1.84,6.06,6.78,4.98,7.99Z"/>
  <path class="cls-1" d="M113.16,142c-2.93.95-4.55-6.37-3.98-6.99,3.87.06,4.37,3.88,3.98,6.99Z"/>
  <path class="cls-1" d="M105.17,131.01c1.88,1.72-7.01,6.64-8.98,4.98l8.98-4.98Z"/>
</svg>