<?xml version="1.0" encoding="UTF-8"?>
<svg id="Layer_1" data-name="Layer 1" xmlns="http://www.w3.org/2000/svg" viewBox="0 0 656 656">
  <defs>
    <style>
      .cls-1 {
        stroke: #000;
        stroke-linecap: round;
        stroke-linejoin: round;
      }
    </style>
  </defs>
  <path class="cls-1" d="M111.16,522.01c.23,1.47-2.43,1.74-3.32,1.67-9.5-.69-20.96-6.64-28.98-11.57-8.96,7.83-20.15,12.85-31.6,15.89-1.46,1.58,6.05,5.44,7.32,6.16,8.83,5.09,17.2,7.86,26.43,11.57,1.51.61,2.7-.59,2.19,2.25-9.9-.58-20.96-5.05-29.61-9.83-5.79-3.2-7.61-4.53-10.3-10.67.08-1.52,13.73-5.71,16.17-6.78,3.66-1.61,17.3-9.57,19.34-9.7,5.26-.33,24.7,11.84,32.37,11Z"/>
  <path class="cls-1" d="M186.05,213c1.97,1.84-9.23,6.72-10.31,7.17-8.95,3.7-18.52,4.46-27.22,8.79.37,6.37,13.27,35.96,19.03,36.02,2.08.02,23.97-9.72,27.47-11.5,1.36-.69,8-4.02,7.99-4.98-7.48-6.76-13.85-19.71-15.28-29.7-.13-.91-1.13-3.86.82-3.78s9.78,31.33,17.46,33.48c-4.95,6.25-12.17,9.65-19.44,12.52-3.13,1.24-15.72,5.7-18.17,5.77-2.6.07-6.03-4.64-8.3-5.78-.22.27,4.1,8.46,0,4.99-1.27-1.08-6.78-14.2-7.72-16.78-1.22-3.37-6.43-19.96-5.12-22.06,1.1-1.75,37.26-15.56,38.77-14.15Z"/>
  <path class="cls-1" d="M446.64,79.99c-1.72.29-1.06-2.4-.78-3.28,1.89-6.05,12.64-7.02,16.24-16.74,9.28-25.01-28.93-33.29-34.95-10-2.76,10.71,5.86,15.01,4.51,25.03-3.4.82-1.58-3.82-2.2-6.29-1.06-4.21-4.58-7.01-4.85-13.19-.35-7.92,4.74-15.93,11.82-19.25,23.76-11.14,40.14,19.5,19.71,34.74-3.38,2.52-9.07,2.59-9.51,8.98Z"/>
  <path class="cls-1" d="M146.11,270.01c3.22,3.24-6.29.88-7.19.69-9.3-1.97-18.36-5.3-27.22-8.69-1.86.4-2.86,10.06-3.59,12.43-1.78,5.75-4.37,12.2-7.94,17.04-1.02,1.39-3.05,4.82-4.98,4.51,2.31-5.63,6.14-10.3,8.47-16.01,2.61-6.41,3.99-13.22,5.59-19.91l36.86,9.94Z"/>
  <path class="cls-1" d="M444.66,84.01c-.29,1.19-.82,6.69-1.08,6.93-.48.43-2.62-.35-3.69.27s-.34,3.63-4.72,3.89c-6.52.39-4.64-6.67-8.25-10.6,4.15-7.35,11.48-.06,17.74-.49Z"/>
  <path class="cls-1" d="M441.65,59c1.21-1.03-.55-6.61,4-5v7.01c.49.66,4.77-5.36,5.99-3.99,2.16,2.41-4.36,5.67-4.97,6.77-.87,1.59-5.34,15.24-4.87,16.06.41.72,3.62.59,2.85,3.16-4.67-1.47-10.08-2.36-13.97-5.5,2.69-2.27,7.83,2.78,9.75.27.49-.63,5.21-14.34,5.06-15.12-.14-.71-1.67-2.35-2.32-2.41-5.9,1.28-2.41,8.94-6.5,11.76-.72-3.22,1.18-6.54,1.06-9.49s-4.41-7.57-.06-8.03c.8.64,1.96,6.22,3.97,4.51Z"/>
  <path class="cls-1" d="M141.86,301.74c-.45.37-9.71,4.85-10.45,5.03-1.11.28-5.46,1.08-5.25-.76,3.27.16,2.19-4.52,3.54-6.95,2.48-4.47,6.25.43,9.98.7,2.07-.38,6.02-20.06,7.13-23.56.41-1.29.7-2.92,2.29-3.2-.76,5.15-4.04,26.14-7.24,28.74ZM137.12,300.01c-5.74-1.94-5.81.24-7.98,4.98,1.47.03,9.78-3.13,7.98-4.98Z"/>
  <path class="cls-1" d="M106.18,532.99l4.98-2.99c.24,2.37-2.12,3.59-3.66,4.83-6.02,4.83-14.91,10.02-22.29,12.17l27.46-23.99c2.19,2.71-7.27,9.3-6.49,9.99Z"/>
  <path class="cls-1" d="M120.15,272.01c2.18,1.94-2.56,1.68-1.99,2.98,5.58,1.51,10.92,3.45,16.52,5.01,1.59.44,2.96-1.08,2.44,2-3.87,1.15-6.84-1.93-9.68-2.6-3.22-.76-11.03-.61-13.3-1.88-2.62-1.46,5.3-6.14,6-5.51Z"/>
  <path class="cls-1" d="M125.14,307.01c1.45,1.45-.42,2.29-2.3,1.8-5.52-1.43-15.31-5.03-20.64-7.33-2.31-1-5.71-2.19-7.01-4.47,4.23,2.01,28.24,8.29,29.95,10Z"/>
  <path class="cls-1" d="M159.1,235.99c-.54-2.86.78-1.61,2.18-2.26,7.28-3.39,15.56-4.22,21.77-9.73.39,1.8-.95,2.42-1.97,3.52-3.9,4.22-16.13,5.95-21.98,8.48Z"/>
  <path class="cls-1" d="M164.09,240.99c5.24-5.18,13.65-6.41,19.96-9.99.41,2.24-1.44,2.69-2.94,3.55-4.52,2.6-11.92,4.78-17.02,6.44Z"/>
  <path class="cls-1" d="M78.21,532c7.67-.57-1.61,7.5-2.83,1.36-.6-2.98,7.15-8.99,9.82-10.35,1.94,2.11-8.08,5.93-6.98,9Z"/>
  <path class="cls-1" d="M67.24,530c-1.37-1.3,3.34-3.82,4.1-4.38,3.16-2.37,6.65-4.34,9.86-6.62,1.81,1.94-13.3,11.62-13.96,11Z"/>
  <g>
    <path class="cls-1" d="M318.05,55.79c1.73,1.02,12.69-.97,16.32-.82,17.48.74,32.21,10.66,39.41,26.52,3.04,6.7,3.18,16.32,7.5,21.49,3.16,3.79,9.72,1.6,12.52,10.46,1.11,3.52,1.6,11.47.92,15.04-.7,3.71-6.24,4.94-5.99,8.93,1.47,3.37,10.6,24.59,12.16,25.48.87.49,3.14-.73,4.89-.47,23.3,3.46,46.66,19.95,60.26,38.67,2.39,3.29,8.66,17.9,9.56,18.43,1.82,1.07,8.47,1.11,11,1.47l-4.99-2.98c8.78-.73,36.26,7.93,38.72,16.71.84,2.98.49,14.11.2,17.76-1.45,18.55-6.97,46.21-11.45,64.53-.4,1.62-.67,5.5-2.5,5.98.14-3.78-2.23-5.38-2.04-9.44.16-3.5,2.18-7.72,2.76-11.32,3.69-22.67,8.34-45.5,7.1-68.57-1.4-4.08-32.11-10.59-37.78-12.66,2,13.57,10.53,28.8,10.98,42.52.16,4.9-1.97,10.47-1.74,14.21s4.74,4.25-4.25,6.77c.83.98,2.21,1.24,3.01,2.26,6.09,7.78,8.11,20.15,12.54,28.17,1.22,2.21,4.59,4.57,6.44,7.55,3.7,5.95,11.08,18.23,10.82,25.08-.1,2.52-2.88,4.72-2.66,6.8.13,1.26,2.1,3.32,2.74,5.21,5.66,16.78,9.26,29.4-5.46,42.41-2.7,2.38-11.47,7.03-12.57,8.49-1.31,1.75.78,9.64-5.38,15.53-1.14,1.09-5.52,3.14-5.55,3.58-.1,1.48,3.44,6.25,3.99,8.99,2.6,12.86,3.16,28.47,5.19,41.8,3.09,20.32,7.57,40.82,9.73,61.25.46,4.32,1.8,15.26,1.09,18.86-.88,4.52-8.38,6.05-10.47,2.53-1.33-2.23-.86-16.16-2.5-20-1.75,0-1.1,4.38-1.02,5.53.22,3.2,1.3,6.1,1.82,9.2.36,2.12-.6,1.18-1.78,1.27-8.66-41-11.01-83.09-19.98-124.01l-29.95,8.01c.67,8.69,5.52,16.33,9.97,23.46-2.33,5.54-29.69,14.17-35.83,14.02-8.27-.19-14.09-20.51-14.06-27.49-.66-.69-9.33,1.34-9.84,2.15-1.01,1.58,3.3,32.61,4.01,37.2.61,3.97,4.58,29.76,5.87,30.64s6.11-1.1,5.62-3.57c-3.9-20.95-7.54-42.12-8.65-63.41,2.24.77,2.23,3.87,2.68,5.8,4.26,18.34,4.72,39.08,8.39,57.71.03,7.91-10.51,8.2-14.25,2.09-2.47-21.33-5.52-42.51-9.27-63.64-.89-1.33-1.42-.77-2.56-.56-4.18.77-9.46,3.61-14.05,4.2l-15.95,126.81c-3.06,5.58.06,10.23-8.42,10.66-1.85.09-3.25-.32-4.85-1.2-4.19-2.33-1.39-4.14-1.53-7.37-1.48-36.07,8.3-72.18,11.88-108.01.67-6.73-.14-14.14,1.9-20.91-.29-1.21-13.26-3.74-16.14-4.8-4.05-1.49-7.74-4.08-11.7-5.77-.69,10.81-1.22,21.68-2.02,32.49-.3,4.12-1.8,8.8-2.03,12.97-.77,14.09.65,28.89.06,43.06-.88,4.53-10.18,2.83-11.02,6.99-1,4.95,2.06,6.76,2.79,10.23,1.29,6.16,3.11,18.68,3.23,24.79.05,2.46-.78,14.02-1.49,15.49-.95,1.97-12.45,8.56-15.13,9.84-18.82,9.02-47.83,16.05-68.62,14.01-13.86-1.35-24.78-7.89-18.47-23.24,6.95-16.91,36-24.2,48.76-41.16,1.49-1.98,5.21-6.19,1.63-7.58-5.77-2.24-14.5-1.82-19.8-4.9-2.71-1.58-1.97-21.38-1.81-25.53,1.05-26.47.8-54.83,4.14-80.86.37-2.91,1.95-5.59,1.89-8.6-2.44-.36-3.43,2.54-4.19,4.3-8.37,19.36-15.32,51.26-20.48,72.49-.76,3.12-2.93,18.22-3.45,19.03-1.11,1.71-9.51,1.06-11.81,1.18,2.6,7.06,5.09,43.75,2.51,48.01-.31.5-8.97,5.27-10.25,5.73-14.67,5.28-58.96,8.57-74.36,5.98-12.84-2.16-20.95-6.88-14.96-21.43,4.48-10.89,34.64-20.87,45.79-30.64,2.34-2.05,4.18-8.16,8.33-5.64-1.05-1.97,1.29-9.55.99-9.95-1.01-1.33-15.76-5.59-16.82-8.72-.7-2.07.83-8.76,1.33-11.37,5.11-26.81,20.99-98.5,35.77-118.06,3.12-4.12,6.43-7.51,10.7-10.44l-28.44-33.49-.5-13.95,12.53-4.97,53.35-5.06c2.89,2.5-8.85,4.57-9.75,4.72-14.88,2.51-31.31,1.81-45.55,4.38-9.29,1.68-3.88,6.19.42,11.36,8.23,9.91,18.96,21.75,27.9,31.05,4.74,4.93,12.62,13.83,19.62,14.43,42.65-8.23,84.92-18.15,128.18-22.95-9.69,8.24-24.24,7.84-36.19,10.24-20.63,4.16-41.5,8.69-62.22,11.63-15.39,2.18-32.92,7.55-45.61-3.86-13.52-14.07-26.37-29.44-39.69-44.02l.94,6.29c11.94,11.84,23.7,24.17,35.02,36.46,2.83,3.07,6.18,8.94,9.97,11.71,9.42,6.87,20.99.42,31.39-1.6,20.13-3.9,40.73-6.1,60.9-9.95,14.99-2.86,29.69-7.5,44.81-10.11,2.3-.78,2.08-5.18,1.66-7.29-.97-4.89-23.35-20.17-28.43-24.56-1.05-.91-3.31-4.74-3.59-4.85-2.1-.84-7.66,6.76-9.96,8.33-6.06,4.14-9.55,3.46-6.93-4.43-2.24.31-4.61,4.01-6.48,4.03-4.01.05-3.24-5.75-3.51-6.04s-8.03,2.33-6.52-1.98c1.35-3.87,6.45-6.72-2.47-3.46-3.65-1.72-.02-5.91-1.94-7.1-6.24-3.85-18.1,2.79-23.03.05-1.52-.85-.55-2.07.65-2.38,2.79-.73,6.43.28,9.62-.36,2.79-.56,4.86-3.3,6.24-3.76,2.68-.9-.06,4.77,4.47,2.99,1.4-7.57,6.23-18.52.05-25.28-.84-.92-14.44-8.35-15.02-7.73.38,4.08-1.65,7.78-2.99,11.52,10.99-1.39,1.12,3.07-2.53,6.46-1.21,1.13-3.05,2.78-3.9,4.09-6.84,10.47,10.58-.74,12.08-.85l9.31,2.27c-2.36,3.48-7.12.33-9.36.75-1.06.2-2.48,2.28-3.9,2.98-1.79.9-5.08,1.64-6.2,2.79-1.59,1.63-3.32,10.12-5.31,13.68-.82,1.47-6.81,9.28-7.68,9.29-3.96-2.24-1.65-13.79-2.61-14.87-.54-.61-7.17-1.72-9.75-6.73-1.67-3.26-.77-15.78.63-19.12.94-2.24,3.89-3.58,4.7-5.3.75-1.59.42-3.51,1.01-4.98,3.12-7.71,13.63-4.47,15.96-8.01,1.56-2.37,4.37-16.91,5.81-21.18.64-1.9,4.4-12.57,5.39-12.82,2.75-.69,8.96.16,9.35,3.54-.6,4.78-9.68,32.27-7.87,34.35.28.33,7.23,3.52,7.86,3.7,1.57.46,3-.24,4.09.02,9.95,2.4,16.92,5.3,25.85-2.08,2.88-2.38,9.07-10.74,9.86-14.2.49-2.18-2.35-1.21-2.76-2.86-.09-.38.93-6.45,1.16-7.68,2.77-14.71,11.2-34.6,21.69-45.28-13.8-.77-25.02-9.26-32.93-20.01-1.72-2.33-8.25-14.6-8.99-15.06-.94-.58-4.66.85-7.25.37-7-1.28-10.31-9.54-12.48-15.32.54-2.58,8.39-5.11,8.69-5.53.8-1.14-.67-3.87-1.98-4.49-2.25-1.07-20.97,6.41-25.69,7.29-21.16,3.95-27.77-2.02-9.15-16.16,7.78-5.91,16.7-10.35,25.46-14.56-5.77-22.17-1.83-45.45,18.86-58.05,2.35-1.43,10.96-4.67,11.32-5.18.52-.73.31-3.39,1.3-5.19,1.78-3.24,6.79-4.51,10.19-3.43,2.2.7,2.23,3.22,2.88,3.61ZM363.44,73.34c-2.41-2.79-10.55-9.01-13.94-10.54-6.92-3.11-22.69-3.85-30.05-2.7-15.19,2.38-26.63,13-38.56,21.63-3.31,11.01-5.4,19.07-4.97,30.75.17,4.52,2.79,8.49.09,13.03-8.55,6.7-20.5,11.41-28.53,18.51-1.2,1.06-7.24,6.3-5.52,7.97,11.17-.57,21.58-6.87,32.95-6l-1.01-1.98c1.37-.06,2.63.71,4.02.37,3.79-.91,12.31-5.38,16.62-7.22,18.53-7.89,36.29-17.13,54.24-26.18.17-1.94-1.98-.77-2.99-.5-5.46,1.45-11.18,4.48-16.77,6.21-12.47,3.89-35.09,10.78-47.67,9.33-1.49-.17-3.08-.2-3.46-2.02,22.76-2.28,44.82-9.22,66.09-17.32,6.74-2.57,16.04-5.48,22.11-8.86,2.48-1.38,6.94-3.61,6.74-6.27-.28-3.57-6.95-15.38-9.4-18.22ZM374.75,97c-1.61-1.2-11.22,10.27-13.33,11.63-22.55,14.54-48.41,26-72.31,36.1-.94.4-2.19.24-3.22.28,1.27.93,1.89,4.72,2.09,4.89.51.46,10.26-1.64,13.19-.92,1.27.31,1.46,4.15,4.03,3.89,1.97-.2,5.71-4.71,9.65-2.88-4.91-5.44,1.45-8.74,6.31-11.17,2.88-1.44,13.45-5.36,16.15-5.38,3.22-.02,5.64,3.52,5.99,3.53.42,0,4.85-4.97,6.02-5.94,6.55-5.48,17.42-12.33,22.87-18.1.43-.45,5.35-7.18,5.46-7.63.53-2.12-3.24-5.62-2.91-8.29ZM428.68,260.5c.52,4.4,0,10.36,0,15,0,1.06,3.42,2.09,3.99,1.5.35-.37-.69-2.71.55-3.07,4.53-1.3,17.47,1.55,22.93,2.06,8.82.81,17.73.46,26.44,3.01.19-6.78-.28-13.65-1.12-20.37-4.92-39.48-17.75-62.71-52.49-82.43-8.04-4.56-17.72-9.92-26.76-11.2l.5,2c-2.95,2.06-9.56-9.51-10.71-11.78-1.71-3.37-5.6-17.56-6.41-18.08-1.01-.64-3.49.07-4.85-.15-.49-2.33.28-1.6,1.28-2.24,2.15-1.36,4.18-1.35,6.17-3.79,9.51-11.71-4.79-31.19-11.65-18.67-2.11,3.86-1.76,16.32-5.28,6.71l-22.49,20.48-2.98.51.99-2.99c-.78.71-2.89.88-2.99,1-1,1.13,8.62,12.59-2.29,19.2-5.18,3.14-14.83,5.28-20.18,1.8-4.13-2.69-4.18-9.13-11.05-5.04,1.06,3.69,5.81,24.42,7.51,25.61,2.96,2.08,9.43-5.07,13.02-4.57.94.89-8.89,13.86-15.55,9.07-3.06-2.2-6.2-21.35-6.97-26.07-.19-1.17.15-1.96.56-2.99-6.47-1.77.08,7.94-1.45,10.99-1.22,2.43-8.24,4.32-8.54,5.52,10.4,18.59,31.43,39.13,54.16,28.22,7.91-3.8,15.56-12.46,20.23-19.73,2.41,8.36-5.92,11.38-8.49,17.99l2-1.99h.97c.84,5.32,12.42-.91,15.66-2.83,12.29-7.28,10.83-13.13,17.86-22.11,2.75-3.51,4.94-2.04,4.24,2.19-1.55,9.34-18.48,27.3-27.71,29.3-7.56,1.64-10.61-.58-17.03-3.55-1.89,2.09,12.09,30.92,9.78,38.3-.48,1.53-2.83,2.33-2.67,4.03,11.66,22.74,22.22,46.51,36.45,67.54,14.94-2.98,22.41-15.53,24.34-29.86-1-.38-4.6-.78-4.89-1.12-.98-1.16.26-11.67-.29-14.16-.69-3.18-6.19-7.71-4.32-11.72l3.49,4.99-.98-10.99c4.11.45,6.61,11.32,6.98,14.49ZM339.78,136.03l-23.93,7.99c3.98,13.55,9.89,17.44,23.19,10.71,9.71-4.91,2.19-10.89.74-18.7ZM297.64,151.15c-1.63.17-16.81,6.04-17.31,6.82.19,3.95,5.08,11.5,9.16,12,2.55.31,13.82-3.18,14.95-4.97s-2.73-14.28-6.79-13.86ZM356.8,213.01c2.59-16.43-5.64-6.72-15-5.49,3.03,7.41,3.66,15.55,7.02,22.78.29.62,1.71.72,1.77.87.3.73-.99,6.84,2.4,9.64.21.17,1.13-.69,1.56-.49.37.18-.32,1.83,2.69,1.81,11.25-.09,7.33-11.02,4.84-17.89-.62-1.72-2.43-4.6-3.25-7.78-.32-1.22-.02-2.68-.04-3.96l-2,.51ZM338.81,212c-1.47-1.71-1.79.69-2.22,1.31-8.8,12.62-11.62,31.31-16.75,45.68,7.36,2.21,15.09,3.36,21.96,7.01,2.37-4.32-1.08-11.12,3-14,3.47,14.71.03,29.32-1.56,44.05,3.64,3.25,4.48-1.14,5.84-.95l35.67,10.88c-12.35-17.85-20.01-38.64-27.51-58.94-10.01-4.72-13.02-12.69-16.14-22.83-.65-2.1-1.88-11.75-2.29-12.22ZM516.55,240.5v19.5l2.04-12.45-.06-13.54-1.99,6.49ZM275.92,241.01c-1.47.28-5.11-1.6-5.95-.99-.25.18-2.19,5.64-2.01,5.9.2.28,5.22,2.61,5.95,2.08l2.01-6.99ZM367.05,248.81c-.21-.51.75-1.75.26-2.77-1.87-3.91-6.98-1.1-6.22,3.29,7.82,19.17,17.17,37.57,26.62,55.95,3.37,3.58,8.6,2.62,13.01,3.71-.14-2.67-2.94-3.15-4.81-5.67-9.71-13.05-22.95-40.21-28.86-54.51ZM253.96,299c2.01-1.37,4.67-3.55,5.72-5.76,2.7-5.73,4.49-17.59,6.54-24.45.64-2.13,4.72-12.05,4.26-12.83-.43-.73-2.3-1.33-3.14-1.89l-13.39,44.93ZM341.72,270.09l-21.87-6.09c-3.27,16.26-17.13,26.16-33.95,21.02,3.14,3.95,3.41,8.64,3.03,13.53-.42,5.52-8.34,16.82.45,10.44,7.28-5.28,11.06-12.39,20.93-16.03,3.89-1.43,11.91-2.05,15.88-1.61,2.36.26,10.33,3.6,11.52,2.54,1.21-3.23,5.13-22.48,4.01-23.79ZM255.94,276.01c-14.05-.7-14.78,10.88-11.26,21.77,1.16,3.59,5.42,12.54,6.32,4.77.6-5.22-1.76-10.31-1.04-15.55.27-.35,2.39,1.44,2.97,1.01.67-.49,2.54-10.2,3-12ZM477.61,284c-15.21-.62-30.7-1.14-45.48-4.78-1.47.27-2.44,11.38-3.4,14.33-9.93,30.59-59.09,17.3-78.44,3.54-3.29,0-9.43,28.37-10.47,32.89,29.35,11.44,67.97,35.88,99.72,19.39,24.95-12.96,35.52-38.51,38.07-65.37ZM245.95,309c-2.43-6.68-5.39-12.85-6.48-19.99-4.19,5.9.46,17.23,6.48,19.99ZM344.81,299.01c-6.99-.53-13.63-3.07-20.59-3.88-2.27-.26-8.64-1.12-10.35-.71-7.39,1.77-22.57,15.03-24.96,22.58,1.49,1.62,15.76-15.26,19.96-12.98-3.37,5.39-13.87,14.11-15.96,19.51-.5,1.28.19,1.85,1.48,1.48,5.29-5.46,11.1-12.41,18.48-14.99,1.36,1.3-14.58,16.12-12.97,19.99l16.48-14.99c2.52-.35,1.55,1.64.94,2.95-2.06,4.39-7.69,9.02-9.44,14.03,2.88,2.28,12.04-11.08,14.48-11.99.71-.26.51,1.76,1.5,2.44,3.85,2.63,9.61.07,13.93.51.61-8.49,3.83-16.26,7.03-23.95ZM492.58,312l-7.97-16.99v18.99c3.28-.43,4.24-3.78,7.97-2ZM479.31,318.7c2.75-3.69.22-16.66,1.29-21.7l-3.34,9.93c-.72,4.84-2.91,10.24-5.63,14.57,1.33,1.16,7.07-1.98,7.68-2.8ZM237.96,303c-2.83-3.24-1.69,4.25.55,6.96,1.04,1.26,6.62,4.94,7.44,4.04,1.99-2.19-5.39-5.44-7.03-7.49-.99-1.23-.85-3.37-.97-3.51ZM256.94,307.01c-8.33-.96-12.49,10.71-2,10l2-10ZM497.99,322.61c-1.63-1.81-2.05-5.42-6.17-6.44s-11.63,7.79-15.3,10.24c-2.35,1.57-7.24,2.75-9.5,4.58-.96.78-4.99,7.03-6.86,9.04-7.58,8.09-17.44,13.81-28.48,15.98l7.35,13.13c2.31,2.53,5.24,8.62,8.59,9.45,1.52.38,3.01-.8,3.82-.42.27.12.16,2.28,2.81,2.52,4.65.42,4.15-2.54,4.4-2.68.67-.37,1.55,1.68,2.45,1.69.54,0,1.41-1.18,2.29-1.38,5.66-1.25,22.04-6.31,25.55-10.23.88-.98.69-1.91.66-3.09l1.48,1.99c10.76-7.91,26.18-16.6,15.34-31.38-.8-1.09-2.61-1.61-2.68-1.75-.2-.4.92-1.89.64-3.11-.72-3.2-4.41-5.95-6.39-8.14ZM252.86,319.11l-4.9-2.11,1.51,6.99c1.84.41,4.02-4.02,3.39-4.88ZM336.82,325.99c-.39-.42-7.28,1.81-8.98,1.02,1.44,2.53,4.98,3.24,7.51,4.97,15.56,10.61,30.06,23.08,48.01,27.91,2.89.78,27.2,5.96,28.35,5.1-1.98-2.4-1.86-4.98-2.02-8-2.79.62-6.58-.09-9.42-.56-16.8-2.78-33.09-7.11-48.39-16.01-1.93-1.12-13.45-8.89-14.13-9.85-1.22-1.73-.77-4.41-.93-4.58ZM349.99,432.28c.51-.19,8.42.54,10.92.09,15.59-2.82,31.82-5.91,46.81-9.86,2.7-.71,19.38-5.07,20-5.91.68-.91,1.36-1.35.49-2.53l-9.88-21.03c-.17-2.84-1.23-7.33-2.1-10.05s-4.27-13.9-5.52-14.55c-1.73-.88-4.27,1.9-7.39,1.57-4.3-.45-16.08-4.6-20.78-6.28-9.83-3.52-17.8-8.43-26.73-13.71,5.99,12.84-.18,16.65-11.76,19.73-23.15,6.16-47.09,4.17-68.43,16.47-20.87,12.03-23.42,42.8-25.66,64.3-1.32,12.68-2.63,27.28-3.04,39.95-.5,15.22.8,30.36,1.03,45.54l-3.97-4c-1.55,8.47,2.99,9.06,9.92,10.55,17.41,3.74,33.41-.91,50.4.45l13.15-3.97c-.41-11.07-2.66-21.49-2.59-32.6.09-13.1,1.11-31.95,3.08-44.85.59-3.88,4.98-24.58,7.42-25.57,2.62-1.06,2.39,1.56,2.71,1.73,1.97,1.05,8.04-1.93,10.43-2.37,6.23-1.13,6.02-1.03,11.5-3.09ZM423.69,357.01c-.78.02-10.69-.84-7.98,1.98,1.16,1.2,8.88,2.16,7.98-1.98ZM434.94,384.81c-.22-.63.89-1.96.51-3.03-2-5.74-5.38-12.28-5.38-18.14,0-.7,1.24-1.57,1.24-2.15,0-.63-3.34-6.1-4.63-3.98,1.84,5.73-5.77,6.38-9.98,6.49,3.91,10.45,6.69,21.48,10.48,31.99,1.91,5.3,4.52,14.01,7.26,18.76,4.66,8.07,14.3,5.7,21.7,5.25,1.46-.09,3,.93,4.76.79,9.79-.82,37.65-16.32,45.88-22.83,15.39-12.17,5.84-24.88,1.76-39.96-2.44,1.01-4.72,6.66-6.17,7.8-9.1,7.16-24.31,15.08-36.76,18.52-9.74,2.69-20.86.94-27.94-6.32,3,12.52,10.74,30.55,24.93,32.55,1.3.18,3.8-.67,3.94-.53.11.11,1.2,2.88,1.07,2.97-.38.28-8.94,1.07-9.41,1.02-.68-.07-.49-1.99-1.15-2.03-.73-.05-1.96.94-2.96.87-7.29-.55-15.11-20.64-17.55-27.04-.28-.74-1.57-.87-1.62-.99ZM244.73,388.78c-.35.18-5.47-.66-7.22-.49-12.93,1.26-16.37,3.03-27.51-5.77-1.93-1.52-9.93-10.24-10.65-10.43-6.22-1.6-13.22,15.12-15.06,19.65-12.53,30.78-18.05,63.33-25.45,95.51-.26,1.14-1.52,5.31-2.74,5.75-.55-2.39.51-4.65.7-6.79.1-1.1,1.18-3.4-.7-3.2-.73,5.99-5.01,16.12-4.8,21.74.12,3.04,12.71,7.68,15.81,8.71,10.65,3.55,19.67,3.95,30.34,5.61,5.18.81,10.78,4.01,16.43,2.8,3.08-21.04,9.31-41.58,15.6-61.92,4.45-14.38,7.74-26.68,17-38.9,7.19-9.49,6-20.53,14.55-29.46,1.2-1.26,7.75-5.63,7.91-6.1,1.54-4.64-2.58-1.25-3.47-1.01-7.36,2-13.94.78-20.75,4.28ZM439.7,437.97c.96.84,21.87-4.59,24.94-5.46,10.9-3.08,26.32-5.67,26.94-19.51-3.65,1.61-7.48,3.9-11.19,5.29-10.17,3.79-19.92,6.29-30.2,5.76-4.81-.25-8.33-.08-12.91-2.16-2.51-1.14-4.61-4.2-7.03-3.95-.59.06-.64,1.57-1.31,2.02-20.75,13.72-71.29,18-97.72,22.94-3.1.58-7.16-1.09-6.16,4.49.29,1.6,4.16,3.88,5.77,3.6-.65-.74-3.77-4.98-.52-3.98,4.24,1.3,10.53,6.88,16.49,8.48,12.73,3.43,16.26,1.19,27.75-1.2,3.41-.71,25.2-4.38,26.06-5.4.82-.96-.61-7.86.2-8.8,1.11-1.28,29.17-8.76,32.51-8.93,8.3-.43,4.82,5.45,6.37,6.8ZM484.59,431c-3.44,1.08-11.9.84-10.97,5.99l2.98-1.99,22.46,126.97c6.23-1.92,5.04-5.56,3.41-11.19-7.71-26.64-8.73-58.75-13-87.17-1.63-10.84-4.38-21.71-4.88-32.62ZM436.66,433l-33.91,9.03c.18,7.36,5.01,33.56,11.98,36.51,2.03.86,33.45-10.99,33.93-13.06-.93-2.82-3.61-4.12-5.21-6.77-4.55-7.55-5.27-17.22-6.79-25.71ZM355.48,464.23c1.42,2.38-3.18,28.15-3.67,33.28-1.7,17.57-2.14,35.48-4.01,52.98-1.37,12.78-5.36,27.67-5.99,40.05-.12,2.33-.49,5.29,2.53,5.53,7.3.59,5.81-15.7,6.48-20.56,3.14-22.91,6.78-45.73,8.08-68.9l8.72-44.14c-.36-2.14-12.6-2.42-13.81.05-.84,1.71,1.48,1.39,1.67,1.71ZM202.92,526.1c-1.1-1.31-29.41-2.64-33.32-7.1-1.44.29-2.99,7.94-2.6,9.4.93,3.52,32.61,7.01,35.58,2.67.58-.84.82-4.39.34-4.96ZM188.86,569.82c1.25-1.1,1.29-14.01,9.22-19.27,6.11-4.06,10.13-1.26,7.94-13.04-.91-4.91-10.4-.46-14.48-.42-5.4.05-15.83-1.26-20.69-3.35-1.75-.75-4.89-3.84-6.12-3.63-.59.1-8.63,7.57-8.64,8.39,1.91-.41,14.35,9.29,8.5,9.49-1.78.06-11.57-9.71-14.48-5.97-1.78,2.28,11.04,6.34,8.97,10.99-1.8,1.96-13.83-13.14-16.97-4.01,4.33,1,9.01,3.99,8.98,9.01-7.07-2.3-10.54-12.34-17.95-4.5,0,.74,9,8.5,10.4,10.56,2.45,3.6,2.44,7.75,5.2,10.86,5.96-2.04,37.37-2.69,40.11-5.11ZM305.87,547c-12.63,1.67-25.15,2.58-37.95,2-2.28,10.71,10.5,7.48,17.53,7.95,2.27.15,3.1,1.87,5.45,1.68,1.43-.12,14.42-4.1,14.83-4.76.74-1.16-.18-5.12.14-6.87ZM206.89,572.86c.84-1.3-.49-17.33-.81-20.41-.11-1.03-.42-3.37-1.54-3.43-4.72-.24-11.91,14.08-12.47,18.51-.21,1.67-.1,1.58,1.49,1.49,3.69-.2,7.34-3.04,11.48-2.01-.27,1.58-1.91,1.89-3.19,2.3-16.94,5.37-65.41,11.48-81.94,7.46-2.04-.5-6.94-4.83-6.75-1.25.35,6.69,2.92,4.12,6.35,4.85,26.15,5.59,45.7-4.3,70.16-5.41,3.18-.14,2.15,1.85,3.07,2.06,4.09.95,10.03-3.37,14.16-4.15ZM128.9,555.15c-2.87.3-10.54,5.39-12.28,7.81-.99,1.38-3.63,6.99-3.01,8.07,2.42,4.16,24.96,6.51,28.54,4.5,1.53-.86.46-1.37.24-2.27-1.19-4.87-7.87-18.71-13.49-18.12ZM310.83,569.95c.5-.56-2.23-12.74-1.97-14.95-10.15,7.24-28.43,9.72-39.94,4.52-2.53-1.14-3.57-3.52-5.96-3.51l-5,9.99c2.89-1.31,17.05,5.79,13.97,9-.78.81-17.95-11.97-19.96-3.51.49,1.99,13.71,3.83,11.97,9.51-1.26,1.34-18.29-13.14-18.96-3.01,4.57,1.21,12.08,3.16,11.97,9.01-.74.8-11.25-8.95-18.68-6.21-9.6,3.54.27,5.97,4.19,9.24,5.94,4.95,10.78,10.94,11.55,18.94,1.36,1.19,19.6-7.2,22.96-8.42,2.99-1.08,14.63-3.65,15.96-5.01,2.95-3.01,1.37-16.49,11.07-22.91,1.71-1.13,6.59-2.39,6.84-2.67ZM310.86,572c-8.39,2.88-13.55,13.5-13.97,21.99l14.87-5.09-.9-16.9ZM247.96,610c.55-7.18-10.34-23.1-17.48-23.1-3.94,0-20.85,13.34-12.81,18.95.87.61,9.29,4.16,9.82,4.16h20.47ZM312.86,592.01c-27.12,10.32-54.16,24.11-84.25,20.86-2.21-.24-5.21-.93-7.33-1.66-1.31-.44-8.12-6.13-6.29-.72.27.8,13.76,6.16,15.56,6.44,22.41,3.44,42.4-7.04,62.36-14.42,6.87-2.54,17.92-1.94,19.95-10.51Z"/>
    <path class="cls-1" d="M432.51,575.14c4.5,7.35,12.5,13.14,19.83,17.66,1.83,1.13,8.98,3.82,9.26,4.24,2.17,3.26-5.43,5.44-5.8,6.1-.21.38,1.49,2.62-.12,3.36-10.29,2.74-28.06,12.74-38.39,11.43-10.85-1.37-27.93-18.63-28.56-29.91l43.77-12.87ZM458.64,598.01c-.25-.24-4.82-.87-6.67-1.83-8.78-4.55-14.62-12.69-21.93-19.08-11.5,7.05-25.08,10.17-38.3,11.9-2.7,2.53,11.75,17.42,14.08,19.39,1.73,1.46,11,8.08,12.38,8.21,3.3.3,34.92-13.62,39.15-16.36.76-.49,2.83-.72,1.29-2.23Z"/>
    <g>
      <path class="cls-1" d="M212.01,357.99c-2.29,2.34-13.12-9.02-14.42-11.05-1.02-1.58-1.84-2.95-1.55-4.94,3.82-3.58,18.45,13.45,15.97,15.99Z"/>
      <path class="cls-1" d="M219.99,340.99c-.06.09-1.94-.16-2.04.52-.52,3.46,6.69,10.85,11.03,8.5.28,2.28-5.08-.45-3.98,2.47.99,2.63,5.53,5.81,6.98,8.02.89,1.35.88,2.4-.49,2.47l-4.02-1.96c-1.62-1.68,1.96-.55,1.51-1.5-.69-1.44-2.92-1.05-3.7-1.79-.74-.7-1.02-3.79-2.23-5.02-1-1.03-2.63-.69-3.95-2.29-1.94-2.35-3.74-8.07-1.1-10.4-1.52-.62-5.3,1.4-5.99.98-.13-.08.68-1.37.36-1.98-1.19-2.26-3.42-3.18-2.35-7.01,2.3.7,1.75,3.61,3.42,5.06.76.66,7.52,2.58,6.54,3.92Z"/>
      <path class="cls-1" d="M277.91,353.99c-1.38,1.43-5.57-6.21-6.96-6.52-3.22-5.31-9-9.53-11-15.47,1.83,1.82,18.95,20.97,17.96,21.99Z"/>
      <path class="cls-1" d="M284.9,349.99c-4.43.25-2.83-5.69-3.88-7.51-1.46-2.52-6.74-5.33-8.09-8.47,1.87-.44,2.38,1.04,3.5,1.99,4.65,3.93,8.95,7.6,8.48,14Z"/>
      <path class="cls-1" d="M233.98,324.01c.2,1.45-2.71,1.53-3.77,1.71-5,.85-10.27.74-15.19,2.28-.48-2.88.63-1.65,2.31-2.13,5.39-1.54,11.05-2.19,16.65-1.86Z"/>
      <path class="cls-1" d="M276.91,357.01c-.12,1.37-3.68,2.51-4.73,2.75-3.59.82-8.48.99-12.23,1.23l16.96-3.98Z"/>
      <polygon class="cls-1" points="222.25 333.75 232.74 344.23 231.73 345.25 221.24 334.77 222.25 333.75"/>
    </g>
    <path class="cls-1" d="M485.46,357.13c3.79,2.42-2.28,13.98-7.52,7.54-2.78-3.41.11-3.67.22-3.91.3-.68-.28-1.65.38-2.24,1.29-1.14,5.56-2.26,6.92-1.39Z"/>
    <path class="cls-1" d="M429.68,585.01l-8.68,5.83c-4.89-2.34-5.47,2.33-8.02,3.02-1.46.39-2.86-.59-3.8-.45-1.4.2-2.77,3.58-5.45,2.58,2.07-4.17,7.25-3.27,9.97-4.5,1.19-.53,1.95-2.54,3.02-3.03,1.48-.69,3.27,1.01,4.98.12,2.14-1.11,1.58-5.55,7.98-3.57Z"/>
    <path class="cls-1" d="M421.69,600.01c2.19-2.04,4.24,3.1,4.49,2.99,2.87-4.66,7.29-3.46,11.48-6-1.67,5.32-9.03,2.52-11.47,8.98-.47-.87-4.77-5.72-4.49-5.97Z"/>
    <path class="cls-1" d="M431.68,590.01c-2.89,4.05-10.16,6.46-14.97,6.98l14.97-6.98Z"/>
    <g>
      <path class="cls-1" d="M429.47,446.24c.66,1.14-.07,3.45.21,3.76.2.22,7.64-.76,4.99,1.99-3.61,3.75-7.31-2.02-8.5-4.98-1.83-.46-3.38,3.45-5.18,3.86-1.52.34-2.87-.93-3.71-.88-.64.03-2.21,5.22-3.57,1.51-1.29-3.49,1.34-1.74,1.99-2.11.93-.54,1.86-2.14,2.49-2.16.51-.02,2.47,2.49,3.49,1.77.26-.18,1.29-4.51,3.66-4.88.58-.09,3.93,1.77,4.14,2.12Z"/>
      <path class="cls-1" d="M426.69,452.01c-2.72,3.49-7.61,5.73-11.98,5.98l11.98-5.98Z"/>
    </g>
    <g>
      <path class="cls-1" d="M386.74,126.99c-1.26,1.67-1.82-.1-1.99-1.48-.92-7.54,1.82-10.08-6.99-6.52-.95-.84,2.93-6.58,6.99-4.52,3.41,1.73,1.57,9.15,1.99,12.52Z"/>
      <path class="cls-1" d="M331.84,190.99c2.26-2.78,6.53-3.88,9.34-6.13,1.52-1.22,1.93-3.16,3.63-3.85-.33,6.34-7.15,10.2-12.97,9.99Z"/>
      <path class="cls-1" d="M327.35,149.01c3.52-.96,5.86,5.39,2.97,5.99-1.92.4-6.58-5-2.97-5.99Z"/>
      <path class="cls-1" d="M293.13,165.75c-1.65-1.85-1.63-6.3,1.24-5.74,4.11.8,2.6,10.06-1.24,5.74Z"/>
    </g>
  </g>
</svg>