<?xml version="1.0" encoding="UTF-8"?>
<svg id="Layer_1" data-name="Layer 1" xmlns="http://www.w3.org/2000/svg" viewBox="0 0 656 656">
  <defs>
    <style>
      .cls-1 {
        stroke: #000;
        stroke-linecap: round;
        stroke-linejoin: round;
        stroke-width: .75px;
      }
    </style>
  </defs>
  <path class="cls-1" d="M524.54,118.99c-.3-2.04.79-2.58,2.53-2.95,9.11-1.93,25.58.63,35.95,0,2.24-.14,16.77-1.97,17.5-2.48,1.02-.71,1.83-7.28,1.97-9.03.82-10.37,1.11-32.82-.27-42.8-.14-.99-1.94-6.68-2.37-6.8-22.17.6-44.19-2.31-66.27.59-1.25.82-2.18,1.83-2.75,3.25-2.46,6.15-1.55,29.8-1.31,37.77.1,3.34,1.53,6.31,1.05,9.97-.18,1.37-.55,2.93-1.99,1.49-.62-.62-2.85-14.4-3-16.51-.54-7.54-.09-30.65,4.96-36,2.64-2.8,16.88-4.25,21.44-4.53,9.49-.57,22.48-.52,31.98.05,3.32.2,16,1.43,18.06,2.92,3.19,2.3,5.19,17.23,5.47,21.53.44,6.89-.64,35.84-4.98,40.11-1.59,1.56-9.84,2.9-12.67,3.31-14.56,2.13-30.98,3.37-45.31.11Z"/>
  <path class="cls-1" d="M554.49,81.5c.7-2.33,9.08-3.73,10.55-1.57.27.4,1.28,8.08,1.42,9.58.48,5.28-2.57,13.67,5.01,12.49-.14.82.21,2.71,0,2.98-1.22,1.5-33.83,1.37-38.48,1.06-1.53-.1-12.73-1.31-11.44-3.02,4.93-.57,2.04-4.13,1.95-7.48-.21-7.45-2.01-15.4,8.34-12.33,6.78,2.01-2.07,20.47,6.68,19.79,1.51-5.69-3.19-31.79,0-34.51,1.86-1.59,10.48-2.25,11.04.17l.96,33.34c.71-.14,3.99.2,3.99,0,0-4.29-.87-17.6,0-20.5ZM547.5,99.5c-.08-9.66,0-19.34,0-29,0-1.61-6.71-.74-6.98-.49-1.35,1.26,1.69,27.77.98,31.99,1.72-.1,3.73.31,5.38-.13,2.47-.65.62-2.15.62-2.38ZM563.48,81c-1.89.05-6.33-.68-6.87,1.58,1.32,2.54,1.24,18.69,1.89,19.42.17.2,3.38-1.73,4.98,0v-21ZM531.41,86.12c-.51-.57-5.02-1.77-5.72.53-.49,1.62.28,15.76.84,16.35.28.3,4.77-.2,6,0-1.32-2.73-.56-16.25-1.12-16.88Z"/>
  <path class="cls-1" d="M510.55,110c1.68,1.83-6.94,10.94-7.98,12.99.86.71,14.26-6.1,16.7-6.77,1.3-.36,3.75-1.11,3.26,1.27-7.64,5.12-17.01,8.85-25.95,10.51-1.67-1.6,8.78-14.27,10.46-16.01.65-.67,2.65-2.91,3.5-1.98Z"/>
  <g>
    <g>
      <path class="cls-1" d="M106.18,322c-.04.41.83,1.63.5,2.03-2.97,3.62-39,3.52-40.42,4.99-.53.55,1.97,11.44-.03,13.97,31.8,7.03,60.82,22.36,91.35,33.02,34.6,12.09,69.34,20.78,101.85,39,2.48.17,1.08-.14,1.04-1.03-.19-3.91-.86-7.91-.64-11.88-27.06-3.34-51.3-16.55-76.51-25.87-33.96-12.56-78.45-24.28-109.12-41.71-1.67-.95-5.52-2.2-4.97-4.52,2.05-1.67,43.3,17.12,49.13,19.28,45.86,17,93.27,30.17,138.28,49.5,1.46.63,2.26,2.18,3.79,2.71,5.93,2.06,31.2-6.54,39.22-8.23,44.12-9.3,88.97-15.74,133.23-24.56,8.6-1.71,17.21-3.77,25.75-5.72l-10.77-3.69c-17.5-.66-30.28-7.25-44.48-13.5-5.74-2.52-10.38-.39-16.17-2.76-4.58-1.87-9.97-10.35-10.45-2.04l-.99-1.99c-2.69-.11-3.62,3.54-6.98,3,1.37,3.6,8.05,1.76,6.98,6.99-2.01-.56-11.4-5.03-12.33-4.84s-2.05,1.99-3.39,2.6c-22.55,10.14-46.9,18.16-70.43,25.29-.89.27-.74,1.9-1.16,1.87-15.72-.97-35.95-14.9-50.26-16.75-3.94-.51-8.96,3.49-13.2,3.84l44.69,12.72,23.71,8.23c18.51-10.13,38.45-18.09,58.15-25.71,7.1-2.75,14.81-5.87,22.21-7.24-4.33,4.09-10.86,6.64-16.3,9.16-19.17,8.87-39.42,14.97-58.92,22.99-3.13,2.02.68,4.77-5.9,3.59-21.13-3.79-45.75-16.09-67.36-20.54-1.18-.45-4.22-2.9-3.28-4.2.59-.81,10.03-2.96,10.97-5-2.86-.98-16.69-4.66-17.96-6.03-1.53-1.65,3.94-3.34,4.82-3.65,17.66-6.21,38.1-9.57,56.08-15.35-.82-2.26-6.33-15.3-7.19-15.78-1.17-.65-4.56-.02-6.83-.67s-6.94-4.27-8.47-4.54c-.55-.1-.31,1.78-1.13,2-5.07,1.37-28.29-5.32-34.28-7.52-4.73-1.74-9-5.52-14-5.49-.62-2.71,1.38-2.3,3.43-1.93,8.13,1.45,17.51,6.97,26.13,7.83,5.21.52,9.33-.9,14.37-.89,1.13-.97-11.07-18.02-3.85-28.35,1.13-1.62,3.88-2.88,3.91-3.23.29-3.35-17.31-31.15-14.04-34.41l7.37.12,72.23,11.66c1.26.37,2.77-2.17,3.27-1.79.8.6,4.85,16.82,6.53,18.97,1.41,1.8,3.27.59,3.46-.49.31-1.74-2.04-2.35-2.53-3.51-2.05-4.84,14.82-30.2,19-34.99,7.09-8.11,14.48-12.29,20.44-21.53,1.35-2.09,4.29-3.21,6.01-4.96-9.74-7.24-14.39-18.68-16.66-30.3-1.11-5.67-.86-14.94-2.45-19.54-.71-2.05-5.17-1.85-7.3-4.68-1.17-1.56-2.86-6.66-3.28-8.71-.24-1.18-1.21-10.06-1.09-10.58.8-3.33,8.85-4.67,11.84-4.7-1.67-4.56-.92-8.41,0-12.99-5.1-.27-10.37.37-15.46-.02-6.35-.48-34.09-4.1-37.97-6.97-10.26-7.6,9.98-11.42,15.12-11.89,5.43-.49,38.73-.39,40.38-1.56,3.03-22.69,14.53-38.16,37.61-42.33,6.24-1.13,14.39-.23,19.71-1.26,4.79-.92,4.05-6.98,14.54-4.48,6.5,1.55,4.95,7.51,6.93,9.02.73.56,7.35,2.58,9.92,4.06,6.83,3.94,12.39,9.72,18.89,14.05,5.15,7.69,9.5,30.36,7.46,39.18-1.26,5.47-6.06,6.75-4.3,13.18,5.64-2.7,12.6,3.2,13.74,8.73,2.79,13.52-5.78,28.51-20.74,27.27l-2.52,34.01c1.2,1.72,3.27.14,5.22.77,24.38,7.82,38.02,25.22,51.46,45.49,1.5,2.26,3.36,10.35,3.76,10.75.12.11,1.81-.94,3.19-.77,6.47.8,29.41,8.55,30.73,15.28.74,3.78.29,14.62,0,18.97-1.17,18.02-7.1,36.83-8.87,54.12-1.56,15.31,14.34,25.33,13.64,38.59-.18,3.34-2.91,7.91-2.76,10.23.22,3.47,6.34,14.97,7.69,20.37,3.73,14.94,2.23,20.31-7.28,32.13-9.54,11.85-21.59,17.06-34.21,24.74l-1.16,76.84c-.47,9.28-8.88,16.35-14.95,6.97.65-18.38-1.42-36.65-1.07-55.02.06-2.98,3.02-24.45-.45-24.45h-15.98c-2.26,0-12.75-3.4-14.72-4.98-3.8-3.06-6.37-15-10.58-9.36l-1.24,116.91c-.22,4.43-9.28,4.08-12.19,3.23-3.26-.96-3.55-11.79-3.74-15.25-1.57-28.61.06-58.5,1.09-87.01.17-4.83-.2-9.71-.05-14.54-2.67,1.28-14.25,3.83-14.89,5.63-.48,2.72.88,5.14.95,7.82.35,11.93,1.49,33.03,0,44.09-1.03,7.66-8.04,9.29-12.86,3.8l-1.16-54.34h-3.98c1.49,10.32,1.23,21.08,1.04,31.55-.34,18.66,0,38.28-1.06,56.94-.18,3.2-.62,11.3-1.24,13.76-.43,1.75-2.93,4.74-4.69,5.33-7.84,2.63-8.54-4.14-9.03-10.09-2.05-24.82,1.54-50.2,2.02-74.94.07-3.64.33-22.95-1.17-24.41-.37-.36-8.37-1.99-9.85-3.13l-3.04,34.46c-.16,8.03,2.98,30.38.6,36.1-1.35,3.24-7.25,3.78-7.59,5.12-.92,3.67,1.82,10.55,2.07,14.79s.67,17.71-.24,20.83c-.79,2.72-11.4,8.3-14.4,9.58-14.45,6.17-55.18,14.18-69.56,8.91-2.68-.98-4.44-2.96-6.79-4.22-1.94-1.04-3.62,1.56-5.23-3.74s.16-13.36,3.8-17.85c6.74-8.32,34.55-18.5,37.46-25.49.74-1.79-.74-1.3-1.38-1.58-1.76-.78-9.31-3.09-9.64-4.62-.38-1.78,1.17-12.52,1.09-15.84-.08-2.84-1.04-5.31-1.09-7.91-.47-25.54.09-51.36,4.03-76.53-.56-.49-13.27,2.93-13.99,3.48-2.77,2.08-1.89,16.12-1.99,20-.43,16.09-.05,32.67-.04,49.05,0,6.77,2.24,6.25-6.95,8.47,2.21,6.34,3.57,13.78,3.99,20.5.18,2.87.88,20.64-2.49,20.47l-2.48-2.97c1.21,6.62-18.64,10.94-20.97,8.99-.41-2.13.99-2.33,2.43-3.06,4.39-2.23,11.43-4.55,16.39-6.64,2.39-1.01,4.52.94,2.65-4.3-5.63,4.69-14.34,6.69-21.47,6.99-.39-2.19.97-2.35,2.51-2.97,3.05-1.23,17.73-4.44,18.37-6.65-2.58-8.21.53-18.95-.92-26.87-.15-.83-.8-2.5-1.5-2.5h-17.97c-.23,0-1.33-1.9-1.5-.5.29,20-.35,40.04-.04,60.04.09,6.02,3.11,20.51-.44,25.47-1.05,1.46-2.05.57-2.37-.65-1-3.81.14-11.41-.1-15.9-1.06-20.37-1.96-41.52-2.09-61.91-.2-33.07,2.15-65.89,2.11-98.93-4.2-3.6-5.15.46-6.49.47-2.18.03-4.56-1.31-6.55-2.09.16,4.82-.24,9.71-.05,14.54,1.43,36.23,4.14,72.7,5.07,108.92.42,16.19-1.63,35.42-.04,51.04.49,4.78,2.2,7.75,7.55,7.42,1.44-.09,3.64-2.81,4.42-1.91,3.21,3.68-11.25,8.13-14.38,2.03l-2.6-44.03c-16.82,3.55-34.86,5.19-50.91-2-.52,2.68.59,1.73,2,2.44,12.42,6.22,22.66,3.79,35.47,3.5,4.23-.1,7.86,1.94,12.44.07,3.5,3.08-11.45,4.86-12.49,4.98-7.04.82-17.94.92-24.94,0-11.07-1.46-18.45-2.96-16.25-16.25,3.15-18.98,25.09-18.77,37.02-27.92,1.75-1.34,6.95-6.7,7.65-8.35s-.6-1.33-1.24-1.7c-6.5-3.74-8.84-1.03-9.71-10.29-2.02-21.65-2.73-54.42.26-75.7.43-3.04,3.54-11.02,2.28-12.82l-145.33-55.96c-.16,7.16.16,14.37.03,21.54-.79,43.32.96,88.24-.08,131.92-.12,4.89-.6,12.59-.05,17.12.25,2.06,2.82,1.06,2.07,2.9-2.16,5.32-12.79,5.19-13.91-2.04-1.31-8.46-1.51-20.99-2.05-29.95-.65-10.9-.3-22.16-.97-33.03-2.04-33.25-5.13-65.65-5.07-99,0-4.51,2.2-11.07,1.07-15.78-.39-1.61-5.92-1.93-7.1-3.36-3.36-4.06-4.12-13.21-.92-17.56,1.02-1.39,26.45-4.45,30.45-4.75s8.36-.48,12.47-.01c.11-1.1-.44-2.22,1.4-2.04,1.48.14,17.55,6.83,17.58,4.54-1.67-.51-23.53-7.34-19.97-10.49.8.16,8.49.52,5.98-1.99-.63-.63-5.79-.69-4.98-4.01,18.61-3.54,37.56-6.03,56.42-8,6.24-.65,13.55-.36,19.95-1.01,6.77-.7,13.91-2.96,20.47-2.5-7.17,4.21-17.22,5.13-25.58,6.38-21.27,3.18-42.89,4.06-64.27,6.14l21.01,8.44c6.39,2.2,39.45,13.86,43.12,13.35,5.01-.7,12.37-3.86,17.92-5.12,21.43-4.87,43.76-9.6,65.71-10.68.5,3.04-.78,1.59-2.43,2.02-2.38.62-4.92,1.21-7.32,1.71-21.58,4.54-43.61,7.39-65.13,12.28-.22,1.86,2.1.83,3.2.7,8.53-.96,17.78-3.3,26.37-4.6,6.48-.98,13.19-1.21,19.69-2.28s12.96-3.57,19.63-3.83l-.99,1.5-15.98,4.48,20.45-3-2.49,2.5c-23.88,4-49.41,12.25-73.4,14.49-1.14.11-5.48.83-5.47-.97,18.42-4.8,37.5-7.34,56.15-11.28.96-.2,2.99-.36,2.75-1.72-20.76,3.07-41.54,6.12-62.32,9.07-1.49.21-2.51,1.66-3.87,1.68l-39.63-10.75,8.46,4.01c10.62,3.78,21.53,6.93,32.09,10.86,1.27.47,3.06.23,3.38,2.11-14.56-.99-29.49-7.18-43.2-12.22-4-1.47-14.4-7.19-17.43-7.58-1.5-.19-4.82,1.27-5.27.82-.84-.84,1.92-2.56-2-3ZM426.68,48c2.55-2.35-9.1-6.51-10.97-2.49,1.96-.49,10.56,2.87,10.97,2.49ZM462.63,109v-16.5c0-12.75-9.52-26.52-20.3-32.67-23.14-13.18-56.73-16.95-75.38,5.84-3.29,4.01-9.93,17.86-10.18,22.83-.11,2.1,0,1.29,1.49,1.51,4.13.61,9.38-.29,13.88.12,16.64,1.54,39.03,6.62,54.83,12.09,3.3,1.14,5.29,3.41,9.48,4.5,8.4,2.18,17.62.63,26.18,2.28ZM428.68,107.01c-28.59-6.73-59.75-15.46-89.35-14-4.61.23-10.33,1.61-15,1.98-4.03.32-21.21-.3-23.45,2.02-1.61,1.67.34,1.69,1.45,2.01,11.1,3.25,23.48,3,34.98,3.98,16.74,1.43,29.81.19,45.98.95,12.58.59,26.14,3.14,38.91,4.03,1.36.09,6.18.85,6.47-.98ZM459.63,114l-105.83-4.99c1.31,3.48-.42,7.49-.06,10.47.45,3.78,3.56,1.23,6.48,1.48,6.97.6,14.71,1.2,13.55,10.04,4.45-1.41,8.51-1.4,12.97,0-1.64-6.37,3.49-8.55,8.93-9.56,6.5-1.21,15.82-.69,22.23.86,4.04.97,8.12,1.01,6.79,5.71l34.94-7.01v-6.99ZM452.77,151.13c4.18-1.22,7.41.26,11.86-1.64,11.05-4.72,12.02-31.83-2.37-24.36-2.54,1.32-6.42,7.95-8.12,7.84-3.01-.2,1.22-6.02-1.97-4.96-8.58,2.86-17.41,6.86-26.48,6.98.09,5.12.74,11.12-3.97,14.37-3.08-.44-4.97,1.91-7.73,2.41-5.41.99-16.42-.32-20.95-3.56-5.97-4.26-4.32-10.77-5.4-12.09-.28-.34-7.63-2.04-8.48-2.07-8.91-.29-3.72,11.68-7,14.04-3.72,2.68-18.39,1.48-18.36,2.41,5.72,19.36,3.14,40.11,24.99,48.98,14.71,5.97,26.77,3.31,40.92-2.49-.98,6.06-8.3,9.75-13.98,10l1.01,1.98c-4.24-1.29-8.59-1.08-12.99-.98,7.21,7.91,24.94,6.93,34.17,3.72,8.81-3.07,15.91-10.07,22.19-16.68-1.89-14.72,2.44-29.29,2.67-43.92ZM370.77,126h-27.96c.28,5.14,1.84,17.54,6.96,19.53,3.75,1.45,17.53,1.93,19.52-1.51.65-1.14,2.12-17.38,1.48-18.02ZM421.64,127.05c-10.46-1.64-21.35-1.37-31.91-.54,2.85,9.05.62,19.52,12.46,20.53,18.33,1.55,20.82-1.35,19.46-19.99ZM516.54,299.99c-.51-27.96-3.09-58.12-22.93-79.52-5.5-5.93-31.33-25.34-38.47-25.54-2.36-.07-1.2,1.78-2.43,3.59-10.97,16.24-43.7,29.53-59.91,14.91-1.83-1.65-3.49-7.35-6.05-5.43-.16.12,1.58,2.46,1.96,3.53,2.51,7.04,7.58,22.08,8.06,29.02.19,2.73-1.13,4.67-.6,7.42,1.43,7.53,12.86,30.37,17.02,38.04s9.69,16.39,15.49,23.49c1.08,1.65-4.18,1.71-1.98,3.48.37.29,7.91.07,9.38-.1,2.09-.24,16.01-4.14,16.59-4.9.15-.2-1.42-2.52-1-2.99l2.99.99-.99-2.99,2.98,2c-.96-4.64,1.91-1.72,2.54-2.91.84-1.56,0-3.73.69-4.89.53-.89,4.95-1.19,1.78-5.54-.57-.78-3.49-.69-1.92-2.61.29-.35,1.68.45,1.92-.57.54-2.33-2.05-1.1-2.06-2.05s1.07-2.51,1.1-4c.13-6.57-1.62-12.8-4.02-18.89l2.98-1.55.99,3.99c-.25-2.65-.22-9.15,2.1-4.57,3.76,7.42,3.86,18.39,3.9,26.58,17.5-.11,33.75,6.29,49.92,11.99ZM368.04,206.25c-2.06,2.09.51,12.44,1.2,15.78.87,4.24,6.1,25.73,9.18,26.81,4.87,1.69,14.03-3.18,14.25-8.31.15-3.45-6.32-18.8-7.47-24.47-.57-2.81.06-6.5-.58-8.42-.33-.99-8.24-4.56-9.36-4.56-.85,0-6.68,2.63-7.23,3.18ZM404.71,307.99l-12.15-21.32c-3.17-8.32-7.02-16.42-10.29-24.7-.93-2.35-.93-6.15-2.08-7.92-.93-1.43-4.78-2.9-6.47-4.52-8.15-7.84-9.2-23.3-12.44-33.53-14.85,11.37-21.65,30.44-32.45,45.44l21.47,14.56,2.49-1.99c-3.44,2.39,4.4,6.51,4.99,5.98-1.63-2.46.46-3.51.9-5.59.5-2.4,2.46-16.81,3.11-17.41.21-.2,2.18.13,2.98,0-1.38,11.42-.83,23.05-2,34.49-.32,3.09-3.07,12.59-2.95,14.03.04.53.99,1.29,2,1.05,3.64-.85,6.99-2.97,11.57-3.45,11.38-1.18,20.62,2.02,31.32,4.87ZM315.76,251.1l-26.23-1.23-52.54-9.38,15.47,30.5c5.04,1.26,19.43,3.36,20.29,9.72.2,1.49-1.11,3.82-.82,4.24.18.26,4.41.79,5.52,3.05,1.63,3.34-1.37,5.24-1.28,6.51.07,1.01,2.77,2,2.79,3.98.02,2.39-5.26,4.66-4.03,6.48.15.22,4.06.58,3.84,3.34-.3,3.73-5.59,3.88-5.73,5.15-.09.84,6.32,14.92,7.04,15.36.87.53,3.52.06,5.06.42,23.02,5.3,42.51,9.76,66.18,12.76,1.38.18,2.92.48,1.49,1.98-2.84,2.97-34.36-2.14-40.14-3.28-7.78-1.53-23.32-5.15-29.99-8.77-1.07-.58-.55-2.27-1.24-1.93-3.51,1.74-3.15.78-5.44,1.52-18.84,6.11-34.28,12.01-54.47,15.5-1.67.29-1.7-.62-1.51,1.97,23.17,3.62,44.43,14.59,66.58,21.8,23.47-10.86,48.33-19.02,73.21-25.8-1.01-3.45-3.45-5.14-.99-8.98-5.55-.28-.94,6.83-2,7.99-1.46.32-1.61-.15-2.44-1.05-3.48-3.79-8.25-18.37-11-23.98-10.76-21.96-22.77-43.48-27.59-67.87ZM391.72,251.01l-8.96,2.48c5.93,12.79,10.85,26.04,17.44,38.53,5.53,10.48,8.51,20.79,22.48,19.97l-21.5-37.96-9.46-23.03ZM543.34,260.16l-26.79-8.16c2.18,11.06,5.5,22.12,5.03,33.54-2.87,6.56,2.96,21.11-7.03,20.46l.03,1.46,13.46,27.53c3.32-24.89,8.49-49.79,8.49-74.99,1.82.5,2.47,3.15,2.74,4.74,1.59,9.25-.44,29.82-1.86,39.65s-4.91,20.89-6.53,31.14l5.15,4.46c.54-2.86-.66-5.43-.52-8.46.44-9.43,3.67-19.81,4.87-29.17,1.79-13.97,3.65-28.11,2.96-42.2ZM356.68,285.13c-2.72-1.05-5.48-1.98-8-3.49-3.97-2.39-15.8-12.88-17.53-13.49-3.07-1.07-4.66,3.99-3.88,6.87,2.3,8.46,10.63,22.78,14.75,31.3.56,1.17.84,2.41.81,3.7l1.98-1.02c-2.32,3.53,3.23,11.38,3.01,3.99.63,1.79,6.6-2.97,6.82-3.64,1.06-3.19-.62-7.19-.37-9.88.12-1.3,1.31-2.5,1.46-4.02.35-3.43.61-6.9.95-10.31ZM274.92,297h-17.47c-1.83,0-3.51-2.09-2.05-4.05,1.8-2.42,6.47.05,8.93-.05,1.17-.05,11.98-1.41,9.6-3.88-3.25-3.37-20.16-.29-22.47-6.02-1.53-3.8,9.05-.01,10.99-.01,1.39,0,7.5-1.29,7.47-2.49-8.2-4.74-24.9-12.08-22.86,3.92,1.44,11.25,8.83,27.8,22.37,26.62,1.28-.11,5.86-1.06,5.01-3.04-1.46-3.27-16.45.29-16.46-4.5s16.79.61,16.95-6.5ZM507.16,316.66c1.5-2.24,4.84-11.58,2.43-13.19l-41.39-9.53c-5.12,21.98-28.4,26.19-47.9,22.96-13.64-2.26-27.93-10.45-42.07-9.94-8.79.32-26.66,5.51-29.43,15.04.84.81,19.03-9.84,21.96-6.99,2.68,2.61-5.84,5.75-6.92,6.56-3.7,2.78-9.31,6.61-10.04,11.43.79.8,16.99-9.81,19.95-10.56,1.57-.4,3.21-.77,4,1.08.75,1.75-11.77,8.62-13,10.96l-2.96,5.52c1.58,1.56,6.79-4.42,7.22-4.65.49-.26,1.58.26,2.43-.13,4.33-2.02,8.25-4.29,13.31-5.21.63,1.7-2.9,3.75-1.99,4.98.28.38,8.16,3.71,8.73,3.82,2.54.51,4.44-.51,6.4-.27,3.89.46,6.57,4.69,10.82,2.46l.12,2.83c3.72-.06,6.43,1.96,9.62,2.98,7.3,2.34,19.19,5.57,28.18,6.69,10.39,1.29,27.57-.35,36.86-5.11,2.8-1.43,13.56-9.96,14.63-12.43.53-1.22-.62-2.8-.51-2.9.19-.17,2.09.14,3.87-1.65,3.21-3.24,3.32-9.35,6.08-12.91.25-1.03-2.55.26-1.98-1.47.49.1,1.33.01,1.58-.36ZM174.07,334.99c-.26-1.38-1.79-2.08-2.98-2.5-10.65-3.77-23.13-6.18-34.17-9.78-8.37-2.73-16.91-8.88-25.75-6.7l18.45,7.01c11.93,2.32,28.02,10.94,39.42,12.55,1.82.26,3.27-.53,5.03-.57ZM522.53,335.97c.65-.93-9.59-16.96-8.47-20.97-.98,1.96-3.03,6.89-3.33,8.74s6.25,15.26,7.32,15.24c.27,0,4.32-2.79,4.48-3.01ZM510.57,344c5.37-2.73,3.29-4.88.48-8.99l-.48,8.99ZM495.76,351.15c1.27-1.41,4.6-.04,5.79-.62,3.52-1.72,2.98-10.96,3.52-14.52-9.69,12.3-21.14,23.61-37.94,22.99-1.79.19.18,7.23,7.17,5.2,3.41-.99,19.21-8.52,21.32-10.74.9-.95,0-2.16.13-2.3ZM525.41,339.13c-3.14-1.84-15.94,12.01-18.93,14.28-6.67,5.08-14.88,9.58-22.89,12.08-2.81.88-11.69,2-12.98,3-2.47,1.9-.97,9.53-2.16,10.34-.98.68-9.19,1.35-9.81,2.18l14.56,23.9c4.73,5.6,8.17,7.16,15.65,5.85,16.33-2.87,41.09-14.28,53.18-25.73,4.23-4.01,9.22-7.4,7.23-13.28-3.66-10.84-9.96-22.75-18.26-30.74l-2.97,1.99c-1.63-.68-2.33-3.68-2.64-3.86ZM89.2,526.99c-.92-3.45-1.85-7.9-2.04-11.45-2.39-45-2.39-89.06-.92-134,.22-6.59,1.02-21.34-.04-27.05-.68-3.68-9.72-5.5-12.98-6.49,5.55,37.63,4.81,75.58,5.95,113.54.49,16.17,1.06,32.76,2.08,48.92.53,8.38-3.72,16.83,7.95,16.53ZM464.63,376.01c.35-.35.12-8.67-.49-9.99-22.43,5.98-45.36,10.51-68.2,14.7-14.36,2.63-29.04,3.93-43.37,6.56-27.9,5.11-57.38,13.1-85.28,16.62-1.12.14-2.4-.75-2.89-.68-2.49.37.56,9.05-.46,11.78,28.27-5.98,56.31-12.97,84.66-18.7,33.65-6.81,73.12-15.85,106.67-20.17,1.94-.25,9.04.22,9.37-.12ZM74.22,382h-1v24h1v-24ZM455.64,382.01l-11.97,2.01,3.06,1.53c.5,11.84-2.11,24.29-2.13,35.99-.02,22.09,3.39,44.95,3.09,67.01-.3,22.59-4.08,47.26-4.02,69.95.02,8.17,2.33,10.3,10.04,6.93-1.02-20.05-3.57-39.86-3.1-59.97.82-34.45,2.69-69.46,4.08-103.92.26-6.52-.9-13.22.95-19.53ZM436.68,390.01c-.06-6.94-1.13-4.02-4.2-3.72-21.99,2.14-47.27,9.25-69.51,13.4-8.01,1.49-17.02,1.87-24.63,3.33-1.38.27-7.94,5.61-9.06,6.93-8.11,9.54-9.07,25.43-9.51,37.54-.6,16.55-1.04,33.21-1.96,49.97-.19,3.51-1.31,26.47-.52,27.6,12.75,5.53,24.91,3.02,38.01,1.95,6.33-.52,14.28,2.03,18.97-3.01,1.48.16-2.11,3.92.97,2.98,5.37-1.64,3.79-13.77,2.51-18.31-.29-1.03-1.91-.61-1.98-.69-.47-.61,2.05-1.68,2.01-3.48,0-.35-5.22-1.13-.03-2.99-3.09-1.87-.52-2.9-.53-3.96-.06-4.81-.96-10.17-1.05-14.95-.04-2.25,1.28-5.67,1.24-6.1-.1-.99-1.4-1.48-1.65-2.01-.39-.82,1.73-.09,2-1.15,1.89-7.47-.34-19.12,3.99-25.86-4.81-1.82-1.05-2.08-.4-2.85,1.01-1.2,2.01-3.5,3.36-4.07,1.11-.47,10.97-.77,12.03-1.58l-1.01-1.98c5.23.12,10.21-.92,15.24-2.08,2.68-.62,6.99-1.56,10.75-2.4s8.17-3.64,11.95-3.04l-2.99,3.49,10.57-2.94c-1.29-11.03.84-24.9-.65-35.49-.31-2.24-1.94-7-3.93-4.55ZM490.76,460.75c26.34.26,44.92-18.47,62.79-35.19,4.21-7.36-4.46-30.82-6.06-39.55-17.22,16.81-39.7,33.47-65.3,29.91-13.08-1.82-16.63-17.26-23.54-25.91l-.64,39.35c3.81,7.58,8.73,25.35,16.28,29.55,3.62,2.01,6.46-.17,8.74.07.49.05,1.17,5.21,3.07.01l.49,2.01c3.41,1.74,3.36-4.81,4.18-.25ZM324.84,406.01c-4.82,1.78-11.11.96-15.61,2.83-1.95.81-1.26,2.09-1.37,2.16-.57.33-1.35-1.61-3.03-1.55-2.28.08-5.31,1.86-7.68,2.31-9.4,1.77-18.86,3.29-28.22,5.26.49,1.1.96,2.22,1.02,3.46.44,10.41-.04,20.82-.05,30.99-.02,18.51.09,37.04.05,55.54l26.95-3-.48-1.98-2.51.98c-1.65-1.88-1.3-42.95-1.03-48.55.39-7.98,1.63-15.88,3.92-22.24.53-1.48,1.82-6.97,2.1-7.22.14-.13,2.06,1.21,3.29.89s1.8-1.94,2.67-2.3c.5-.21,8.6-1.61,10.53-2.02.84-.18,2.17.72,2.48.43s-.92-1.53-.71-2.31c.5-1.9,2.69-6.18,3.65-7.44.75-.99,4.87-5.49,4.05-6.23ZM251.92,415.05l-12.94-4.05-.02,78.99-2.98-1c1.18,2.89-.91,11.15.97,12.52l14.98,4.48-.02-90.95ZM441.66,434l-38.94,10.99c13.26.76,25.84-4.53,38.89-6.04l.05-4.95ZM441.66,442c-12.25,2.83-24.42,8.65-37.35,6.91-3.65-.49-8.15-3.77-10.76-3.71-4.14.1-8.05,1.21-6.85,6.15.22.91,6.07,2.55,7.28,2.9,18.55,5.42,23.95.77,41.43-3.02,1.63-.35,6.04-.01,6.26-.23.36-.35-.26-7.44-.01-9ZM423.24,459.24c-.94-.14-7.07,1-7.29,2.21l1.76,51.04c-.04,2.87,4.21,3.48,5.54,1.55,1.7-2.48-.63-17.11-.59-21.59.09-8.79.89-17.98,1.04-26.94.03-1.65,2.2-5.87-.46-6.27ZM407.72,460.99h-9c2.32,30.73.55,61.75,0,92.49-.03,1.72-1.82,10.85.58,11.57,4.44,1.34,8.87-.09,6.31-5.27-3.91-7.93-1.2-13.66-.86-22.25.6-14.99.25-30.12.92-45.08.19-4.25,3.42-30.09,2.04-31.46ZM505.57,544c2.35.42,4.77-1.05,4.98-3.52l1.51-79.45-6.57,2.57.07,80.39ZM251.96,510c-8.26-.74-4.7.3-6.77,4.72-3.21,6.84-13.25,12.7-20.19,15.3-.72,2.75,1.63,1.91,3.32,3.12,6.3,4.49,11.82,10.66,11.65,18.86-1.68,1.99-5.41-7.28-6.15-8.33-2.02-2.87-9.88-10.59-13.31-10.6-3.83-.01-19.35,10.59-16.02,15.94,3.13,5.03,26.1,5.3,31.98,4.98,2.46-.13,15.29-1.66,16.51-2.47,1.74-1.14-2.24-36.39-1.02-41.53ZM370.77,532.99c-10.15,2.12-20.03,3.38-30.44,3-2.65-.1-11.29-2.21-12.9-1.82-.85.2-3.76,4.49-3.59,5.31.28,1.33,6.98,2.8,8.95,4.07,3.16,2.04,6.22,7.56.98,6.04-5.22-1.51-13.59-10.84-17.9-2.6,5.06,1.2,12.76,3.85,12.97,10.01-8.58-2.02-14.91-11.68-23.91-3.45-3.38,3.09,2.66,3,5.3,4.6,1.34.82,6.34,5.55,7.19,6.8,2.19,3.21,1.36,6.68,4.06,8.97,17.54-3.07,34.68-8.37,51.16-15.05l-1.86-25.87ZM317.85,574.99c-1.99-5.84-13.88-19.28-19.98-17.58-2.84.79-10.12,7.22-10.79,10.32-1.08,4.98,1.63,5.65,5.76,6.82,8.65,2.44,16.19,2.38,25,.45ZM373.76,562c-22.81,9.85-58.34,24.36-82.87,15.5-1.22-.44-6.74-5.16-5.01,0,.16.46,7.55,3.86,8.79,4.21,21.06,6.04,43.47-4.55,62.91-10.43,6.05-1.83,18.08-.68,16.18-9.29Z"/>
      <g>
        <path class="cls-1" d="M181.05,347.99c-1.13-3.16-8.78,3.01-7.99-1.98l89.87-17c-1.88,2.54-6.91,3.62-9.97,4.5-25.98,7.49-53.22,11.2-79.37,18.05-16.53-5.12-33.55-9.54-49.69-15.81-6.18-2.4-14.44-4.72-18.72-9.74,16.45,6.03,33.26,11.01,49.89,16.53,8.53,2.83,17.23,9.57,25.99,5.45Z"/>
        <path class="cls-1" d="M176.06,326.99c-12.45-4.56-24.81-8.93-36.74-14.74-1.35-.66-2.75.64-2.19-2.25,11.08,3.27,24.19,7.72,34.63,12.81,1.77.86,4.66,1.63,4.3,4.18Z"/>
        <path class="cls-1" d="M181.06,319.99c-4.99-.87-10.23-2.71-14.96-4.51-4.09-1.56-10.11-3.53-13-6.47,8.99,2.29,20.45,5.47,27.96,10.98Z"/>
        <path class="cls-1" d="M205.88,316.13c.27.43.56,2.77-.36,2.86-7.44-5.38-17.74-6.73-24.47-12.98,3.3.66,24.11,8.99,24.82,10.12Z"/>
        <path class="cls-1" d="M182.06,315.01c-.67,2.15-1.14,1.65-2.75,1.31-2.68-.57-9.87-3.85-12.9-5.14-1.45-.62-4.79-1.71-5.31-3.17,7.65-.01,13.71,5.47,20.96,7Z"/>
        <path class="cls-1" d="M193.04,320.01c2.64,3.5-9.4,3.33-10.98,2.98-.93-.71,3.33-4.81,3.62-4.9.73-.23,7.13,1.61,7.36,1.92Z"/>
        <path class="cls-1" d="M214.01,315.99c-6.83-.63-13.97-4.44-18.97-8.98,6.2,2.25,14.11,4.6,18.97,8.98Z"/>
      </g>
    </g>
    <path class="cls-1" d="M379.75,136c1.08,1.05-3.2,26.22-2.99,30,3.13,1.02,15.99-3.8,15.98,1.5,0,1.77-20.3,6.9-20.98-1.01,2.13-8.36,1.6-20.64,4.53-28.5.57-1.53,1.9-3.51,3.46-1.99Z"/>
    <path class="cls-1" d="M468.62,130.99c-10.05,2.88-2.72,4.97-2.13,6.63,3.04,8.57-8.99,9.72-6.37,6.38,8.99-5.15-.81-6.11-1.45-7.03-1.84-2.64,7.13-12.27,9.95-5.97Z"/>
    <path class="cls-1" d="M399.72,181.01c0,5.92-16.13,5.72-17.97,3.98-1.59-1.5.14-1.77,1.51-1.97,2.49-.36,15.67-2.69,16.46-2.02Z"/>
    <g>
      <path class="cls-1" d="M491.58,453c-1.43,1.55-8.02-6.09-9.02-6.55-2.17-1-4.05,3.35-1.97-3.44-.39-.47-2.87,3.63-3.98.49-.33-.92,2.47.23,1.95-1.93-.17-.71-6.37-12.38-6.84-12.94-.82-.99-2.01-.6-3.1-.63v-.98c5.06-.51.76-1.89.39-2.41-1.41-1.99-5.17-12.19-6.11-14.79-.31-.86.74-7.92-.27-9.81,3.44,1.87,3.25,6.75,4.52,9.96,3.76,9.48,10.01,23.97,16,31.97,1.42,1.89,10.3,9.01,8.42,11.06Z"/>
      <path class="cls-1" d="M523.41,387.13c2.9,9.34-12.89,10.65-10.7,2.6,1.16-4.27,7.34-4.53,10.7-2.6Z"/>
    </g>
    <path class="cls-1" d="M404.46,137.26c4.26,4.47-2.6,11.35-4.53,5.03-1.29-4.25,1.15-8.57,4.53-5.03Z"/>
    <path class="cls-1" d="M361.65,143.87c-9.76,2.53-6.22-12.04-.84-6.43,1.91,2,2.14,4.03.84,6.43Z"/>
    <g>
      <path class="cls-1" d="M278.91,357l-1.99.99c4.5,1.02,10.17,1.99,13.96,4.52.39,2.67-1.5,1.07-2.84.85-6.44-1.08-34.67-11.04-40.88-14.11-1.33-.66-2.76.65-2.19-2.25,4.42.7,8.23,2.83,12.73,3.74,2.24.45,4.58-.05,6.63.36s16.94,2.91,14.58,5.89Z"/>
      <path class="cls-1" d="M298.88,358.99c-11.99-2.32-23.79-6.36-34.75-11.73-1.34-.66-2.76.65-2.19-2.25l31.2,10.24,5.73,3.75Z"/>
      <path class="cls-1" d="M317.84,351.01c.26,1.76-2.29,1.02-3.26.76-5.99-1.61-15.85-5-21.64-7.33-.62-.25-8.05-2.62-6.04-4.44,10.33,3.65,21.35,5.49,30.94,11.01Z"/>
      <path class="cls-1" d="M308.87,353.01c.1.11.37,2.94-.5,2.99-9.02-5.16-22.23-6.05-31.01-10.95-1.39-.77-2.91-.82-2.44-3.04l33.94,11.01Z"/>
    </g>
  </g>
</svg>