<?xml version="1.0" encoding="UTF-8"?>
<svg id="Layer_1" data-name="Layer 1" xmlns="http://www.w3.org/2000/svg" viewBox="0 0 656 656">
  <defs>
    <style>
      .cls-1 {
        stroke: #000;
        stroke-linecap: round;
        stroke-linejoin: round;
      }
    </style>
  </defs>
  <g>
    <path class="cls-1" d="M368,137.5c.09-.34,1.36-1.53,1.99-1.5l1.02,8c6.24-2.7,9.78-2.03,15.99,0l.5-4.99c2.59,3.79,1.14,8.57,3.01,12.99,4.16,9.88,19.86,6.79,28.47,5.97.07-4.02,3.39-16.85,1.56-20-1.05-1.81-6.06,1.93-8.02,1.1-7.31-.78-14.19-2-21.5-.07-.2-1.19-.02-1.8,1.02-2.47,4.45-2.87,33.98-5.64,31.49,6.49,5.11-1.44,10.34-2.33,15.51-3.49,2.08-.46,3.83-1.85,5.72-2.28,6.6-1.51,21.61.62,14.62-10.11l-107.73-6.86c-4.25.98-.78,11.16-2.63,14.72,6.46.92,12.9-2.19,18.99.5-4.79,2.48-11.83,1.92-17.27,2.73-3.61.54-7.92,3.17-12.73,1.77-1,1.02,2.06,15.84,3.57,16.94,2.33,1.68,12.5,1.26,15.97,1.11,2.22-.09,9.13-2.87,9.45.44-1.19,1.9-2.78,1.3-4.47,1.54-6.5.9-20.38,2.86-24.56-3.48-1.94-2.95-4.15-16.85-.93-19.06.75-.51,8.25-.65,9.52-2.42.84-1.17.22-12.68-.5-14.64-1.58-1.15-6.04.76-8.55.66-12.81-.48-34.57-2.02-46.54-5.55-3.71-1.1-11.71-3.36-5.98-7.54l1.99,3c1.81-1.63,1.79-5.75,2.07-5.93.82-.55,17.11-2.97,19.41-3.11,13.17-.79,27.29,2.28,40.54,2.03-.34-1.16-1.09-2.06-.97-3.4.75-8.62,7.92-25.72,14.49-31.57,7.07-6.29,28.55-16.96,37.99-17.1,3.19-.05,8.35,2.14,9.87,1.85,1.36-.26,6.21-5.28,9.29-5.55,5.37-.47,7.93,6.34,9.35,10.26,31.25,10.06,43.49,22.56,39.88,56.91-.77,7.34-4.75,12.64-5.89,19.6,3.29.05,9.14-.25,11.93,1.57.73.48,4.96,7.29,5.07,7.96.09.52-1.73.28-1.98,1.16-1.11,3.89-.79,10.29-2.29,14.55-2.24,6.36-12.51,8.42-18.74,7.76l-4.84,49.34c.99,2.87,15.58,4.59,19.82,6.18,16.99,6.37,43.99,34.89,53.66,50.34,1.28,2.05,5.88,9.94,6.37,11.66.15.53-1.58.42-1.73.68-.84,1.44,9.31,27.34,10.74,31.36-1.35,4.62-3.54,8.22,1.99,10.94.34.64-2.33.54-2.87,2.11-.87,2.52-.59,11.6-1.38,15.63-.62,3.18-4.78,12.67-4.28,14.86s4.28,3.82,5.96,5.97c3.14,4.02,16.03,23.94,17.1,27.9,1.85,6.81-3.68,9.4-3.5,12.54.25,4.24,3.21-2.6,4.97-1.51.26,3.04-2.31,4.08-2,7.39.17,1.88,1.96,4.37,2.52,6.6,2.61,10.4,9.36,35.38,4.36,44.38-.45.81-10.79,13.07-11.86,14.14-1.88,1.88-25.63,16.15-28.73,17.27-9.51,3.44-19.34,3.76-29.32,3.69-3.85,11.21-9.35,20.75-18.43,28.56-3.4,2.93-11.83,8.17-15.83,10.16-15.78,7.84-61.94,8.45-80,3.44-4.59-1.27-9.92-5.92-14.69-4.63,3.16-3.14,1.47-5.87-1.99-7.99.12,1.51-1.52,2.54-1.81,3.8-4.45,19.09-18.89,52.4-32.18,67.73-3.97,4.57-14.8,15.94-20.69,16.19-2.16.09-4.11-1.78-5.87-1.67-1.51.09-2.64,2.04-3.83,1.86-1.82-.27-10.67-11.94-11.84-14.2-7.34-14.16,3.18-32.72,2.24-47.24-.19-2.93-4.46-17.1-5.99-19-1.21-1.49-11.02-5.25-11.99-4.43.1,2.65-1.59,4.61-2.48,6.88s-1.04,4.91-3.12,8.06c-1.15,1.75-3.95.11-1.44,6.01-1.96,2.38-11.49-4.2-13.75-4.81-2.48-.66-.76.55-4.05-1.08-6.92-3.43-13.29-4.94-18.2-11.62,2.75-.59,6.72.77,9.44,1.56,4.94,1.46,16.33,4.63,20.26,6.74.93.5,2.2.97,2.3,2.19-2.39.73-7.49-2.75-8.99,0l8.5,3.99c9.45-18.59,13.92-42.49,25.05-59.92.6-.94,8.34-11.06,8.45-7.54-.77,2.79-.85,6.38,2.27,7.8,1.45.66,2.93-.2,3.21-.1,1,.36,4,5.48,4.99-1.22,3.61,2.81,10,1.31,14.5,4,1.71-2.26-6.27-8.5-7.62-10.35-9.06-12.37-19.66-24.35-27.97-37.04-2.53-3.86-14.54-25.62-16.91-26.6l-19.47,42.45c.36,1.65,7.03,2.37,8.98,3.04,9.45,3.2,19.68,8.48,30.7,11.31l7.3,4.19-11.48-2.01,3.48,4.01c-14.32-2.55-28.34-9.96-40.98-16.99-.6,7.2-12.78,27.96-12.09,33.4.12.91,3.31.08,2.07,2.59-8.07.96-12.05-4.45-10.92,6.48.66,6.39,3.45,13.87,3.93,21.05.41,6.14-1.48,18.41-.03,23.84.22.82,1.34.74,2.01.66.51,1.64-1.7.55-2.02,1.48-.94,2.78,2.11,2.46,2.06,3.02-.11,1.4-1.59,2.27-1.79,3.78-.57,4.39,2.45,5.61-2.22,10.24-5.45,5.41-31.31,10.99-39.49,11.51-17.54,1.12-44.21,3.36-61.03,1.95-4.62-.39-10.4-2.82-15.24-2.74-1.89.03-2.27,2.17-4.26,1.75-3.05-10.42-4.29-17.1,1.58-26.91,2.46-4.11,13.5-15.68,18-16.09,1.9-.17,3.81,1.18,5.39.54,1.34-.54,8.64-7.91,10.54-9.56.85-.74,2.49-.7,3.15-1.31,1.81-1.66,9.11-9.37,10.35-11.15.59-.85,1.39-.99.98-2.5l-13-3.69c-21.65-8.48-40.1-18.77-50.17-40.66-7.92-17.22-3.6-25.42,2.15-42.19,1.39-4.06,4.82-6.42,3.03-10.42,6.67-3.5,12.77-7.67,19.63-10.92,13.48-6.39,34.09-14.33,48.87-15.16,1.11-.06,10.08,2,2.05-2.04-4.34-2.18-10.57-2.49-14.49-6.51-2.02-2.07-3.71-8.15-4.09-8.43-.99-.73-5.29,4.15-10.95.46-5.09-3.32-12.55-25.63-11.92-31.85.81-8,8.5-12.82,8.6-14.09.13-1.64-8.57-20.63-9.48-25.25-.86-4.35-.53-9.64-1.51-14.49-1.28-6.33-9.73-23.25-.16-24.71,14.46-2.21,48.94,4.22,64.06,7.8,21.02,4.99,39.31,9.12,60.58,13.42,3.95.8,15.2,3.02,18.03,4.71,3.58,2.14,9.81,28.55,9.77,34,.89-.13,2.31.27,2.89-.1.49-.31,3.97-8.28,5.29-10.22s8.6-10.62,8.75-11.32c.37-1.67-2.58-2.71-2.67-3.85-.06-.73,5.6-11.56,6.57-13.19,8.69-14.52,21.23-31.23,34.85-41.15,2.55-1.86,13.44-7.64,14.33-8.67,1.43-1.64.62-3.79,1.54-5.46,1.73-3.18,6.8-8.51,10.24-9.76,2.48-.9,10.56-.54,7.56-3.39-2.1-1.99-3.91-2.68-6.19-5.59-9.85-12.54-8.81-16.94-10.18-31.82-.59-6.44-2.39-13.15-.98-19.5,3.45,2.55,1.5,8.72,2,12.48.97,7.25,6.6,27.86,10.13,33.87,5.08,8.64,23.73,14.57,33.25,13.54,4.16-.45,8.62-3.21,12.6-2.4l-4.99,3.49,12.99-1.98c.45,2.56-.4,1.8-2,2.44-7.02,2.84-16.52,2.51-23.99,2.56,15.49,15.98,40.39,12.83,55.49-2.05.46-.83-.17-2.21.19-2.96,5.63-11.69,8.08-34.73,10.2-48.63.32-2.14-.64-10.25,2.61-10.16.51.01,1.43,1.6,2.82,1.58.45,0,7.89-1.97,8.71-2.28,10.16-3.87,8.77-23.9.48-24.61-7.59-.65-9.88,7.36-14,8.1-4.69.85,2.66-4.96,1.98-6.02l-29.12,7.9-.38-2.88h-3.99c.05,4.58-.12,15.67-5.56,16.94-6.97,1.62-20.16,1.1-26.41-2.48-3.33-1.91-2.65-10.59-4.26-12.24-1.43-1.46-11.59-1.69-13.78-.71-2.99,1.34.53,9.32-4.99,9.49.85-5.11-1.16-13.95,0-18.5ZM409,55.01c-.28-.26-6.38-1.12-7.49-1.09-5.04.12-12.69,2.67-17.32,4.82-1.41.65-2.73-.6-2.18,2.26,5.65.21,11.53-3.19,16.58-3.91,2.93-.42,6.12.27,8.93-.08,1.39-.17,2.95-.6,1.48-1.99ZM465,121v-14.5c0-7.17-4.44-17.09-6.73-23.19-4.48-11.91-30.99-23.59-42.72-24.38-9.56-.64-36.6,4.1-44.48,9.63-10.01,7.03-17.51,24.5-21.08,35.92,12.53.77,25,3.67,37.52,4.5,7.26.48,14.78-.47,22.03-.03,17.55,1.05,36.24,6.32,52.45,12.02l.02-1.98h.98s2.01,2,2.01,2ZM345.98,108.98c-.45.34-1.54-1.42-2.63-1.64-3.83-.79-11.89.37-16.46.05-9.19-.65-16.59-3.27-26.34-1.41-1.43.27-10.21,2.6-10.54,3.04-2.11,2.83,8.47,4.66,9.64,4.87,31.03,5.6,67.89,2.9,99.88,6.05,2.16.21,7.67,1.16,8.92,1.12.62-.02.62-1.43.57-2.05l3.47,2c1.75-4.97.5,1.21,4.02.01.92-.31-.16-2.51,1.47-2.02l1.46,2.67,22.55,1.32c.24-1.4-1.77-1.46-2.77-1.71-23.31-5.69-50.16-9.4-73.76-12.2-6.29-.75-12.79-.15-18.91-2.13-.76.03-.47,1.96-.58,2.03ZM475.99,303c1.54,6.54,3.3,14.78,5.49,21.02.36,1.04.97,2.56,2.11,2.81,16.59-3.56,33.56-.39,50.36-.22,1.2.01,1.32-.13,2.03-1.13-2.48-15.61-6.95-33.34-12.96-48-3.41-8.32-10.39-15.04-17.01-20.99-14.76-13.28-32.79-28.2-51.97-34.03-1.03-.31-1.92-.66-3.03-.47v4.02c-4.11-1.65-7.88,4.57-11.52,6.97-11,7.26-34.68,12.68-46.39,5.42-3.69-2.28-10.84-12.47-12.81-13.19-.84-.31-10.01-1.8-10.78-1.72-.68.07-12.61,2.91-13.22,3.21-3.59,1.78-6.22,6.58-5.26,10.63,1.3,5.48,6.21,18.61,8.44,24.65,1.55,4.19,6.76,19.79,10.25,20.81,1.69.49,7.03.54,8.86.29.26-.03,3.89-1.54,4.42-1.76,5.02-2.06,2.03-2.08,2.01-4.73,0-.56,1.5-.58,1.88-1.42,1.64-3.51,1.42-6.84.31-10.8-.07-.25-1.31-2.97-1.77-4.26-3.34-9.27-9.55-18.98-11.91-29.15-.33-1.44,2.56-2.31-.51-4.96,1.99-.35,2.89,1.27,3.84,2.65,3.31,4.82,13.54,33.95,14.71,40.29.7,3.81-.59,6.74-.1,9.08.67,3.23,7.48,17.49,9.38,21.65,6.69,14.66,15.03,27.87,23.57,41.43,2.46,3.91,1.89,7.01,6.73,10.27s29.12,8.47,33.9,6.14c2.09-1.02,2.29-7.16,4.47-1.52l4.5-4.5c-4.37-1.18.43-5.45,1.38-9.37.63-2.61.39-14.99-.39-17.42-.4-1.25-2.02-.27-2-1.2,4.02-1.03,1.06-1.88.67-3.52-.81-3.39-2.28-8.43-3.9-12.24-.84-1.98-3.45-4.03-3.76-6.73,2.11-.5,2.26,1.13,3.22,2.27,2.36,2.81,4.82,7.12,5.79,10.72,3.58-1.81-4.36-11.44.98-11ZM403.99,339.99c-.08-3.84-4.68-4.19-7-6.49-4.32-4.27-12.3-21.54-15.16-27.84-1.26-2.77-5.66-16.08-6.3-16.7-1.38-1.35-4.27-.88-6.28-1.72-9.61-4.05-20.9-35.86-22.27-46.24-16.64,9.12-28.24,23.45-38.4,39.08-2.19,3.36-12.22,19.05-12.46,21.6-.13,1.43.6,1.52,1.51,2.18,3.66,2.64,9.05,5.54,13.08,7.92,7.64,4.52,15.56,9.21,23.3,13.5,1.43.79,8.37,4.24,8.98,3.71.82-3.16-.04-7.54.54-10.49.84-4.32,2.1-9.75,3.12-14.27.25-1.13,2.7-8.11,4.34-6.25v3.01s3-1,3-1c-1.26,11.36-7.79,22.17-6.98,34,13.35-9.66,21.44-5.5,34.89-.57.84.31,2.37-.53,4.01.07,2.34.85,8.34,7.35,9.61,7.33.76,0,1.88-2.43,3.13-2.7,1.73-.37,3.34,2.36,5.35,1.86ZM358.99,268l-2.33-8.16-4.65-9.83c1.02,5.85,2.82,13.74,6.98,18ZM292.94,417.93c3.19-2.2-6.52-27.1-7.67-31.7-6.42-25.88-8.64-57.47-16.56-82.44-.86-2.7-2.66-7.45-5.15-8.85-3.37-1.87-16.93-2.33-21.78-3.22-25.94-4.75-52.11-9.04-78-14-10.1-1.93-20.61-5.71-30.55-7.45-4.6-.8-13.29-3.11-12.05,3.96l17.34,53.76c1.43,1.91,6.76-1.66,9.98-1.99,9.22-.95,10.46,1.27,6.5,9.48,1.67,2.24,3.94.53,6.24,1.7,7.51,3.81-3.01,9.84-1.23,11.82.24.27,4.42-2.21,5.55,2.92.61,2.77-3.98,4.81-3.56,6.56.26,1.05,3.76,2.06,4.56,3.53,2.69,4.96-9.95,12.24-13.56,14.5,2.87.69.5,5.65,3.67,8.56,27.5,8.13,55.11,16.59,83.32,21.92-.2-1.57-3.65-2.12-4.98-2.51-19.43-5.7-40.23-10.39-60.01-14.49l6.24-.74,111.69,28.68ZM186.99,277.01l-36.99-6c-.24,1.44,1.76,1.4,2.79,1.68,7.5,2.09,19.02,4.14,26.81,5.2,1.47.2,6.79.99,7.39-.88ZM387.99,284c-4.03-.38-5.54,4.61-9.99,4.01,2.63,6.52,5.79,12.75,9.13,19.15,2.68,5.12,5.52,10.91,8.9,16.1,2.49,3.81.51,2.28,1.44,4.71,1.84,4.81,15.44,16.05,19.25,18.01,1.01.52,8,4.4,8.27,4.03.2-.27.58-2.78-.78-2.99-3.42-.52-1.08-.99-3.05-4.57-.9-1.64-3.1-3.75-4.05-5.26-.71-1.13-.58-3.08-1.61-4.29-.77-.91-2.42.25-2.49.11-.44-.8,1.31-2.72.84-3.81-.05-.12-1.46-.32-2.17-1.42-6.47-9.98-12.17-20.48-17.45-30.47-2.28-4.3-5.36-8.32-6.24-13.29ZM341.91,332.08c-.27-.33-6.39-1.06-7.9-1.59-14.13-4.87-26.19-14.35-38.48-22.5-4.63,7.01-9.24,14-14.53,20.54-.9,1.12-6.56,4.12-1.75,6.76,3.64,2,10.49,1.97,14.96,3.01,12.2,2.82,24.32,6.28,36.36,9.69l1.42-.44c1.15-3.64,13.26-11.47,9.92-15.46ZM154.99,329.01c-4.21-.45-8.5.35-12.27,2.26-1.38.7-1.58,2.13-2.05,2.39-2.81,1.55-9.42,3.45-10.47,7.05-2.16,7.39,4.55,34.16,12.5,36.19,2.61.66,12.47-6.95,14.97-8.72,1.02-.72,10.48-4.99,4.87-5.83-4.35-.66-5.32,2.3-6.8,2.94-2.55,1.11-11.73,3.29-11.73-.78,0-1.71,19.63-5.7,18.98-12.49-8.05-.68-13.63,6.08-21.99,5.99-2.53-2.5,9.92-7.29,10.7-7.79,2.39-1.52,8.23-5.61,8.86-8.17.25-1.01-.46-1.91-1.09-2.04-3.37-.7-20.44,8.04-21.47,7-2.12-5.05,20.17-15.3,16.99-17.99ZM487.2,332.78c-.5-.28-1.4-4.38-2.71-1.8-1.46,2.87-.89,9.88-1.75,13.25-1.64,6.38-11.06,15.52-17.18,17.82-19.81,7.48-50.61-10.59-66.54-22.05-2.99,11.11-5.57,29.44-13.13,38.38-2.48,2.93-12.54,6.27-15.4,8.6-3.97,3.24,0,2.79,1.85,4.15,9.72,7.11,16.11,17.23,23.08,26.95,1.6,2.23,4.63,8.73,6.03,9.97s19.47,7.29,22.78,8.22c5.49,1.54,11.32,2,16.77,3.72-1.73-3.27-1.92-26.87-3.21-27.79-1.06-.75-8.52-1.09-10.56-1.55-.15-.04-.26-1.62-2.38-2.06-2.77-.56-9.55,1.44-6.84-2.59-5.38,2.95-7.71-3.54-11.07-4.49-1.4-.39-2.83.59-2.92.47-.23-.34.39-1.99-.25-2.76-.71-.86-9.54-5.57-11.39-6.64l-10.38-11.58c6.32-.61,7.54,4.15,12.46,7.03,10.93,6.4,41.79,22.25,53.28,23.72,19.76,2.52,28.44.95,45.94-7.55,20.82-10.11,23.55-18.25,32.14-37.86,2.02-4.61,6.32-11.06,7.69-15.31,1.87-5.75.83-12.67,2.51-18.53-.22-3.55-6.74-2.67-9.58-2.53-7.1.36-34.85,5.3-39.26,2.82ZM394.97,342.04c-10.43-1.43-24.38-12.55-34.41-10.98-5.61.88-23.56,13.56-26.42,18.57-.8,1.41-1.38,2.69-1.13,4.36.69.75,11.05-5.88,12.78-6.71,3.07-1.48,11.61-5.66,6.01,1.06-3.16,3.79-10.2,10.8-9.81,16.14.22,2.97,3.12-2.16,3.45-2.51,2.73-2.85,7.66-8.43,10.52-10.52,1.37-1,2.02-1.88,4.04-1.45,1.45,1.38-13.27,17.46-10.99,21.99,2.39,2.6,13.53-18.51,15.99-15.99-1.43,7.14-8.01,12.96-8.03,20.48,0,1.33-.15,1.98,1.51,1.5,5.74-1.64,7.9-13.04,12.18-13.79s1.67,1.9,1.26,5.15c4.18,4.59,8.35.83,13.66.78l9.39-28.08ZM341.99,354c-.45-.55-9.67,8.06-12.55,1.96-.91-1.93,1.55-4.33-1.69-5.2l-47.75-12.76,14.01,67.99,59.53-25.96.45-7.04c-8.98,8.58-10.44.16-7-8-3.21,2.05-4.21,6.78-8.99,6-1.14-6.57,1.98-11.21,3.99-17ZM542.01,381c1.4-2.47-7.67-14-8.51-13.98l-14.52,23.46c-4.26,3.97-8.18,8.59-12.46,12.49-2.25,2.05-7.67,3.68-5.51,6.03-8.32.62-17.16,5.39-25.98,6.52-6.11.78-14.15,1.11-20.01-.51-1.89,2.54,6.44,9.53,7.69,11.31.58.83.03,2.59.62,3.38.88,1.18,8.04,8.74,8.93,9.11,1.38.58.3-.61,3.47,1.19,4.4,2.49,12.71.27,17.85-.89,1.96-.44,8.42-3.45,10.19-4.03,13.43-4.42,24.77-7.69,36.58-16.23,7.07-5.12,13.9-11.33,10.68-20.84l1.98,1.02c1.22-1.67-6.56-18.77-8.01-20-2.24-1.9-1.49,2.49-2.97,1.99ZM379.99,375c-2.93,1.03-7.62-.44-10.22.26-4.24,1.15-6.58,5.79-10.09,7-9.01,3.11-15.84,6.54-24.71,10.2-13.06,5.39-26.5,10.17-39.92,14.58.14,3.81.62,7.87,2.95,10.94-2.75-.54-5.37,2.45-7.48,2.58-5.42.33-16.28-5.65-22.52-4.07,10.17,9.34,17.7,21.02,26.04,31.96,9.13,11.98,14.44,19.93,22.54,32.46,7.03,10.87,10.93,11.43,19.48,18.52,6.46,5.35,13.17,21.17,23.93,24.18,2.04.57,3.85-.77,3.99-.63.16.17-.4,2.2,1.6,3.92,8.72,7.5,27.46,8.22,38.63,10.37,5.04.97,9.92,3.78,15.28,3.81,10.2.05,42.5-11.05,51.8-16.28s13.36-16.31,17.69-25.8c-5.46,1.4-13.28.53-18.56-1.88-1.87-.85-8.91-8.05-8.44-10.14l-1.94.98c-.06-1.24-.34-2.44-.99-3.51-6.3-10.3-11.72-22.04-15.83-32.64-.29-.75,1.55-3.51.69-4.74-.41-.57-7.44-2.32-8.91-2.09h6.51s.48-1.99.48-1.99c-2.89.51-5.87-1.21-8.55-1.12-2.08.07-.87,2.32-2.73,2.01-7.38-1.22-15.5-6.84-22.72-8.89-1.74,1.64,16.23,18.23,12.5,22.99-2.11-1.86-3.85-4.18-6-6-10.08-8.52-22.83-24.54-31.47-35.53-6.56-8.34-11.21-17.91-18.05-26.03l-1.98-.05c-8.35,4-16.8,8.2-25.33,11.78-9.91,4.16-25.02,11.53-34.64,14.36-1.67.49-3.31.61-5.03.46,4.16-3.77,10.48-6.35,15.64-8.85,21.28-10.32,43.21-19.51,65.14-28.35l1.21-4.78ZM163.99,425l12.59-26.97c.83-1.45.4-3.34-1.09-4.02-1.83-.83-1.74,1.73-2.18,2.76-3.86,8.88-6.87,18.16-11.22,26.83-.78,1.69,1.36,1.86,1.9,1.4ZM393.99,422c1.35-1.52-16.92-25.7-20.98-27,.76,4.57,5.41,7.25,7.96,10.53,1.07,1.38,12.06,17.55,13.02,16.47ZM260,414.01l-80.89-17.89c-2.82,8.19-6.55,16.34-10.39,24.09-8.4,16.92-15.68,29.83-21.97,48.03-.57,1.65-1.48,7.47-1.75,7.76-3.21,3.39-.28-6.22-1.49-6l-4.48,9.5c.68,1.13,1.42,1.15,2.52,1.45,21.84,5.94,45.38,7.5,67.63,9.61,2.93.28,10.87,3.9,9.84.44h.97c-.46,3.29,4.63,1.67,7.01,3.01.59,1.26-7.66,1.47-4.01,3.5,1.93,1.08,4.85.29,7.01.48-.81-3.69.43-9.17,1.47-13.01,4.63-17.12,13.7-32.78,20.24-48.77.87-2.13,4.92-11.46,5.15-12.94.2-1.27-1.03-3.19-.87-3.27.55-.27,2.18.32,2.91-.09.26-.15.46-4.97,1.1-5.91ZM169,397.01c-5.49-.39-10.83.31-16.22,1.27l-12.77,4.71c9.16-1.54,18.27-2.82,27.5-4,1.36-.17,3.18-.7,1.49-1.99ZM167.5,491c-4.52-.7-12.03,0-17,0-1.9,0-14.94-4.37-15.36-6.64l17.83-44.8c-.43-1.9-10.15-3.26-12.77-4.31-1.51-.61-2.71.59-2.2-2.25l5.99.99-.48-3.99,11.44,3.98,12-31.52c.27-1.72.06-1.51-1.48-1.49-8.18.12-30.06,5.08-38.48,7.54-3.85,1.13-23.41,9.24-24.9,11.6-.1.17.96,2.03.5,3.88-.78,3.1-4.61,8.08-6.06,12.05-4.76,13.09-3.29,21,.95,33.97,7.93,24.26,18.99,22.9,39.18,31.82,3.17,1.4,13.23,5.92,15.32,7.68,2.66,2.24,1.31,6.04,7.48,5.47,9.09-.85,6.92-17.05,10.54-22.97-1.05.29-1.97-.93-2.51-1.01ZM451.79,415.2c-.79-.57-10.17-2.44-11.78-1.71.92,1.41,3.37,2.75,4.1,3.98,2.14,3.63,3.42,15.25,4.97,20.77,2.84,10.1,7.67,26,12,36.02,1.32,3.06,4.05,6.61,6,10.23.61,1.13-.1,2.38,0,2.44.64.34,2.21-.21,2.79.16.14.09-.59,1.35-.22,1.9,2.8,4.13,13.92,6.53,18.87,6.73,6.47.27,13.2-3.1,19.46-4.71,2.97,2.49-9.46,4.48-8.99,5.99,8.38,1.87,12.95-3.38,19.1-6.39,8.56-4.18,16.11-6.11,24.23-11.77,4.36-3.04,17.23-13.87,18.24-18.81-1.62-7.19-.09-15.44-4.28-21.67.92-3.14.5-4.87-1.66-7.33l-2.64-15.02-10.49,9.04c-.91.79-2.83.66-3.3,1.22-.61.72.01,2.27-.21,2.75-.15.32-1.84-1.24-2.78-.85-.78.33-5.95,5.48-6.37,5.63-.54.2-1.98-.88-3.12-.63-8.26,1.78-21.54,6.58-29.83,9.24-4.42,1.42-11.99,2.12-14.39,5.59-2.27-3.65-3.66-.52-4.99-.48-7.59.23-14.24-5.73-17.28-12.25-2.11-4.52-3.89-9.78-5.17-13.02-.61-1.54-1.42-6.42-2.28-7.04ZM558.99,426l-1.93,2.43,3.93,10.57-2-13ZM476.99,443.01c-4.88-.03-8.38-3.26-11.98-6.01.63,4.05,4.94,6.31,8.59,6.91,1.01.17,3.67.81,3.4-.9ZM458,474.99l-8.99-20.99c.74,5.54,3.24,13.65,5.94,18.54.77,1.39.82,2.91,3.05,2.44ZM298.62,457.49l-1.51,1.26,11.37,13.67,1.51-1.26-11.37-13.67ZM157,486.01c-6.55.34-12.59-3-18.99-4.01v3.99c4.59-.62,8.95.82,13.45,1.05,1.17.06,5.54.7,5.54-1.04ZM218.01,499l-44.01-7c.62,5.01-.89,9.59-2.06,14.35.18,1.18,6.77,3.45,8.31,3.91,3.14.93,13.5,3.69,16.14,3.66,6.03-.08,14.87-4.35,21.57-3.96-.17-1.7.46-10.58.06-10.95ZM274,528.99c4.92-1.85,11.27,5.57,14.55,3.08,4.14-3.15,16.21-33.96,14.03-37.1-.91-1.32-10.51-3.96-12.1-1.98-1.32,1.64-5.62,15.1-7.31,18.69-2.79,5.95-6.64,11.27-9.17,17.32ZM337.99,525c-.85-3.9-3.36-7.02-4.55-10.94-1.46-4.81.17-9.61-5.92-13.12-1.41-.81-2.8-.12-4.24-.62-5.19-1.81-10.42-3.79-15.63-5.49-.78-.25-1.3-1.53-2.17.14-1.91,3.65-.34,9.17-.68,12.3-.52,4.67-5.54,13.67-7.99,18.03-1.51,2.69-6.93,9.22-6.82,11.11.14,2.37,3.04,5.75,3.05,8.57,2.16,1.57,16.88-9.63,13.96.02h4.01c-2.96,5.66-20.48,7.75-14.5,14.98l12.98-6.98-.48,3.99c.49.32,6.7-2.17,4,.99-1.53,1.79-15.13,4.59-17.49,7.03-1.97,2.03-2.34,11.7-3.51,14.98,2.91-.66,4.74-2.69,7.77-3.72,5.53-1.88,17.69-4.98,22.22-.77l-4.99,1.48c3.32-.37,7.18,4.11,9.01,1.55l21.01-44.02c-11.54-3.71-19.93-15.21-18.01-27.52,2.09.39,1.57,2.17,1.97,3.52,1.5,5.09,1.65,11.69,7.01,14.48ZM152,511.02c-1.21-1.28-15.11-6.48-17.99-7.01l6.32,4.17,11.19,4.81c.86.13.56-1.89.49-1.98ZM351.86,522.13l-17.86-13.12c2.51,8.45,7.17,16.83,13.5,22.97,1.05-1.87,5.19-8.4,4.36-9.85ZM220.99,514c-6.18.16-12.34,4.1-18.45,4.02-2.94-.04-12.6-1.61-15.79-2.29-4.52-.96-14.77-5.74-18.09-4.59-.86.3-11.32,13.11-10.67,13.84,5.72-.25,6.05,4.45,8.47,7.04.77.82,8.21,4.04,5.54,5.47-2.14,1.15-4.59-2.62-5.5,1.49-5.11-5.31-16.18-14.4-19.5-3.01,2.84,1.4,10.2,4.39,11.52,7,.75,1.49-.24,2.97-1.02,2.99-1.12.04-11.83-8.64-14.01-8.65-.57,0-9.08,4.98-9.89,5.6-3.07,2.34,5.78,6.85,7.81,9.15,5.13,5.82,6.67,13.34,10.25,19.98,14.93-2.14,29.21-8.72,44.69-8.19,1.48-.49,3.77-9.18,5.12-11.88,2.4-4.83,6.78-10.73,11.37-13.63,2.04-1.29,7.86-2.98,8.71-4.35.68-1.1-1.5-7.07-1.61-9.48-.18-3.8.81-6.87,1.04-10.52ZM313.99,599c-1.77,1.04-9.96,10.74-9.97,11.5-.04,4.84,10.26-1.4,12-2.98,8.73-7.9,25.5-35.31,29.45-46.55,1.37-3.89,1.56-7.93,3.04-11.96,1.77-4.83,10.02-16.26,10.33-19.7.17-1.9-3.26-3.85-4.34-5.3-3.27,2.55-2.05,6.57-2.95,10.03-4.75,18.39-21.79,48.27-33.14,63.86-2.37,3.26-4.9,6.38-7.92,9.08l3.5-7.99ZM223,560v-17.5l-2.49-6.49c-2.74,5.95-8.63,6.11-12.93,12.08-2.85,3.95-2.46,6.65-4.15,9.85-.91,1.71-3.36,2.43-3.44,4.56-.03,1.73,20.71-2.65,23.01-2.49ZM143,571.99c-.47-5.6-8.78-24.43-14.53-25.03-3.18-.33-16.76,9.02-18.89,12.1-1.24,1.79-4.11,5.78-1.3,7.17,9.4,4.65,24.29,5.19,34.73,5.75ZM148,571.99c.32-.39-2.3-6.59-2.83-7.66-.61-1.21-1.81-4.05-3.16-4.33.38,3.23,1.96,7.21,3.48,10.04.34.63,1.01,3.75,2.5,1.95ZM221.99,563.01c-14.97,3.67-29.86,7.37-45.38,8.11-17.91,4.84-35.56,6.28-54,3.76-5.37-.73-10.15-2.6-15.17-3.84-1.32-.33-1.95.15-1.43,1.44,1.33,3.31,3.18,7.1,6.49,8.51l-.51-2.98c5.74-1.7,9.77,2.43,14.48,3.01,29.11,3.6,53.69-8.94,81.04-11.01,1.18-.09,5.47-.84,5.48.98l-18.99,4.02c-.24,1.74,2.27.93,3.48.98,2.85.12,5.96.2,8.77-.24,1.52-.24,14.2-4.25,14.6-4.9.56-.92.1-6.04,1.13-7.85ZM288.99,582l3-17c-1.74.3-1.76,2-2.14,3.35-.79,2.82-2.5,9.55-2.82,12.2-.24,1.98.3,1.51,1.96,1.46ZM324,581.01c-7.31-3.01-26.78-.74-31.7,5.27-3.86,4.71,1.3,21.48,6.14,24.78s4.22-2.95,6.1-6.02c3.42-5.59,11.08-12.11,15.44-17.56.79-.99,4.71-5.71,4.02-6.47Z"/>
    <path class="cls-1" d="M378.99,148l-3.91,32.37c.67,2.56,9.52-.37,12.27-.31.64.01,6.56.96,4.64,2.92-1.68,1.72-21.78,5.98-21.93-1.42,2.81-9.26,3.18-19.07,5.59-28.41.47-1.82.61-5.93,3.34-5.15Z"/>
    <path class="cls-1" d="M384,200.99l23.99-11.99c-1.77,5.21-8.97,12.7-14.57,12.93-2.72.11-6.28-1.76-9.42-.94Z"/>
    <path class="cls-1" d="M466.01,158c1.8-6.17,4.76-11.47-4-12.49,9.55-7.08,10.37,9.18,4,12.49Z"/>
    <path class="cls-1" d="M400.5,145.02c2.86.02,3.98,8.86-.97,8.97-4.07-1.6-1.21-8.99.97-8.97Z"/>
    <path class="cls-1" d="M353.98,152.99c-1.7.19-3.27.18-3.85-1.64-2.34-7.36,8.02-7.45,3.85,1.64Z"/>
    <g>
      <path class="cls-1" d="M472.98,451.01c.16.13.93,2.7,1.68,3.76,5.3,7.41,8.23,14.53,17.46,20.62,6.13,2.85,12.69,6.2,17.88,10.61-19.32.82-37.05-15.63-39.01-34.48-.12-.88,1.87-.61,1.99-.5Z"/>
      <path class="cls-1" d="M523.99,411.99c-.28,2.49,1.52,4.34.1,6.52-8.15,12.64-16.49-5.88-.1-6.52Z"/>
    </g>
  </g>
  <g>
    <path class="cls-1" d="M290,413.99l-2.98-.68c-10.88-37.91-18.08-76.69-26-115.3l4.46,11.03c9.04,34.77,14.97,70.35,24.53,104.96Z"/>
    <path class="cls-1" d="M194,331.01c-3.32,4.5-5.59,9.62-2.42,14.91,6.1,10.21,23.16.27,14.84-9.84l-7.41-5.08c21.74,1.07,9.86,30.58-6.71,21.19-8.74-4.95-7.41-17.69,1.7-21.19Z"/>
    <path class="cls-1" d="M299,382c.06-3.73-3.92-1.81-5.99-4.51l4.99-4.99-3.99-2.48c6.52.63,10.81,4.47,14.99-3-7.51-2.3-17.03-3.89-23-9l48.99,14c.27,1.69-2.43,1.1-3.48.98-2.54-.28-7.59-1.01-9.98-1.54-6.2-1.37-9.81-7.06-15.53,1.54,6.54,2.89,8.96,2.01,15-.98l-2.99,4.98c.43.39,5.89-.38,5.99,1.99-4.01,1.2-8.1-2.08-11.51-2.04-2.16.02-4.24,1.51-6.48,2.05.62-1.43,2.4-2.11,2-3.99-5.56-.39-7.43-3.74-11.99,1.51l6.77,3.29c1.32.51,2.33-.58,3.23-.8-.28.63.29,2.75,0,3-.27.23-4.27-.84-7,0-.06,3.21-3.02,2.17-4,4.99l3.99,2c-9.3.23-6.97-4.84,0-6.99Z"/>
    <path class="cls-1" d="M337,376.01c-3.52,4.21-10.25,6.73-15.32,9.17-7.96,3.83-17.1,8.15-25.68,9.81,11.58-10.25,27.39-12.22,41-18.98Z"/>
    <path class="cls-1" d="M322.99,355.98c-.39.56-10.69,5.64-12.48,5.1l-19.51-7.07c6.64-1.25,15.03,5.47,20.68,5.75,2.51.12,6.1-4.11,9.32-3.77-.18-1.58-1.5-1.52-2.6-1.89-5.45-1.8-11.71-2.38-17.1-4.9-.68-.32-4.13-2.27-.82-2.19,5.6,1.72,12.12,2.2,17.5,4.51,1.2.51,6.34,2.54,5.01,4.47Z"/>
    <path class="cls-1" d="M297.99,347c.56,2.89-.83,1.6-2.19,2.25-2.78,1.34-5.83,3.08-8.8,3.73,2.11-3.68,7.1-5.08,10.99-5.99Z"/>
  </g>
</svg>